<?xml version="1.0" encoding="UTF-8"?>
<svg width="708px" height="216px" viewBox="0 0 708 216" version="1.1" xmlns="http://www.w3.org/2000/svg" xmlns:xlink="http://www.w3.org/1999/xlink">
    <!-- Generator: Sketch 52.6 (67491) - http://www.bohemiancoding.com/sketch -->
    <title>Group 3</title>
    <desc>Created with Sketch.</desc>
    <defs>
        <polygon id="path-1" points="0 0.898 708.007 0.898 708.007 215.94 0 215.94"></polygon>
    </defs>
    <g id="Page-1" stroke="none" stroke-width="1" fill="none" fill-rule="evenodd">
        <g id="vpro-outline-dicht">
            <g id="Group-3">
                <mask id="mask-2" fill="white">
                    <use xlink:href="#path-1"></use>
                </mask>
                <g id="Clip-2"></g>
                <path d="M626.106,49.199 L701.407,11.398 L591.306,11.398 C607.506,20.098 619.207,33.898 626.106,49.199 Z M513.005,85.499 C513.005,64.499 528.605,49.498 547.206,49.498 C565.806,49.498 581.406,64.499 581.406,85.499 C581.406,106.199 565.806,121.199 547.206,121.199 C528.605,121.199 513.005,106.199 513.005,85.499 Z M626.707,85.499 C626.707,49.199 601.207,7.798 547.206,7.798 C493.205,7.798 467.705,49.199 467.705,85.499 C467.705,121.799 493.205,163.2 547.206,163.2 C601.207,163.2 626.707,121.799 626.707,85.499 Z M406.504,158.7 L470.705,126.599 C463.804,113.699 460.504,99.299 460.504,85.499 C460.504,57.598 474.305,26.998 503.105,11.398 L473.105,11.398 L453.905,64.499 C447.905,60.299 440.705,57.899 433.504,57.899 C418.504,57.899 406.504,68.399 406.504,85.799 L406.504,158.7 Z M399.304,159.599 L399.304,85.799 C399.304,63.899 414.904,50.998 433.504,50.998 C439.205,50.998 444.905,52.498 449.705,55.199 L465.605,11.098 C459.004,8.998 451.504,7.798 443.405,7.798 C420.904,7.798 405.004,19.498 397.204,32.098 L396.604,32.098 L396.604,11.398 L354.904,11.398 L354.904,159.599 L399.304,159.599 Z M331.503,46.799 L347.704,38.699 L347.704,11.398 L300.303,11.398 C314.103,19.498 324.903,31.798 331.503,46.799 Z M215.102,85.499 C215.102,66.598 228.002,49.199 250.803,49.199 C273.603,49.199 286.503,66.598 286.503,85.499 C286.503,105.599 272.403,121.799 250.803,121.799 C229.202,121.799 215.102,105.599 215.102,85.499 Z M215.402,209.1 L215.402,143.099 L216.002,143.099 C222.602,152.699 236.703,163.2 259.803,163.2 C312.003,163.2 331.803,119.699 331.803,83.999 C331.803,40.199 302.103,7.798 259.803,7.798 C237.302,7.798 221.702,17.998 213.302,29.998 L212.702,29.998 L212.702,11.398 L171.001,11.398 L171.001,209.1 L215.402,209.1 Z M111.001,157.2 L163.802,130.799 L163.802,11.398 L160.802,11.398 L111.001,157.2 Z M102.601,159.599 L153.301,11.398 L108.901,11.398 L81.901,103.799 L81.301,103.799 L54.3,11.398 L9.9,11.398 L60,159.599 L102.601,159.599 Z M0,4.498 L59.701,4.498 L75.601,58.799 C77.401,65.399 80.101,75.299 81.601,84.899 C83.101,75.299 85.801,65.399 87.601,58.799 L103.501,4.498 L237.603,4.498 C244.203,2.098 251.703,0.898 259.803,0.898 C268.503,0.898 276.903,2.098 284.403,4.498 L421.804,4.498 C428.104,2.098 435.304,0.898 443.405,0.898 C452.105,0.898 460.504,2.098 468.004,4.498 L520.206,4.498 C528.305,2.098 537.305,0.898 547.206,0.898 C557.106,0.898 566.106,2.098 574.206,4.498 L699.307,4.498 C705.007,4.498 708.007,6.898 708.007,11.098 C708.007,14.098 706.208,16.798 702.607,18.598 L628.506,55.498 C632.107,65.399 633.907,75.599 633.907,85.499 C633.907,125.099 606.006,170.099 547.206,170.099 C512.105,170.099 487.805,153.899 474.305,132.599 L406.504,166.5 L347.704,166.5 L347.704,46.498 L334.204,53.398 C337.204,62.699 339.003,72.899 339.003,83.999 C339.003,123.299 316.503,170.099 259.803,170.099 C243.603,170.099 231.002,165.599 222.602,158.099 L222.602,216 L163.802,216 L163.802,138.599 L107.701,166.5 L54.9,166.5 L0,4.498 Z" id="Fill-1" fill="#A6A1D0" mask="url(#mask-2)"></path>
            </g>
        </g>
    </g>
</svg>