<?xml version="1.0" encoding="UTF-8" standalone="no"?>
<!DOCTYPE svg PUBLIC "-//W3C//DTD SVG 1.1//EN" "http://www.w3.org/Graphics/SVG/1.1/DTD/svg11.dtd">
<svg width="100%" height="100%" viewBox="0 0 709 216" version="1.1" xmlns="http://www.w3.org/2000/svg" xmlns:xlink="http://www.w3.org/1999/xlink" xml:space="preserve" xmlns:serif="http://www.serif.com/" style="fill-rule:evenodd;clip-rule:evenodd;stroke-linejoin:round;stroke-miterlimit:2;">
    <g transform="matrix(1,0,0,1,-241.278,-275.709)">
        <g transform="matrix(1,0,0,1,867.384,442.51)">
            <g id="Layer-1" serif:id="Layer 1">
                <path d="M0,-118.501L75.301,-156.301L-34.8,-156.301C-18.6,-147.601 -6.899,-133.801 0,-118.501M-113.101,-82.201C-113.101,-103.201 -97.501,-118.201 -78.9,-118.201C-60.3,-118.201 -44.7,-103.201 -44.7,-82.201C-44.7,-61.501 -60.3,-46.501 -78.9,-46.501C-97.501,-46.501 -113.101,-61.501 -113.101,-82.201M0.601,-82.201C0.601,-118.501 -24.899,-159.901 -78.9,-159.901C-132.901,-159.901 -158.401,-118.501 -158.401,-82.201C-158.401,-45.9 -132.901,-4.5 -78.9,-4.5C-24.899,-4.5 0.601,-45.9 0.601,-82.201M-219.602,-9L-155.401,-41.1C-162.302,-54.001 -165.602,-68.4 -165.602,-82.201C-165.602,-110.101 -151.801,-140.701 -123.001,-156.301L-153.001,-156.301L-172.201,-103.201C-178.201,-107.401 -185.401,-109.801 -192.602,-109.801C-207.602,-109.801 -219.602,-99.301 -219.602,-81.901L-219.602,-9ZM-226.802,-8.1L-226.802,-81.901C-226.802,-103.801 -211.202,-116.701 -192.602,-116.701C-186.901,-116.701 -181.201,-115.201 -176.401,-112.501L-160.501,-156.602C-167.102,-158.702 -174.602,-159.901 -182.701,-159.901C-205.202,-159.901 -221.102,-148.201 -228.902,-135.601L-229.502,-135.601L-229.502,-156.301L-271.202,-156.301L-271.202,-8.1L-226.802,-8.1ZM-294.603,-120.901L-278.402,-129.001L-278.402,-156.301L-325.803,-156.301C-312.003,-148.201 -301.203,-135.901 -294.603,-120.901M-411.004,-82.201C-411.004,-101.101 -398.104,-118.501 -375.303,-118.501C-352.503,-118.501 -339.603,-101.101 -339.603,-82.201C-339.603,-62.101 -353.703,-45.9 -375.303,-45.9C-396.904,-45.9 -411.004,-62.101 -411.004,-82.201M-410.704,41.401L-410.704,-24.6L-410.104,-24.6C-403.504,-15.001 -389.403,-4.5 -366.303,-4.5C-314.103,-4.5 -294.303,-48.001 -294.303,-83.701C-294.303,-127.501 -324.003,-159.901 -366.303,-159.901C-388.804,-159.901 -404.404,-149.701 -412.804,-137.701L-413.404,-137.701L-413.404,-156.301L-455.104,-156.301L-455.104,41.401L-410.704,41.401ZM-515.105,-10.5L-462.304,-36.9L-462.304,-156.301L-465.304,-156.301L-515.105,-10.5ZM-523.505,-8.1L-472.805,-156.301L-517.205,-156.301L-544.205,-63.9L-544.805,-63.9L-571.806,-156.301L-616.206,-156.301L-566.105,-8.1L-523.505,-8.1ZM-626.106,-163.202L-566.405,-163.202L-550.505,-108.901C-548.705,-102.301 -546.005,-92.401 -544.505,-82.801C-543.005,-92.401 -540.305,-102.301 -538.505,-108.901L-522.605,-163.202L-388.503,-163.202C-381.903,-165.602 -374.403,-166.801 -366.303,-166.801C-357.603,-166.801 -349.203,-165.602 -341.703,-163.202L-204.302,-163.202C-198.002,-165.602 -190.802,-166.801 -182.701,-166.801C-174.001,-166.801 -165.602,-165.602 -158.102,-163.202L-105.9,-163.202C-97.801,-165.602 -88.801,-166.801 -78.9,-166.801C-69,-166.801 -60,-165.602 -51.9,-163.202L73.201,-163.202C78.901,-163.202 81.901,-160.801 81.901,-156.602C81.901,-153.602 80.102,-150.901 76.501,-149.101L2.4,-112.201C6.001,-102.301 7.801,-92.101 7.801,-82.201C7.801,-42.6 -20.1,2.4 -78.9,2.4C-114.001,2.4 -138.301,-13.8 -151.801,-35.1L-219.602,-1.2L-278.402,-1.2L-278.402,-121.201L-291.902,-114.301C-288.902,-105.001 -287.103,-94.801 -287.103,-83.701C-287.103,-44.4 -309.603,2.4 -366.303,2.4C-382.503,2.4 -395.104,-2.1 -403.504,-9.6L-403.504,48.3L-462.304,48.3L-462.304,-29.1L-518.405,-1.2L-571.206,-1.2L-626.106,-163.202Z" style="fill:white;fill-rule:nonzero;"/>
            </g>
        </g>
    </g>
</svg>
