<svg width="114" height="97" viewBox="0 0 114 97" fill="none" xmlns="http://www.w3.org/2000/svg">
<path d="M70.0577 32.1163C70.0668 32.9255 70.0316 33.7346 69.9523 34.54C63.0191 32.2299 55.5062 32.3476 48.6487 34.8737C48.6487 34.2063 48.6487 33.5389 48.6487 32.8715C48.6309 28.2591 49.6105 23.6974 51.5203 19.4989C53.43 15.3004 56.2248 11.5644 59.7132 8.54688C62.9769 11.5439 65.5819 15.1868 67.3627 19.2443C69.1435 23.3018 70.0613 27.6852 70.0577 32.1163Z" fill="white"/>
<path opacity="0.5" d="M70.0577 32.1163C70.0668 32.9255 70.0316 33.7346 69.9523 34.54C63.0191 32.2299 55.5062 32.3476 48.6487 34.8737C48.6487 34.2063 48.6487 33.5389 48.6487 32.8715C48.6309 28.2591 49.6105 23.6974 51.5203 19.4989C53.43 15.3004 56.2248 11.5644 59.7132 8.54688C62.9769 11.5439 65.5819 15.1868 67.3627 19.2443C69.1435 23.3018 70.0613 27.6852 70.0577 32.1163Z" fill="#118DE8"/>
<path d="M69.9526 34.5413C69.6443 38.7377 68.5115 42.8321 66.6189 46.5902C64.7263 50.3482 62.1112 53.6961 58.9231 56.4422C52.8427 50.849 49.1611 43.1208 48.6489 34.875C55.5064 32.3489 63.0193 32.2312 69.9526 34.5413Z" fill="#4EE9A4"/>
<path opacity="0.5" d="M69.9526 34.5413C69.6443 38.7377 68.5115 42.8321 66.6189 46.5902C64.7263 50.3482 62.1112 53.6961 58.9231 56.4422C52.8427 50.849 49.1611 43.1208 48.6489 34.875C55.5064 32.3489 63.0193 32.2312 69.9526 34.5413Z" fill="#118DE8"/>
<path opacity="0.64" d="M69.9526 34.5413C69.6443 38.7377 68.5115 42.8321 66.6189 46.5902C64.7263 50.3482 62.1112 53.6961 58.9231 56.4422C52.8427 50.849 49.1611 43.1208 48.6489 34.875C55.5064 32.3489 63.0193 32.2312 69.9526 34.5413Z" fill="white"/>
<path d="M58.923 56.4423C54.7069 60.0652 49.6267 62.5379 44.1744 63.621C38.7221 64.7041 33.0825 64.3608 27.8018 62.6244C28.2456 56.4857 30.4475 50.6046 34.1443 45.6838C37.8411 40.763 42.8765 37.0106 48.6488 34.875C49.161 43.1209 52.8425 50.8491 58.923 56.4423Z" fill="#118DE8"/>
<path opacity="0.5" d="M58.923 56.4423C54.7069 60.0652 49.6267 62.5379 44.1744 63.621C38.7221 64.7041 33.0825 64.3608 27.8018 62.6244C28.2456 56.4857 30.4475 50.6046 34.1443 45.6838C37.8411 40.763 42.8765 37.0106 48.6488 34.875C49.161 43.1209 52.8425 50.8491 58.923 56.4423Z" fill="#4EE9A4"/>
<path d="M91.7657 62.9734C86.2197 65.0079 80.2203 65.4744 74.4265 64.3218C68.6326 63.1693 63.2685 60.4421 58.9233 56.44C62.1114 53.6939 64.7265 50.346 66.6191 46.5879C68.5117 42.8299 69.6445 38.7355 69.9528 34.5391C76.0072 36.5669 81.3181 40.3567 85.2045 45.4228C89.0908 50.4889 91.3756 56.6003 91.7657 62.9734Z" fill="#4EE9A4"/>
<path opacity="0.64" d="M91.7657 62.9734C86.2197 65.0079 80.2203 65.4744 74.4265 64.3218C68.6326 63.1693 63.2685 60.4421 58.9233 56.44C62.1114 53.6939 64.7265 50.346 66.6191 46.5879C68.5117 42.8299 69.6445 38.7355 69.9528 34.5391C76.0072 36.5669 81.3181 40.3567 85.2045 45.4228C89.0908 50.4889 91.3756 56.6003 91.7657 62.9734Z" fill="white"/>
<path d="M114 56.285L103.041 55.8635C99.8208 58.9965 95.9797 61.4196 91.7654 62.9765C91.3753 56.6033 89.0906 50.4919 85.2042 45.4259C81.3178 40.3598 76.007 36.5699 69.9525 34.5421C70.0318 33.7367 70.067 32.9276 70.0579 32.1184C70.0614 27.6873 69.1437 23.3039 67.3629 19.2464C65.5821 15.189 62.9771 11.546 59.7134 8.54898C65.3816 3.67399 72.5741 0.931276 80.049 0.794441C87.524 0.657607 94.812 3.13524 100.655 7.79952C106.498 12.4638 110.528 19.0219 112.051 26.3415C113.574 33.661 112.493 41.2825 108.995 47.8899L114 56.285Z" fill="white"/>
<path d="M48.5962 32.8741C48.5962 33.5415 48.5962 34.2089 48.5962 34.8763C42.8239 37.0119 37.7885 40.7643 34.0917 45.6851C30.3949 50.6059 28.1931 56.487 27.7492 62.6257C22.4735 60.8367 17.753 57.7078 14.0502 53.5456H0L8.67601 45.4843C5.58483 38.7309 4.92934 31.1151 6.82109 23.9329C8.71284 16.7507 13.0349 10.4459 19.0518 6.09165C25.0687 1.73736 32.4085 -0.397379 39.822 0.0507367C47.2356 0.498853 54.2649 3.50213 59.7134 8.54945C56.2155 11.5621 53.4107 15.2959 51.4917 19.4946C49.5728 23.6934 48.585 28.2576 48.5962 32.8741Z" fill="#118DE8"/>
<path d="M82.9312 87.1063L89.2363 93.0777L76.3276 92.3576C71.4679 95.2778 65.9213 96.8582 60.2523 96.938C54.5832 97.0177 48.9943 95.594 44.0544 92.8117C39.1144 90.0294 34.9999 85.9879 32.1296 81.0985C29.2593 76.2092 27.7357 70.6466 27.7139 64.977C27.7139 64.2042 27.7139 63.4139 27.8017 62.6587C33.0824 64.3951 38.722 64.7384 44.1743 63.6553C49.6266 62.5722 54.7068 60.0995 58.9229 56.4766C63.2681 60.4787 68.6322 63.2058 74.426 64.3584C80.2199 65.511 86.2193 65.0444 91.7653 63.01C91.7653 63.6598 91.7653 64.3272 91.7653 64.977C91.7827 73.2163 88.6179 81.1441 82.9312 87.1063Z" fill="#4EE9A4"/>
</svg>
