<?xml version="1.0" encoding="utf-8"?>
<!-- Generator: Adobe Illustrator 26.0.1, SVG Export Plug-In . SVG Version: 6.00 Build 0)  -->
<svg version="1.1" id="Layer_1" xmlns="http://www.w3.org/2000/svg" xmlns:xlink="http://www.w3.org/1999/xlink" x="0px" y="0px"
	 viewBox="0 0 5526.1 890.8" style="enable-background:new 0 0 5526.1 890.8;" xml:space="preserve">
<style type="text/css">
	.st0{opacity:0.5;fill:#118DE8;}
	.st1{opacity:0.5;fill:#4EE9A4;}
	.st2{fill:#118DE8;}
	.st3{opacity:0.64;fill:#001242;}
	.st4{fill:#001242;}
	.st5{fill:#4EE9A4;}
	.st6{opacity:0.5;fill:#001242;}
</style>
<path class="st0" d="M326.3,582.4c-29.8,0-59.1-4.7-87.1-14c7.7-107.6,78.1-201.3,179.3-238.7c30.8-11.3,63-17.1,95.7-17.1
	c29.9,0,59.3,4.8,87.6,14.3c-5.4,73.2-39.1,140.1-95,188.3C456.8,558.6,392.7,582.4,326.3,582.4z"/>
<path class="st0" d="M601.8,327c-5.5,75.2-41.3,141.9-95,188.3c-48.5,42-111.6,67.2-180.5,67.2c-30.5,0-59.7-4.9-87.1-14
	c7.9-109.9,80.2-202,179.3-238.7c29.8-11,62-17.1,95.7-17.1C544.8,312.7,574.2,317.7,601.8,327z"/>
<path class="st1" d="M694,588.4c-69.6,0-136.1-26-187.2-73.2c-52.6-48.5-84-114.3-88.3-185.5c30.8-11.3,63-17.1,95.7-17.1
	c29.9,0,59.3,4.8,87.6,14.3c107.1,35.8,180.7,131.8,187.6,244.5C758.9,582.7,726.9,588.4,694,588.4z"/>
<path class="st1" d="M789.3,571.5c-29.6,11-61.8,16.9-95.3,16.9c-72.2,0-138-27.7-187.2-73.2C456.2,468.6,423,403,418.5,329.8
	c29.8-11,62-17.1,95.7-17.1c30.7,0,60.1,5,87.6,14.3C706,361.8,782.4,457.3,789.3,571.5z"/>
<path class="st2" d="M418.5,329.8c-0.4-6.5-0.5-12.1-0.5-17.3c0-80.5,35-156.7,96-209.1c56.4,52,88.7,125.9,88.7,202.8
	c0,7.9-0.3,14.5-0.8,20.8c-28.2-9.4-57.7-14.2-87.6-14.2C481.4,312.7,449.2,318.5,418.5,329.8L418.5,329.8z"/>
<path class="st2" d="M602.6,306.1c0,7-0.2,13.9-0.8,20.8c-27.5-9.2-56.9-14.2-87.6-14.2c-33.7,0-65.8,6.1-95.7,17.1
	c-0.3-5.8-0.5-11.5-0.5-17.3c0-83.6,37.2-158.6,96-209.1C568.5,153.7,602.6,225.9,602.6,306.1z"/>
<path class="st1" d="M326.3,582.5c-29.8,0-59.1-4.7-87.1-14c7.7-107.6,78.1-201.2,179.3-238.7c4.4,71.1,35.7,137,88.3,185.5
	C456.8,558.6,392.7,582.5,326.3,582.5z"/>
<path class="st1" d="M506.8,515.3c-48.5,42-111.6,67.2-180.6,67.2c-30.5,0-59.7-4.9-87.1-14c7.9-109.9,80.2-202,179.3-238.7
	C423,403,456.2,468.6,506.8,515.3z"/>
<path class="st2" d="M239.2,568.4c-45.5-15-86.6-42-118.8-78.1L0,489.7l74.6-69.3c-16.4-36.1-24.7-74.6-24.7-114.3
	c0-152.4,124-276.3,276.3-276.3c69.9,0,136.5,26.1,187.7,73.6c-61,52.4-96,128.7-96,209.1c0,5.2,0.2,10.8,0.5,17.3
	C317.2,367.2,246.9,460.9,239.2,568.4L239.2,568.4z"/>
<path class="st2" d="M418,312.5c0,5.8,0.2,11.5,0.5,17.3C319.4,366.4,247,458.5,239.2,568.4c-46.3-15.3-87.1-42.6-118.8-78.1
	L0,489.7l74.6-69.3c-15.8-34.9-24.7-73.5-24.7-114.3c0-152.6,123.7-276.3,276.3-276.3c72.4,0,138.4,27.8,187.7,73.6
	C455.1,153.9,418,228.9,418,312.5z"/>
<path class="st3" d="M694,588.4c-69.6,0-136.1-26-187.2-73.2c55.8-48.2,89.5-115.1,94.9-188.3c107.1,35.8,180.8,131.8,187.6,244.5
	C759,582.7,726.9,588.4,694,588.4z"/>
<path class="st3" d="M789.3,571.5c-29.6,11-61.9,17-95.4,17c-72.2,0-138-27.7-187.2-73.2c53.7-46.4,89.4-113.2,94.9-188.3
	C706,361.8,782.4,457.3,789.3,571.5z"/>
<path class="st4" d="M789.3,571.5c-6.8-112.7-80.4-208.7-187.6-244.5c0.6-6.3,0.8-12.9,0.8-20.8c0-76.8-32.3-150.7-88.7-202.7
	c49.9-43.1,113.9-66.9,180-66.9c152.1,0,275.9,123.8,275.9,276c0,45-11.1,89.6-32,129.2l42.7,72.3l-94.3-3.7
	C858.4,537.5,825.8,558,789.3,571.5L789.3,571.5z"/>
<path class="st4" d="M980.6,514l-94.3-3.7C858.8,537,826,558,789.3,571.5C782.4,457.3,706,361.8,601.8,327
	c0.6-6.9,0.8-13.8,0.8-20.8c0-80.2-34.1-152.4-88.7-202.8c48.4-41.8,111.3-66.9,180-66.9c152.4,0,275.9,123.6,275.9,276
	c0,46.7-11.6,90.6-32,129.2L980.6,514z"/>
<path class="st5" d="M514.2,864.1c-152,0-275.7-123.7-275.7-275.7c0-7.2,0.2-13.8,0.7-20c28,9.3,57.3,14,87.1,14
	c66.4,0,130.5-23.9,180.6-67.2c51.1,47.2,117.6,73.2,187.2,73.2c32.9,0,65-5.7,95.4-17c0.4,6.3,0.5,11.9,0.5,17
	c0,71.4-27.2,139.1-76.5,190.6l54.2,51.9l-111.1-6.3C613.6,850.5,564.4,864.1,514.2,864.1z"/>
<path class="st5" d="M713.3,779l54.2,51.9l-111.1-6.3c-41.6,25-90.3,39.5-142.4,39.5c-152.3,0-275.7-123.4-275.7-275.7
	c0-6.7,0.2-13.4,0.7-20c27.4,9.1,56.6,14,87.1,14c69,0,132.1-25.2,180.6-67.2c49.2,45.4,114.9,73.2,187.2,73.2
	c33.5,0,65.7-6,95.4-17c0.3,5.7,0.5,11.3,0.5,17C789.9,662.3,760.8,729.5,713.3,779z"/>
<path class="st6" d="M506.8,515.3c-52.6-48.5-84-114.3-88.3-185.5c-0.3-6.7-0.5-12.2-0.5-17.3c0-80.5,35-156.7,96-209.1
	c56.3,52,88.6,125.9,88.6,202.8c0,7.8-0.3,14.6-0.8,20.8C596.4,400.2,562.7,467,506.8,515.3L506.8,515.3z"/>
<path class="st6" d="M602.6,306.1c0,7-0.2,13.9-0.8,20.8c-5.5,75.2-41.3,141.9-95,188.3C456.2,468.6,423,403,418.5,329.8
	c-0.3-5.7-0.5-11.5-0.5-17.3c0-83.6,37.2-158.6,96-209.1C568.5,153.7,602.6,225.9,602.6,306.1z"/>
<path class="st4" d="M1417.5,74.9c54.6,0,101.6,9.6,141.2,28.8c39.6,19.2,70.5,46.5,92.8,81.8c22.3,35.4,33.4,78,33.4,127.9
	c0,49.2-11.1,91.6-33.4,127.4c-22.3,35.7-53.2,63.2-92.8,82.4c-39.6,19.2-86.6,28.8-141.2,28.8H1248v283.6h-123.3V74.9H1417.5z
	 M1397.9,446.1c54.6,0,94.7-11.3,120.5-34c25.7-22.7,38.6-55.5,38.6-98.6c0-43.8-12.9-77-38.6-99.7c-25.7-22.7-65.9-34-120.5-34
	H1248v266.3H1397.9z"/>
<path class="st4" d="M1954.6,847.2c-37.7,0-72.4-6.9-104.3-20.7c-31.9-13.8-57.5-36.1-76.7-66.9c-19.2-30.7-28.8-70.7-28.8-119.9
	V259.3h123.3v349.3c0,52.3,11.1,88.2,33.4,107.8c22.3,19.6,53.4,29.4,93.4,29.4c19.2,0,37.8-3.3,55.9-9.8c18-6.5,34.4-16.9,49-31.1
	c14.6-14.2,25.9-32.5,34-54.7s12.1-48.4,12.1-78.4V259.3h123.3v576.3h-108.3l-5.8-93.4c-20,36.1-46.9,62.6-80.7,79.5
	C2040.7,838.7,2000.7,847.2,1954.6,847.2z"/>
<path class="st4" d="M2690,847.2c-33.8,0-64.7-6.5-92.8-19.6c-28.1-13.1-51.7-31.3-70.9-54.8c-19.2-23.4-33.4-49.7-42.7-78.9
	l15-19.6l-9.2,161.4h-108.3V0h123.3v404.6l-13.8-19.6c14.6-40,39.6-72.8,74.9-98.6c35.3-25.7,78-38.6,128-38.6
	c46.1,0,88.6,11.9,127.4,35.7c38.8,23.8,69.3,58,91.6,102.6c22.3,44.6,33.4,98.8,33.4,162.5c0,62.2-11.3,115.7-34,160.2
	c-22.7,44.6-53.4,78.8-92.2,102.6C2780.9,835.3,2737.6,847.2,2690,847.2z M2663.5,748.1c50,0,88.9-17.9,117-53.6
	c28-35.7,42.1-84.7,42.1-147s-13.8-111-41.5-146.4c-27.7-35.3-66.5-53-116.4-53c-32.3,0-60.3,8.3-84.1,24.8
	c-23.8,16.5-42.5,39.8-55.9,69.7c-13.5,30-20.2,65.7-20.2,107.2c0,40.7,6.5,75.9,19.6,105.5c13.1,29.6,31.7,52.4,55.9,68.6
	C2604.1,740,2632,748.1,2663.5,748.1z"/>
<path class="st2" d="M3155.7,74.9v760.8h-123.3V74.9H3155.7z M3593.7,397.7v106.1h-499.1V397.7H3593.7z M3655.9,74.9v760.8h-124.5
	V74.9H3655.9z"/>
<path class="st2" d="M3979.8,847.2c-37.7,0-72.4-6.9-104.3-20.7c-31.9-13.8-57.5-36.1-76.7-66.9c-19.2-30.7-28.8-70.7-28.8-119.9
	V259.3h123.3v349.3c0,52.3,11.1,88.2,33.4,107.8c22.3,19.6,53.4,29.4,93.4,29.4c19.2,0,37.8-3.3,55.9-9.8c18-6.5,34.4-16.9,49-31.1
	c14.6-14.2,25.9-32.5,34-54.7s12.1-48.4,12.1-78.4V259.3h123.3v576.3h-108.3l-5.8-93.4c-20,36.1-46.9,62.6-80.7,79.5
	C4065.9,838.7,4025.9,847.2,3979.8,847.2z"/>
<path class="st2" d="M4715.2,847.2c-33.8,0-64.7-6.5-92.8-19.6c-28.1-13.1-51.7-31.3-70.9-54.8c-19.2-23.4-33.4-49.7-42.7-78.9
	l15-19.6l-9.2,161.4h-108.3V0h123.3v404.6l-13.8-19.6c14.6-40,39.6-72.8,74.9-98.6c35.3-25.7,78-38.6,128-38.6
	c46.1,0,88.6,11.9,127.4,35.7c38.8,23.8,69.3,58,91.6,102.6c22.3,44.6,33.4,98.8,33.4,162.5c0,62.2-11.3,115.7-34,160.2
	c-22.7,44.6-53.4,78.8-92.2,102.6C4806.1,835.3,4762.9,847.2,4715.2,847.2z M4688.7,748.1c50,0,88.9-17.9,117-53.6
	c28-35.7,42.1-84.7,42.1-147s-13.8-111-41.5-146.4c-27.7-35.3-66.5-53-116.4-53c-32.3,0-60.3,8.3-84.1,24.8
	c-23.8,16.5-42.5,39.8-55.9,69.7c-13.5,30-20.2,65.7-20.2,107.2c0,40.7,6.5,75.9,19.6,105.5c13.1,29.6,31.7,52.4,55.9,68.6
	C4629.4,740,4657.2,748.1,4688.7,748.1z"/>
<path class="st2" d="M5267.3,847.2c-57.6,0-110.3-11.1-157.9-33.4c-47.7-22.3-85.3-53.8-113-94.5l85.3-73.8
	c16.9,31.5,41.3,56.7,73.2,75.5c31.9,18.8,70.1,28.2,114.7,28.2c35.3,0,63.4-6.1,84.1-18.4c20.8-12.3,31.1-29.6,31.1-51.9
	c0-14.6-4.8-27.5-14.4-38.6c-9.6-11.1-27.9-19.8-54.8-25.9l-121-25.4c-61.5-12.3-105.3-32.1-131.4-59.4
	c-26.1-27.3-39.2-62.1-39.2-104.3c0-31.5,9.2-60.7,27.7-87.6c18.4-26.9,45.5-48.6,81.3-65.1c35.7-16.5,78.6-24.8,128.5-24.8
	c57.6,0,106.8,10.2,147.5,30.5c40.7,20.4,71.9,49.4,93.4,87l-85.3,71.5c-14.6-30.7-36.1-53.6-64.5-68.6c-28.4-15-58-22.5-88.8-22.5
	c-24.6,0-45.7,3.1-63.4,9.2c-17.7,6.2-31.1,14.6-40.3,25.4c-9.2,10.8-13.8,23.4-13.8,38c0,15.4,5.8,28.8,17.3,40.3
	s32.3,20.4,62.2,26.5l131.4,27.7c55.3,10.8,94.3,29,117,54.8c22.7,25.7,34,57,34,93.9c0,36.9-9.6,69.4-28.8,97.4
	c-19.2,28.1-46.9,49.8-83,65.1C5360.3,839.5,5317.3,847.2,5267.3,847.2z"/>
</svg>
