<svg width="525" height="247" viewBox="0 0 525 247" fill="none" xmlns="http://www.w3.org/2000/svg">
    <rect x="120" width="405" height="232" rx="13" fill="white" />
    <path d="M120 13C120 5.8203 125.82 0 133 0H155V232H133C125.82 232 120 226.18 120 219V13Z"
        fill="#D9D9D9" />
    <circle cx="138" cy="43" r="8" fill="white" />
    <rect x="155" width="70" height="232" fill="#E7E7E7" />
    <rect x="162" y="58" width="47" height="3" fill="#D9D9D9" />
    <rect x="162" y="68" width="47" height="3" fill="#D9D9D9" />
    <rect x="162" y="78" width="47" height="3" fill="#D9D9D9" />
    <path fill-rule="evenodd" clip-rule="evenodd"
        d="M109.856 150.522C111.489 151.192 112.27 153.06 111.599 154.694L95.3347 194.301L109.261 238.798C109.55 239.721 109.406 240.724 108.869 241.528C108.332 242.332 107.461 242.85 106.498 242.937L87.5185 244.653C85.7599 244.812 84.2054 243.516 84.0464 241.757C83.8874 239.998 85.1841 238.444 86.9427 238.285L101.975 236.926L88.8875 195.109C88.6647 194.397 88.6979 193.63 88.9812 192.94L105.684 152.265C106.355 150.631 108.223 149.851 109.856 150.522Z"
        fill="#FFCE68" />
    <path fill-rule="evenodd" clip-rule="evenodd"
        d="M141.979 154.145C143.737 154.313 145.026 155.873 144.859 157.631L141.209 195.994L153.026 236.947C153.277 237.814 153.149 238.748 152.673 239.515C152.198 240.283 151.42 240.815 150.532 240.978L130.725 244.617C128.988 244.936 127.322 243.787 127.003 242.05C126.684 240.313 127.833 238.647 129.57 238.328L145.904 235.327L134.897 197.182C134.785 196.796 134.748 196.393 134.786 195.993L138.494 157.025C138.661 155.268 140.222 153.978 141.979 154.145Z"
        fill="#FFCE68" />
    <path fill-rule="evenodd" clip-rule="evenodd"
        d="M79.961 115.985C81.7233 116.094 83.0634 117.611 82.954 119.374L80.5734 157.746C80.5213 158.585 80.1409 159.37 79.5145 159.931L52.964 183.691C51.6482 184.869 49.627 184.757 48.4495 183.441C47.272 182.125 47.3841 180.104 48.6999 178.926L74.2726 156.041L76.572 118.978C76.6813 117.215 78.1986 115.875 79.961 115.985Z"
        fill="#FFCE68" />
    <path
        d="M74.9601 91.4644C68.8722 119.282 86.7909 149.593 114.1 157.646C131.044 162.648 148.325 159.371 161.734 150.291L185.62 156.189L174.272 138.736C179.549 132.148 183.438 124.258 185.353 115.385C191.604 86.4717 174.082 57.2653 145.626 49.1769C114.255 40.2606 81.9275 59.5936 74.9601 91.4644Z"
        fill="#118DE8" />
    <path
        d="M130.158 17.9031C129.349 21.5962 131.731 25.6202 135.361 26.6894C137.613 27.3534 139.91 26.9184 141.693 25.7129L144.868 26.4959L143.359 24.1789C144.061 23.3042 144.578 22.2568 144.832 21.0788C145.663 17.2403 143.334 13.3628 139.551 12.289C135.381 11.1053 131.084 13.6719 130.158 17.9031Z"
        fill="white" />
    <path
        d="M106.702 71.846C109.272 55.8847 127.648 58.0233 128.053 74.3122C128.053 74.5106 128.217 87.3417 128.225 87.54C128.562 103.062 121.456 106.864 116.403 106.649C108.539 106.312 106.202 96.6374 106.202 78.3478C106.202 75.942 106.383 73.7862 106.694 71.846H106.702Z"
        fill="#EFEFEF" />
    <path
        d="M110.59 79.8935C112.039 70.8652 122.43 72.0724 122.663 81.2905C122.663 81.4026 122.757 88.6546 122.757 88.7753C122.947 97.5536 118.929 99.7007 116.074 99.58C111.625 99.3903 110.306 93.9233 110.306 83.5756C110.306 82.2131 110.409 80.9973 110.582 79.8935H110.59Z"
        fill="black" />
    <path
        d="M80.7975 71.846C83.3672 55.8847 101.743 58.0233 102.148 74.3122C102.148 74.5106 102.312 87.3417 102.321 87.54C102.657 103.062 95.5516 106.864 90.4985 106.649C82.6342 106.312 80.2974 96.6374 80.2974 78.3478C80.2974 75.942 80.4784 73.7862 80.7889 71.846H80.7975Z"
        fill="#EFEFEF" />
    <path
        d="M85.5489 80.0965C86.9544 71.3441 97.0348 72.5168 97.259 81.4503C97.259 81.5624 97.3539 88.5902 97.3539 88.7109C97.535 97.2219 93.6373 99.3087 90.8693 99.188C86.5578 99.0069 85.2729 93.6951 85.2729 83.6664C85.2729 82.3471 85.3678 81.1657 85.5403 80.0965H85.5489Z"
        fill="black" />
    <path fill-rule="evenodd" clip-rule="evenodd"
        d="M110.893 54.4808C110.915 54.4724 110.952 54.4596 111.004 54.4427C111.135 54.4003 111.33 54.343 111.585 54.2762C112.093 54.1429 112.815 53.9787 113.694 53.8257C115.457 53.5191 117.824 53.2633 120.368 53.3796C125.481 53.6134 131.057 55.3247 134.137 60.8429C134.46 61.421 135.19 61.6281 135.768 61.3054C136.346 60.9827 136.553 60.2524 136.231 59.6742C132.568 53.1114 125.972 51.2355 120.477 50.9843C117.716 50.858 115.17 51.1352 113.283 51.4633C112.339 51.6276 111.552 51.806 110.977 51.9567C110.691 52.0318 110.45 52.1016 110.266 52.1613C110.175 52.1908 110.088 52.2207 110.013 52.25C110.011 52.2506 110.009 52.2512 110.008 52.2519C109.963 52.269 109.819 52.3245 109.684 52.4142C109.133 52.7815 108.985 53.5259 109.352 54.0769C109.693 54.5881 110.358 54.7531 110.893 54.4808ZM110.858 54.4944C110.858 54.4944 110.863 54.4921 110.875 54.4875C110.865 54.4921 110.859 54.4943 110.858 54.4944Z"
        fill="black" />
    <path fill-rule="evenodd" clip-rule="evenodd"
        d="M99.9892 54.7773C100.034 54.7944 100.178 54.8499 100.312 54.9396C100.863 55.3069 101.012 56.0513 100.645 56.6022C100.304 57.1135 99.6386 57.2785 99.1042 57.0062C99.0813 56.9978 99.0447 56.985 98.9924 56.968C98.8616 56.9257 98.6667 56.8684 98.4117 56.8016C97.9034 56.6683 97.1822 56.5041 96.3025 56.3511C94.5399 56.0445 92.173 55.7887 89.6293 55.905C84.5158 56.1388 78.9399 57.8501 75.8598 63.3683C75.5371 63.9464 74.8068 64.1535 74.2286 63.8308C73.6504 63.5081 73.4433 62.7777 73.766 62.1996C77.4292 55.6368 84.0247 53.7609 89.5198 53.5096C92.2804 53.3834 94.827 53.6606 96.7133 53.9887C97.658 54.153 98.4451 54.3314 99.0197 54.4821C99.3062 54.5572 99.5463 54.627 99.7307 54.6867C99.8219 54.7162 99.9084 54.7461 99.9843 54.7754L99.9892 54.7773ZM99.1384 57.0197C99.138 57.0197 99.1322 57.0174 99.1221 57.0129C99.1338 57.0175 99.1389 57.0198 99.1384 57.0197Z"
        fill="black" />
    <path
        d="M49.1083 193.681C55.7518 193.681 61.1375 188.296 61.1375 181.652C61.1375 175.009 55.7518 169.623 49.1083 169.623C42.4647 169.623 37.0791 175.009 37.0791 181.652C37.0791 188.296 42.4647 193.681 49.1083 193.681Z"
        fill="#1786FF" />
    <path fill-rule="evenodd" clip-rule="evenodd"
        d="M90.8291 119.845C90.8286 119.845 90.8282 119.845 91.3264 118.754C91.8246 117.664 91.8243 117.664 91.8241 117.663L91.825 117.664L91.8321 117.667L91.8655 117.682C91.8964 117.696 91.9441 117.717 92.0078 117.744C92.1354 117.799 92.327 117.88 92.5762 117.98C93.0746 118.18 93.802 118.456 94.7054 118.757C96.5159 119.36 99.0152 120.054 101.785 120.429C107.381 121.187 113.751 120.61 117.997 115.82L119.791 117.411C114.742 123.107 107.328 123.599 101.464 122.805C98.5038 122.404 95.854 121.667 93.9479 121.032C92.9931 120.714 92.2203 120.421 91.6832 120.205C91.4146 120.097 91.2045 120.009 91.0599 119.947C90.9875 119.915 90.9315 119.891 90.8926 119.874L90.8473 119.853L90.8344 119.848L90.8305 119.846L90.8291 119.845Z"
        fill="black" />
    <path
        d="M150.99 243.956C154 243.732 155.267 240.059 153.068 237.989C149.843 234.936 144.609 231.884 136.866 232.6C122.146 233.953 118.524 241.964 119.309 244.482C120.49 248.242 140.246 244.749 150.99 243.965V243.956Z"
        fill="#1786FF" />
    <path
        d="M106.857 245.061C109.875 245.069 111.419 241.508 109.392 239.266C106.417 235.972 101.424 232.531 93.6464 232.643C78.8665 232.859 74.6326 240.568 75.2275 243.138C76.1157 246.975 96.0867 245.017 106.848 245.061H106.857Z"
        fill="#1786FF" />
    <path fill-rule="evenodd" clip-rule="evenodd"
        d="M163.254 105.352C165.015 105.229 166.543 106.558 166.665 108.319L170.046 156.896C170.084 157.456 169.976 158.015 169.73 158.519L152.915 193.011C152.141 194.599 150.227 195.258 148.64 194.484C147.053 193.711 146.394 191.797 147.167 190.209L163.607 156.486L160.287 108.763C160.164 107.001 161.493 105.474 163.254 105.352Z"
        fill="#FFCE68" />
    <path
        d="M150.092 204.217C156.788 204.217 162.216 198.789 162.216 192.093C162.216 185.397 156.788 179.969 150.092 179.969C143.396 179.969 137.968 185.397 137.968 192.093C137.968 198.789 143.396 204.217 150.092 204.217Z"
        fill="#1786FF" />
    <path
        d="M2.10599 157.306C0.98819 153.956 2.79766 150.334 6.14756 149.216L34.097 139.89C37.4469 138.772 41.0687 140.582 42.1865 143.932L61.8846 202.964C63.0024 206.314 61.1929 209.936 57.843 211.053L29.8935 220.38C26.5436 221.497 22.9219 219.688 21.8041 216.338L2.10599 157.306Z"
        fill="black" />
    <path
        d="M5.49398 158.523C4.79535 156.43 5.92627 154.166 8.01996 153.467L34.7727 144.541C36.8664 143.842 39.13 144.973 39.8287 147.066L57.8594 201.102C58.558 203.196 57.4271 205.459 55.3334 206.158L28.5807 215.085C26.487 215.784 24.2234 214.653 23.5247 212.559L5.49398 158.523Z"
        fill="#F5F5F5" />
    <path
        d="M22.5815 209.762L57.0072 198.513L57.9086 201.271C58.5941 203.369 57.4491 205.626 55.3511 206.311L28.523 215.078C26.425 215.763 24.1684 214.618 23.4829 212.52L22.5815 209.762Z"
        fill="white" />
    <path
        d="M43.2068 203.478C43.7245 205.063 42.8598 206.767 41.2754 207.285C39.691 207.802 37.9869 206.938 37.4691 205.353C36.9514 203.769 37.8161 202.065 39.4005 201.547C40.9849 201.029 42.689 201.894 43.2068 203.478Z"
        fill="#E02146" />
    <path
        d="M38.9548 204.346C38.8177 203.926 39.0467 203.475 39.4663 203.338L40.4058 203.031C40.8254 202.894 41.2767 203.123 41.4138 203.542L41.7208 204.482C41.8579 204.901 41.6289 205.353 41.2093 205.49L40.2698 205.797C39.8502 205.934 39.3989 205.705 39.2618 205.285L38.9548 204.346Z"
        fill="#EFEFEF" />
    <path d="M39.7939 204.139L40.6136 203.871L40.8814 204.691L40.0618 204.958L39.7939 204.139Z"
        fill="#E02146" />
    <path
        d="M29.3708 211.107C29.2337 210.688 29.4627 210.237 29.8823 210.099L30.0021 210.06C30.4217 209.923 30.873 210.152 31.0101 210.572L31.0493 210.692C31.1864 211.111 30.9574 211.562 30.5378 211.7L30.418 211.739C29.9984 211.876 29.5471 211.647 29.41 211.227L29.3708 211.107Z"
        fill="black" />
    <path
        d="M34.2888 209.496C34.1517 209.076 34.3807 208.625 34.8003 208.488L34.9201 208.449C35.3397 208.312 35.791 208.541 35.9281 208.96L35.9672 209.08C36.1044 209.5 35.8754 209.951 35.4557 210.088L35.3359 210.127C34.9163 210.264 34.465 210.035 34.3279 209.616L34.2888 209.496Z"
        fill="black" />
    <path
        d="M46.5832 205.48C46.4461 205.061 46.6751 204.61 47.0947 204.472L47.2145 204.433C47.6341 204.296 48.0854 204.525 48.2225 204.945L48.2617 205.065C48.3988 205.484 48.1698 205.936 47.7502 206.073L47.6304 206.112C47.2108 206.249 46.7595 206.02 46.6224 205.6L46.5832 205.48Z"
        fill="black" />
    <path
        d="M51.5022 203.875C51.3651 203.455 51.5941 203.004 52.0137 202.867L52.1335 202.828C52.5531 202.691 53.0044 202.92 53.1415 203.339L53.1806 203.459C53.3177 203.879 53.0887 204.33 52.6691 204.467L52.5493 204.506C52.1297 204.643 51.6784 204.414 51.5413 203.995L51.5022 203.875Z"
        fill="black" />
    <circle cx="256.5" cy="33.5" r="13.5" fill="#D9D9D9" />
    <circle cx="256.5" cy="72.5" r="13.5" fill="#D9D9D9" />
    <circle cx="256.5" cy="111.5" r="13.5" fill="#D9D9D9" />
    <circle cx="256.5" cy="150.5" r="13.5" fill="#D9D9D9" />
    <rect x="252" y="200" width="219" height="22" rx="3" fill="#D9D9D9" />
    <rect x="481" y="200" width="23" height="22" rx="3" fill="#D9D9D9" />
    <rect x="283" y="24" width="98" height="3" fill="#D9D9D9" />
    <rect x="162" y="23" width="47" height="3" fill="#D9D9D9" />
    <rect x="162" y="23" width="47" height="3" fill="#D9D9D9" />
    <rect x="162" y="33" width="47" height="3" fill="#D9D9D9" />
    <rect x="162" y="43" width="47" height="3" fill="#D9D9D9" />
    <rect x="283" y="63" width="98" height="3" fill="#D9D9D9" />
    <rect x="283" y="102" width="98" height="3" fill="#D9D9D9" />
    <rect x="283" y="141" width="98" height="3" fill="#D9D9D9" />
    <rect x="283" y="32" width="111" height="3" fill="#D9D9D9" />
    <rect x="283" y="71" width="111" height="3" fill="#D9D9D9" />
    <rect x="283" y="110" width="111" height="3" fill="#D9D9D9" />
    <rect x="283" y="149" width="111" height="3" fill="#D9D9D9" />
    <rect x="283" y="40" width="90" height="3" fill="#D9D9D9" />
    <rect x="283" y="79" width="90" height="3" fill="#D9D9D9" />
    <rect x="283" y="118" width="90" height="3" fill="#D9D9D9" />
    <rect x="283" y="157" width="90" height="3" fill="#D9D9D9" />
    <path d="M28.4399 174.775L33.4046 180.792L35.977 179.901L31.0124 173.885L28.4399 174.775Z"
        fill="#3EA6DE" />
    <path
        d="M35.3272 170.206C35.0705 169.465 35.4402 168.632 36.2936 168.337C37.1471 168.041 37.9526 168.467 38.2093 169.208C38.466 169.949 38.1012 170.796 37.2477 171.092C36.3943 171.387 35.5839 170.948 35.3272 170.206Z"
        fill="#E02146" />
    <path
        d="M38.7295 171.213L38.7295 171.213L41.1217 178.12L41.1218 178.12L41.302 170.322L38.7295 171.213Z"
        fill="#97C6DD" />
    <path d="M38.7296 171.213L36.1572 172.104L38.5495 179.011L38.7297 171.213L38.7296 171.213Z"
        fill="#E02146" />
    <path d="M38.5494 179.011L41.1219 178.12L38.7296 171.213L38.5494 179.011Z" fill="#6A2E4A" />
    <path
        d="M28.44 174.777L28.44 174.777L30.8322 181.685L30.8322 181.685L31.0125 173.886L28.44 174.777Z"
        fill="#97C6DD" />
    <path
        d="M28.4401 174.777L25.8677 175.668L28.2599 182.576L28.26 182.576L28.4401 174.777L28.4401 174.777Z"
        fill="#E02146" />
    <path d="M28.2599 182.575L30.8323 181.685L28.44 174.777L28.2599 182.575Z" fill="#6A2E4A" />
    <path
        d="M23.1148 184.354C23.0987 185.054 22.8273 185.331 22.2816 185.52C21.9318 185.641 21.6339 185.681 21.3411 185.689L21.9368 187.55C22.3321 187.523 22.8074 187.405 23.2131 187.264C25.0039 186.644 25.635 185.731 25.6728 184.093L25.6873 183.463L23.1148 184.354Z"
        fill="#E02146" />
    <path d="M28.4399 174.775L33.4046 180.792L35.977 179.901L31.0124 173.885L28.4399 174.775Z"
        fill="#E02146" />
    <path
        d="M25.0371 173.771C24.7805 173.03 25.1501 172.197 26.0035 171.901C26.857 171.606 27.6625 172.032 27.9192 172.773C28.1759 173.514 27.8111 174.361 26.9576 174.656C26.1042 174.952 25.2938 174.512 25.0371 173.771Z"
        fill="#E02146" />
    <path
        d="M33.5846 172.992L33.4946 176.892L35.9768 179.9L35.9769 179.9L36.157 172.101L33.5846 172.992Z"
        fill="#6A2E4A" />
    <path d="M23.295 176.555L23.2051 180.454L25.6873 183.462L25.8674 175.664L23.295 176.555Z"
        fill="#6A2E4A" />
    <path d="M18.1499 178.338L23.1146 184.355L25.687 183.464L20.7224 177.447L18.1499 178.338Z"
        fill="#E02146" />
    <path
        d="M20.7224 177.447L18.1499 178.338L18.1499 178.338L20.6324 181.347L20.7224 177.447L20.7224 177.447Z"
        fill="#6A2E4A" />
    <path
        d="M31.0119 173.885L28.4395 174.775L28.4395 174.775L30.922 177.784L31.0119 173.885L31.0119 173.885Z"
        fill="#BA3353" />
    <path
        d="M33.4045 180.791L35.977 179.9L35.9769 179.9L33.4947 176.892L33.4045 180.791L33.4045 180.791Z"
        fill="#BA3353" />
    <path
        d="M23.1144 184.356L25.6869 183.465L25.6869 183.465L23.2047 180.457L23.1144 184.356L23.1144 184.356Z"
        fill="#BA3353" />
</svg>
    