<svg width="191" height="200" viewBox="0 0 191 200" fill="none" xmlns="http://www.w3.org/2000/svg">
    <path fill-rule="evenodd" clip-rule="evenodd"
        d="M113.858 103.522C115.491 104.192 116.271 106.06 115.601 107.694L99.3362 147.301L113.263 191.798C113.551 192.721 113.407 193.724 112.87 194.528C112.334 195.332 111.462 195.85 110.499 195.937L91.5199 197.653C89.7614 197.812 88.2069 196.516 88.0479 194.757C87.8889 192.998 89.1856 191.444 90.9441 191.285L105.976 189.926L92.889 148.109C92.6662 147.397 92.6993 146.63 92.9827 145.94L109.686 105.265C110.356 103.631 112.224 102.851 113.858 103.522Z"
        fill="#FFCE68" />
    <path fill-rule="evenodd" clip-rule="evenodd"
        d="M145.981 107.145C147.739 107.313 149.028 108.873 148.861 110.631L145.21 148.994L157.028 189.947C157.278 190.814 157.15 191.748 156.675 192.515C156.2 193.283 155.422 193.815 154.534 193.978L134.727 197.617C132.99 197.936 131.323 196.787 131.004 195.05C130.685 193.313 131.835 191.647 133.571 191.328L149.905 188.327L138.898 150.182C138.787 149.796 138.749 149.393 138.787 148.993L142.495 110.025C142.662 108.268 144.223 106.978 145.981 107.145Z"
        fill="#FFCE68" />
    <path fill-rule="evenodd" clip-rule="evenodd"
        d="M83.9625 68.9848C85.7248 69.0941 87.0648 70.6114 86.9555 72.3737L84.5749 110.746C84.5228 111.585 84.1424 112.37 83.5159 112.931L56.9655 136.691C55.6497 137.869 53.6285 137.757 52.451 136.441C51.2735 135.125 51.3855 133.104 52.7013 131.926L78.2741 109.041L80.5735 71.9778C80.6828 70.2155 82.2001 68.8754 83.9625 68.9848Z"
        fill="#FFCE68" />
    <path
        d="M78.961 44.4644C72.8731 72.2824 90.7919 102.593 118.101 110.646C135.045 115.648 152.326 112.371 165.735 103.291L189.621 109.189L178.273 91.7361C183.55 85.148 187.439 77.2579 189.354 68.3848C195.605 39.4717 178.083 10.2653 149.627 2.17688C118.256 -6.73937 85.9285 12.5936 78.961 44.4644Z"
        fill="#1786FF" />
    <path
        d="M110.703 24.846C113.273 8.88474 131.649 11.0233 132.054 27.3122C132.054 27.5106 132.218 40.3417 132.226 40.54C132.563 56.0615 125.457 59.8643 120.404 59.6487C112.54 59.3124 110.203 49.6374 110.203 31.3478C110.203 28.942 110.384 26.7862 110.695 24.846H110.703Z"
        fill="#EFEFEF" />
    <path
        d="M114.591 32.8935C116.04 23.8652 126.431 25.0724 126.663 34.2905C126.663 34.4026 126.758 41.6546 126.758 41.7753C126.948 50.5536 122.93 52.7007 120.075 52.58C115.626 52.3903 114.307 46.9233 114.307 36.5756C114.307 35.2131 114.41 33.9973 114.583 32.8935H114.591Z"
        fill="black" />
    <path
        d="M84.7985 24.846C87.3682 8.88474 105.744 11.0233 106.149 27.3122C106.149 27.5106 106.313 40.3417 106.322 40.54C106.658 56.0615 99.5525 59.8643 94.4994 59.6487C86.6352 59.3124 84.2983 49.6374 84.2983 31.3478C84.2983 28.942 84.4794 26.7862 84.7899 24.846H84.7985Z"
        fill="#EFEFEF" />
    <path
        d="M89.5504 33.0965C90.9559 24.3441 101.036 25.5168 101.26 34.4503C101.26 34.5624 101.355 41.5902 101.355 41.7109C101.536 50.2219 97.6388 52.3087 94.8708 52.188C90.5593 52.0069 89.2744 46.6951 89.2744 36.6664C89.2744 35.3471 89.3693 34.1657 89.5417 33.0965H89.5504Z"
        fill="black" />
    <path fill-rule="evenodd" clip-rule="evenodd"
        d="M114.894 7.48079C114.917 7.47237 114.954 7.45959 115.006 7.44266C115.137 7.40035 115.332 7.34299 115.587 7.27616C116.095 7.14293 116.816 6.97869 117.696 6.82569C119.458 6.51914 121.825 6.26331 124.369 6.37962C129.482 6.61342 135.058 8.32474 138.138 13.8429C138.461 14.421 139.192 14.6281 139.77 14.3054C140.348 13.9827 140.555 13.2524 140.232 12.6742C136.569 6.11137 129.974 4.2355 124.478 3.98425C121.718 3.85804 119.171 4.13522 117.285 4.46328C116.34 4.62758 115.553 4.80604 114.979 4.95666C114.692 5.03176 114.452 5.10162 114.268 5.16128C114.176 5.19081 114.09 5.22071 114.014 5.25004C114.013 5.25061 114.011 5.25124 114.009 5.25193C113.965 5.26902 113.82 5.32453 113.686 5.41423C113.135 5.78153 112.986 6.52591 113.353 7.07685C113.694 7.58808 114.36 7.75312 114.894 7.48079ZM114.86 7.49435C114.859 7.49436 114.864 7.49211 114.876 7.48754C114.866 7.49206 114.86 7.49434 114.86 7.49435Z"
        fill="black" />
    <path fill-rule="evenodd" clip-rule="evenodd"
        d="M103.99 7.77732C104.035 7.79441 104.179 7.84992 104.313 7.93962C104.864 8.30692 105.013 9.0513 104.646 9.60224C104.305 10.1135 103.64 10.2785 103.105 10.0062C103.082 9.99776 103.046 9.98498 102.993 9.96805C102.863 9.92574 102.668 9.86838 102.413 9.80155C101.904 9.66833 101.183 9.50408 100.303 9.35108C98.5408 9.04453 96.174 8.7887 93.6303 8.90501C88.5168 9.13881 82.9408 10.8501 79.8608 16.3683C79.5381 16.9464 78.8077 17.1535 78.2295 16.8308C77.6514 16.5081 77.4443 15.7777 77.767 15.1996C81.4302 8.63676 88.0257 6.76089 93.5208 6.50965C96.2813 6.38343 98.828 6.66061 100.714 6.98867C101.659 7.15297 102.446 7.33143 103.021 7.48205C103.307 7.55715 103.547 7.62701 103.732 7.68668C103.823 7.7162 103.909 7.7461 103.985 7.77543L103.99 7.77732ZM103.139 10.0197C103.139 10.0197 103.133 10.0174 103.123 10.0129C103.135 10.0175 103.14 10.0198 103.139 10.0197Z"
        fill="black" />
    <path
        d="M53.1093 146.681C59.7528 146.681 65.1384 141.296 65.1384 134.652C65.1384 128.009 59.7528 122.623 53.1093 122.623C46.4657 122.623 41.0801 128.009 41.0801 134.652C41.0801 141.296 46.4657 146.681 53.1093 146.681Z"
        fill="#1786FF" />
    <path fill-rule="evenodd" clip-rule="evenodd"
        d="M94.8301 72.8451C94.8296 72.8449 94.8292 72.8447 95.3274 71.7542C95.8255 70.6636 95.8253 70.6635 95.825 70.6634L95.826 70.6638L95.833 70.667L95.8665 70.682C95.8973 70.6957 95.9451 70.7166 96.0088 70.7441C96.1364 70.799 96.328 70.8797 96.5771 70.9797C97.0756 71.1797 97.803 71.4562 98.7064 71.757C100.517 72.3598 103.016 73.0537 105.786 73.4289C111.382 74.1868 117.752 73.6095 121.998 68.8203L123.792 70.411C118.742 76.1074 111.329 76.5994 105.465 75.8051C102.505 75.4042 99.8549 74.6667 97.9489 74.0321C96.9941 73.7142 96.2213 73.4206 95.6842 73.2051C95.4155 73.0973 95.2055 73.0089 95.0609 72.9466C94.9885 72.9155 94.9325 72.8909 94.8936 72.8736L94.8482 72.8533L94.8354 72.8475L94.8314 72.8457L94.8301 72.8451Z"
        fill="black" />
    <path
        d="M154.992 196.956C158.001 196.732 159.269 193.059 157.07 190.989C153.845 187.936 148.611 184.884 140.867 185.6C126.147 186.953 122.526 194.964 123.31 197.482C124.492 201.242 144.247 197.749 154.992 196.965V196.956Z"
        fill="#1786FF" />
    <path
        d="M110.858 198.061C113.876 198.069 115.42 194.508 113.393 192.266C110.418 188.972 105.425 185.531 97.6474 185.643C82.8675 185.859 78.6335 193.568 79.2285 196.138C80.1167 199.975 100.088 198.017 110.849 198.061H110.858Z"
        fill="#1786FF" />
    <path fill-rule="evenodd" clip-rule="evenodd"
        d="M167.255 58.3516C169.017 58.229 170.544 59.5576 170.667 61.3191L174.047 109.896C174.086 110.456 173.977 111.015 173.731 111.519L156.916 146.011C156.143 147.599 154.229 148.258 152.642 147.484C151.054 146.711 150.395 144.797 151.169 143.209L167.609 109.486L164.288 61.763C164.165 60.0015 165.494 58.4742 167.255 58.3516Z"
        fill="#FFCE68" />
    <path
        d="M154.094 157.217C160.79 157.217 166.218 151.789 166.218 145.093C166.218 138.397 160.79 132.969 154.094 132.969C147.398 132.969 141.97 138.397 141.97 145.093C141.97 151.789 147.398 157.217 154.094 157.217Z"
        fill="#1786FF" />
    <path
        d="M2.10697 113.585C0.989166 110.235 2.79864 106.613 6.14854 105.496L34.098 96.1693C37.4479 95.0515 41.0697 96.861 42.1875 100.211L61.8856 159.243C63.0034 162.593 61.1939 166.215 57.844 167.333L29.8945 176.659C26.5446 177.777 22.9228 175.967 21.805 172.617L2.10697 113.585Z"
        fill="black" />
    <path
        d="M5.49496 114.803C4.79633 112.709 5.92725 110.445 8.02094 109.747L34.7737 100.82C36.8674 100.121 39.131 101.252 39.8296 103.346L57.8604 157.381C58.559 159.475 57.4281 161.739 55.3344 162.437L28.5816 171.364C26.488 172.063 24.2243 170.932 23.5257 168.838L5.49496 114.803Z"
        fill="#F5F5F5" />
    <path
        d="M22.5825 166.041L57.0082 154.792L57.9095 157.551C58.5951 159.649 57.45 161.905 55.352 162.591L28.5239 171.357C26.4259 172.043 24.1694 170.898 23.4839 168.8L22.5825 166.041Z"
        fill="white" />
    <path
        d="M43.2077 159.758C43.7254 161.342 42.8607 163.046 41.2763 163.564C39.6919 164.082 37.9878 163.217 37.4701 161.632C36.9524 160.048 37.8171 158.344 39.4015 157.826C40.9859 157.309 42.69 158.173 43.2077 159.758Z"
        fill="#E02146" />
    <path
        d="M38.9558 160.625C38.8187 160.205 39.0477 159.754 39.4673 159.617L40.4067 159.31C40.8263 159.173 41.2776 159.402 41.4148 159.822L41.7217 160.761C41.8588 161.181 41.6298 161.632 41.2102 161.769L40.2708 162.076C39.8512 162.213 39.3999 161.984 39.2628 161.564L38.9558 160.625Z"
        fill="#EFEFEF" />
    <path d="M39.7949 160.418L40.6146 160.15L40.8824 160.97L40.0628 161.238L39.7949 160.418Z"
        fill="#E02146" />
    <path
        d="M29.3718 167.387C29.2347 166.967 29.4637 166.516 29.8833 166.379L30.0031 166.34C30.4227 166.202 30.874 166.431 31.0111 166.851L31.0503 166.971C31.1874 167.39 30.9584 167.842 30.5388 167.979L30.419 168.018C29.9993 168.155 29.548 167.926 29.4109 167.507L29.3718 167.387Z"
        fill="black" />
    <path
        d="M34.2898 165.775C34.1527 165.356 34.3817 164.904 34.8013 164.767L34.9211 164.728C35.3407 164.591 35.792 164.82 35.9291 165.24L35.9682 165.36C36.1053 165.779 35.8763 166.23 35.4567 166.368L35.3369 166.407C34.9173 166.544 34.466 166.315 34.3289 165.895L34.2898 165.775Z"
        fill="black" />
    <path
        d="M46.5842 161.76C46.4471 161.34 46.6761 160.889 47.0957 160.752L47.2155 160.713C47.6351 160.575 48.0864 160.804 48.2235 161.224L48.2627 161.344C48.3998 161.764 48.1708 162.215 47.7512 162.352L47.6314 162.391C47.2118 162.528 46.7604 162.299 46.6233 161.88L46.5842 161.76Z"
        fill="black" />
    <path
        d="M51.5031 160.154C51.366 159.735 51.595 159.283 52.0146 159.146L52.1344 159.107C52.554 158.97 53.0053 159.199 53.1425 159.619L53.1816 159.738C53.3187 160.158 53.0897 160.609 52.6701 160.746L52.5503 160.786C52.1307 160.923 51.6794 160.694 51.5423 160.274L51.5031 160.154Z"
        fill="black" />
    <path d="M28.4858 130.963L33.4505 136.98L36.0229 136.089L31.0583 130.072L28.4858 130.963Z"
        fill="#3EA6DE" />
    <path
        d="M35.3731 126.394C35.1164 125.653 35.4861 124.82 36.3395 124.524C37.193 124.229 37.9985 124.655 38.2552 125.396C38.5119 126.137 38.1471 126.984 37.2936 127.279C36.4402 127.575 35.6298 127.135 35.3731 126.394Z"
        fill="#E02146" />
    <path
        d="M38.7754 127.4L38.7754 127.4L41.1676 134.308L41.1677 134.308L41.3479 126.509L38.7754 127.4Z"
        fill="#97C6DD" />
    <path d="M38.7755 127.4L36.2031 128.291L38.5954 135.199L38.7756 127.4L38.7755 127.4Z"
        fill="#E02146" />
    <path d="M38.5953 135.199L41.1678 134.308L38.7755 127.4L38.5953 135.199Z" fill="#6A2E4A" />
    <path
        d="M28.4859 130.965L28.4859 130.965L30.8781 137.872L30.8781 137.872L31.0584 130.074L28.4859 130.965Z"
        fill="#97C6DD" />
    <path
        d="M28.486 130.965L25.9136 131.855L28.3058 138.763L28.3059 138.763L28.486 130.965L28.486 130.965Z"
        fill="#E02146" />
    <path d="M28.3058 138.763L30.8782 137.872L28.4859 130.965L28.3058 138.763Z" fill="#6A2E4A" />
    <path
        d="M23.1607 140.542C23.1446 141.242 22.8732 141.518 22.3275 141.707C21.9777 141.828 21.6798 141.869 21.387 141.876L21.9827 143.737C22.378 143.71 22.8533 143.592 23.259 143.452C25.0498 142.832 25.6809 141.918 25.7187 140.281L25.7332 139.651L23.1607 140.542Z"
        fill="#E02146" />
    <path d="M28.4858 130.963L33.4505 136.98L36.0229 136.089L31.0583 130.072L28.4858 130.963Z"
        fill="#E02146" />
    <path
        d="M25.083 129.958C24.8264 129.217 25.196 128.384 26.0494 128.089C26.9029 127.793 27.7084 128.219 27.9651 128.96C28.2218 129.701 27.857 130.548 27.0035 130.844C26.1501 131.139 25.3397 130.7 25.083 129.958Z"
        fill="#E02146" />
    <path
        d="M33.6305 129.18L33.5405 133.079L36.0227 136.087L36.0228 136.087L36.2029 128.289L33.6305 129.18Z"
        fill="#6A2E4A" />
    <path d="M23.3409 132.742L23.2509 136.642L25.7332 139.65L25.9133 131.851L23.3409 132.742Z"
        fill="#6A2E4A" />
    <path d="M18.1958 134.525L23.1605 140.542L25.7329 139.651L20.7683 133.634L18.1958 134.525Z"
        fill="#E02146" />
    <path
        d="M20.7683 133.634L18.1958 134.525L18.1958 134.525L20.6783 137.534L20.7683 133.635L20.7683 133.634Z"
        fill="#6A2E4A" />
    <path
        d="M31.0578 130.072L28.4854 130.963L28.4854 130.963L30.9678 133.972L31.0578 130.072L31.0578 130.072Z"
        fill="#BA3353" />
    <path
        d="M33.4504 136.979L36.0229 136.088L36.0228 136.088L33.5406 133.08L33.4504 136.979L33.4504 136.979Z"
        fill="#BA3353" />
    <path
        d="M23.1603 140.543L25.7328 139.652L25.7328 139.652L23.2506 136.644L23.1603 140.543L23.1603 140.543Z"
        fill="#BA3353" />
</svg>
    