<svg viewBox="0 0 514 321" fill="none" xmlns="http://www.w3.org/2000/svg">
    <path
        d="M188.817 290.244C183.98 303.298 234.044 315.748 300.597 318.033C336.303 319.265 369.595 317.311 393.401 313.238L429.763 316.396L415.645 307.936C423.742 305.203 428.771 302.014 430.134 298.533C434.871 285.477 384.808 273.027 318.255 270.742C251.702 268.457 193.654 277.19 188.817 290.244Z"
        fill="#D1D1D1" />
    <path
        d="M215.743 296.423C219.818 309.09 174.911 320.076 115.479 320.944C83.5929 321.416 53.9211 318.868 32.7522 314.469L0.245208 316.783L13.0005 308.92C5.82615 306.126 1.39752 302.955 0.246074 299.576C-3.73969 286.909 41.1666 275.923 100.599 275.055C160.031 274.186 211.669 283.757 215.743 296.423Z"
        fill="#DFDFDF" />
    <path d="M123.502 198.068L142.872 245.238L126.322 298.118L148.332 300.108" stroke="#FFCE68"
        stroke-width="8" stroke-linecap="round" stroke-linejoin="round" />
    <path d="M85.1914 202.529V246L65.0009 292L90 297" stroke="#FFCE68" stroke-width="8"
        stroke-linecap="round" stroke-linejoin="round" />
    <path d="M159.753 157.35L197.5 160L226 140" stroke="#FFCE68" stroke-width="8"
        stroke-linecap="round"
        stroke-linejoin="round" />
    <path
        d="M162.562 126.148C169.622 158.408 148.842 193.558 117.172 202.898C97.5219 208.698 77.4819 204.898 61.9319 194.368L34.2319 201.208L47.3919 180.968C41.2719 173.328 36.7619 164.178 34.5419 153.888C27.2919 120.358 47.6119 86.4885 80.6119 77.1085C116.992 66.7685 154.482 89.1885 162.562 126.148Z"
        fill="#1786FF" />
    <path
        d="M133.232 102.726C136.031 85.276 156.046 87.614 156.487 105.423C156.487 105.639 156.666 119.668 156.675 119.884C157.041 136.854 149.302 141.012 143.798 140.776C135.233 140.408 132.688 129.83 132.688 109.835C132.688 107.204 132.885 104.848 133.223 102.726H133.232Z"
        fill="#EFEFEF" />
    <path
        d="M154.68 112.711C153.052 102.591 141.376 103.944 141.114 114.277C141.114 114.403 141.007 122.533 141.007 122.668C140.794 132.508 145.31 134.915 148.517 134.78C153.517 134.567 155 128.439 155 116.839C155 115.312 154.884 113.949 154.69 112.711H154.68Z"
        fill="black" />
    <path
        d="M102.276 102.682C105.308 83.8352 126.99 86.3603 127.468 105.594C127.468 105.828 127.662 120.978 127.672 121.212C128.069 139.539 119.685 144.03 113.722 143.775C104.443 143.378 101.686 131.954 101.686 110.359C101.686 107.518 101.899 104.973 102.266 102.682H102.276Z"
        fill="#EFEFEF" />
    <path
        d="M125.68 112.709C124.052 102.591 112.377 103.946 112.117 114.274C112.117 114.403 112.007 122.528 112.007 122.668C111.797 132.507 116.312 134.919 119.518 134.78C124.512 134.57 126 128.429 126 116.836C126 115.311 125.89 113.945 125.69 112.709H125.68Z"
        fill="black" />
    <path d="M136.898 82.0195C137.468 81.6395 157.878 75.9495 165.698 89.9595" stroke="black"
        stroke-width="3" stroke-miterlimit="10" stroke-linecap="round" />
    <path d="M124.486 84.9492C123.916 84.5692 103.506 78.8792 95.6855 92.8892" stroke="black"
        stroke-width="3" stroke-miterlimit="10" stroke-linecap="round" />
    <path
        d="M409.848 234.964C415.327 260.901 398.742 286.369 372.805 291.848C346.868 297.327 321.4 280.743 315.921 254.805C310.442 228.868 327.026 203.4 352.964 197.921C378.901 192.442 404.369 209.027 409.848 234.964Z"
        fill="#FFCE68" />
    <path
        d="M350.949 238.874C352.141 244.512 351.278 249.47 349.022 249.946C346.767 250.422 343.973 246.238 342.782 240.599C341.591 234.961 342.454 230.003 344.709 229.527C346.964 229.051 349.758 233.235 350.949 238.874Z"
        fill="black" />
    <path
        d="M379.536 232.835C380.727 238.474 379.864 243.431 377.609 243.907C375.353 244.384 372.559 240.199 371.368 234.561C370.177 228.922 371.04 223.965 373.296 223.488C375.551 223.012 378.345 227.197 379.536 232.835Z"
        fill="black" />
    <path fill-rule="evenodd" clip-rule="evenodd"
        d="M346.703 265.915C347.381 264.983 348.687 264.778 349.618 265.457C350.87 266.37 353.684 267.764 357.185 268.721C360.67 269.674 364.581 270.122 368.06 269.387C371.532 268.654 374.821 266.69 377.574 264.421C380.318 262.158 382.389 259.705 383.423 258.199C384.075 257.249 385.374 257.007 386.324 257.659C387.275 258.312 387.516 259.611 386.864 260.561C385.614 262.381 383.28 265.125 380.229 267.641C377.187 270.15 373.292 272.548 368.923 273.471C364.561 274.392 359.933 273.8 356.084 272.748C352.25 271.699 348.933 270.123 347.16 268.83C346.229 268.152 346.024 266.846 346.703 265.915Z"
        fill="black" />
    <path
        d="M62.6962 299.292C59.2062 299.032 57.7362 294.772 60.2862 292.372C64.0262 288.832 70.0962 285.292 79.0762 286.122C96.1462 287.692 100.346 296.982 99.4362 299.902C98.0662 304.262 75.1562 300.212 62.6962 299.302V299.292Z"
        fill="#1786FF" />
    <path
        d="M125.57 304.268C122.07 304.278 120.28 300.148 122.63 297.548C126.08 293.728 131.87 289.738 140.89 289.868C158.03 290.118 162.94 299.058 162.25 302.038C161.22 306.488 138.06 304.218 125.58 304.268H125.57Z"
        fill="#1786FF" />
    <path d="M59.9102 145.949L67.5 198L100.5 233.5" stroke="#FFCE68" stroke-width="8"
        stroke-linecap="round" stroke-linejoin="round" />
    <path
        d="M100.061 246.12C92.296 246.12 86.0011 239.825 86.0011 232.06C86.0011 224.295 92.296 218 100.061 218C107.826 218 114.121 224.295 114.121 232.06C114.121 239.825 107.826 246.12 100.061 246.12Z"
        fill="#1786FF" />
    <path
        d="M145.812 158.467L115.9 156.115C117.139 162.428 122.116 175.192 132.108 175.744C142.101 176.295 145.407 164.456 145.812 158.467Z"
        fill="black" stroke="black" stroke-width="3" stroke-linejoin="round" />
    <mask id="mask0_2965_23255" style="mask-type:alpha" maskUnits="userSpaceOnUse" x="114" y="154"
        width="34" height="24">
        <path
            d="M145.812 158.467L115.9 156.115C117.139 162.428 122.116 175.192 132.108 175.744C142.101 176.295 145.407 164.456 145.812 158.467Z"
            fill="black" stroke="black" stroke-width="3" stroke-linejoin="round" />
    </mask>
    <g mask="url(#mask0_2965_23255)">
        <path
            d="M130.38 167.542C129.479 166.452 122.061 165.241 117.936 166.355C120.448 171.617 124.95 177.07 130.923 177.64C138.887 178.4 143.439 172.807 144.767 169.418C141.97 167.142 131.47 166.642 130.38 167.542Z"
            fill="#DD8686" />
    </g>
    <path
        d="M328.972 231.564L295.401 193.384L243.294 196.53C238.753 227.682 238.735 275.835 256.124 289.439C280.036 291.1 312.258 257.738 328.972 231.564Z"
        fill="#55CAEF" />
    <path fill-rule="evenodd" clip-rule="evenodd"
        d="M295.322 192.176C295.699 192.153 296.067 192.307 296.317 192.591L329.887 230.77C330.243 231.175 330.29 231.763 330.002 232.214C321.591 245.385 309.284 260.36 296.053 271.85C289.436 277.595 282.559 282.494 275.796 285.857C269.041 289.215 262.321 291.078 256.049 290.642C255.804 290.625 255.57 290.535 255.377 290.384C250.765 286.776 247.404 280.964 244.996 273.945C242.581 266.908 241.081 258.536 240.276 249.663C238.664 231.916 239.811 211.993 242.092 196.347C242.174 195.783 242.642 195.356 243.214 195.321L295.322 192.176ZM244.361 197.674C242.194 213.028 241.14 232.305 242.698 249.462C243.494 258.222 244.967 266.387 247.298 273.178C249.578 279.823 252.64 285.039 256.581 288.255C262.164 288.551 268.306 286.87 274.696 283.694C281.221 280.45 287.928 275.685 294.445 270.026C307.228 258.926 319.169 244.486 327.458 231.668L294.886 194.625L244.361 197.674Z"
        fill="#55CAEF" />
    <path
        d="M311 194C319.167 183.333 341.4 161.8 365 161C394.5 160 399 194 429 194C459 194 487.5 164 479.5 131.999C473 95 524.5 107.499 510.5 131.999C496.5 156.499 434 114 449.5 70.5"
        stroke="#999999" stroke-dasharray="4 4" />
    <path d="M470.136 23.9995L430.202 64.8715L452.784 60.6476L463.975 80.3648L470.136 23.9995Z"
        fill="#55CAEF" />
    <path
        d="M400.858 24.7928L183.489 68.3516C180.782 68.8941 179.027 71.5289 179.569 74.2365L192.109 136.812C192.652 139.52 195.286 141.275 197.994 140.733L415.363 97.1738C418.07 96.6313 419.825 93.9965 419.283 91.2889L406.743 28.7129C406.2 26.0053 403.566 24.2503 400.858 24.7928Z"
        fill="#D1D1D1" />
    <path d="M383.652 103.52L394.945 114.559L399.834 100.272L383.652 103.52Z" fill="#D1D1D1" />
    <circle cx="223.575" cy="97.1096" r="6" transform="rotate(-11.02 223.575 97.1096)" fill="black" />
    <circle cx="259.894" cy="90.0374" r="6" transform="rotate(-11.02 259.894 90.0374)" fill="black" />
    <circle cx="296.212" cy="82.9632" r="6" transform="rotate(-11.02 296.212 82.9632)" fill="black" />
    <circle cx="332.53" cy="75.8909" r="6" transform="rotate(-11.02 332.53 75.8909)" fill="black" />
    <circle cx="368.847" cy="68.8186" r="6" transform="rotate(-11.02 368.847 68.8186)" fill="black" />
    <path
        d="M227.95 149.9C220.246 149.9 214 143.654 214 135.95C214 128.246 220.246 122 227.95 122C235.655 122 241.9 128.246 241.9 135.95C241.9 143.654 235.655 149.9 227.95 149.9Z"
        fill="#1786FF" />
</svg>