<svg viewBox="0 0 318 209" fill="none" xmlns="http://www.w3.org/2000/svg">
    <path fill-rule="evenodd" clip-rule="evenodd"
        d="M246.183 127.329C247.723 127.947 248.459 129.668 247.827 131.173L233.644 164.928L245.79 202.857C246.062 203.707 245.926 204.632 245.42 205.372C244.914 206.113 244.092 206.59 243.185 206.671L226.6 208.136C224.942 208.283 223.477 207.088 223.327 205.467C223.177 203.847 224.399 202.415 226.057 202.268L238.921 201.132L227.566 165.673C227.356 165.017 227.388 164.31 227.655 163.674L242.25 128.935C242.883 127.43 244.643 126.711 246.183 127.329Z"
        fill="#FFCE68" />
    <path fill-rule="evenodd" clip-rule="evenodd"
        d="M273.56 130.533C275.135 130.687 276.29 132.122 276.14 133.739L273.112 166.409L282.916 201.288C283.14 202.087 283.025 202.945 282.6 203.651C282.174 204.358 281.477 204.846 280.681 204.996L264.231 208.099C262.675 208.393 261.182 207.336 260.896 205.738C260.61 204.14 261.64 202.607 263.196 202.314L276.534 199.798L267.457 167.502C267.357 167.147 267.323 166.776 267.357 166.408L270.437 133.182C270.587 131.565 271.985 130.379 273.56 130.533Z"
        fill="#FFCE68" />
    <path fill-rule="evenodd" clip-rule="evenodd"
        d="M181.148 52.1332C182.716 51.7226 184.317 52.6658 184.726 54.24L193.144 86.6499L221.429 97.5231C222.942 98.1046 223.699 99.8077 223.12 101.327C222.541 102.847 220.845 103.607 219.332 103.025L189.638 91.6107C188.754 91.2708 188.088 90.5232 187.849 89.6031L179.051 55.7271C178.642 54.1529 179.581 52.5439 181.148 52.1332Z"
        fill="#FFCE68" />
    <path
        d="M215.809 76.6599C210.563 100.603 226.005 126.692 249.54 133.624C264.142 137.929 279.034 135.108 290.59 127.293L311.174 132.37L301.395 117.347C305.943 111.677 309.294 104.886 310.944 97.2486C316.332 72.3626 301.231 47.2242 276.708 40.2624C249.673 32.588 221.814 49.2282 215.809 76.6599Z"
        fill="#1786FF" />
    <path
        d="M243.361 59.7037C245.549 46.0083 261.2 47.8433 261.545 61.8197C261.545 61.9899 261.685 72.9994 261.692 73.1696C261.979 86.4876 255.927 89.7505 251.623 89.5655C244.925 89.277 242.935 80.9754 242.935 65.2824C242.935 63.2181 243.089 61.3684 243.353 59.7037H243.361Z"
        fill="#EFEFEF" />
    <path
        d="M246.6 66.7192C247.89 58.9787 257.139 60.0137 257.346 67.9168C257.346 68.0129 257.431 74.2305 257.431 74.334C257.6 81.86 254.023 83.7009 251.482 83.5974C247.521 83.4348 246.347 78.7476 246.347 69.876C246.347 68.7079 246.439 67.6655 246.592 66.7192H246.6Z"
        fill="black" />
    <path
        d="M221.181 59.7037C223.369 46.0083 239.02 47.8433 239.366 61.8197C239.366 61.9899 239.505 72.9994 239.512 73.1696C239.799 86.4876 233.747 89.7505 229.443 89.5655C222.745 89.277 220.755 80.9754 220.755 65.2824C220.755 63.2181 220.909 61.3684 221.174 59.7037H221.181Z"
        fill="#EFEFEF" />
    <path
        d="M225.254 67.367C226.445 59.9261 234.982 60.9231 235.172 68.518C235.172 68.6133 235.252 74.588 235.252 74.6907C235.405 81.9263 232.104 83.7004 229.76 83.5978C226.109 83.4438 225.021 78.928 225.021 70.402C225.021 69.2804 225.101 68.2761 225.247 67.367H225.254Z"
        fill="black" />
    <path fill-rule="evenodd" clip-rule="evenodd"
        d="M247.069 45.0555C247.087 45.0486 247.115 45.0383 247.155 45.0247C247.263 44.9882 247.426 44.9383 247.639 44.8799C248.063 44.7636 248.667 44.62 249.404 44.4861C250.88 44.2179 252.862 43.9941 254.992 44.0958C259.274 44.3004 263.924 45.7964 266.492 50.6024C266.784 51.1498 267.446 51.3458 267.97 51.0403C268.494 50.7348 268.681 50.0434 268.389 49.496C265.293 43.701 259.719 42.0493 255.091 41.8282C252.765 41.7171 250.62 41.9611 249.032 42.2497C248.236 42.3942 247.573 42.5513 247.088 42.6841C246.846 42.7503 246.643 42.812 246.486 42.865C246.409 42.8912 246.335 42.9179 246.269 42.9444C246.268 42.9449 246.266 42.9455 246.265 42.9462C246.227 42.9613 246.099 43.0128 245.978 43.0968C245.479 43.4446 245.344 44.1492 245.677 44.6708C245.985 45.1534 246.585 45.3101 247.069 45.0555Z"
        fill="black" />
    <path fill-rule="evenodd" clip-rule="evenodd"
        d="M237.871 45.5067C237.91 45.5219 238.043 45.5734 238.168 45.6574C238.686 46.0051 238.826 46.7098 238.481 47.2314C238.161 47.7139 237.539 47.8707 237.037 47.616C237.018 47.6091 236.989 47.5988 236.947 47.5853C236.835 47.5487 236.667 47.4988 236.446 47.4405C236.005 47.3242 235.379 47.1805 234.615 47.0467C233.084 46.7784 231.029 46.5547 228.821 46.6564C224.38 46.8609 219.558 48.3569 216.895 53.163C216.592 53.7103 215.905 53.9064 215.362 53.6009C214.819 53.2953 214.624 52.6039 214.927 52.0566C218.138 46.2616 223.918 44.6098 228.718 44.3887C231.13 44.2776 233.354 44.5216 235.002 44.8102C235.827 44.9548 236.514 45.1119 237.017 45.2446C237.268 45.3108 237.479 45.3726 237.641 45.4255C237.721 45.4517 237.798 45.4785 237.866 45.505L237.871 45.5067ZM237.054 47.6223C237.063 47.6266 237.069 47.6288 237.069 47.6288C237.07 47.6288 237.065 47.6266 237.054 47.6223"
        fill="black" />
    <path fill-rule="evenodd" clip-rule="evenodd"
        d="M229.286 101.079C229.286 101.079 229.285 101.079 229.758 99.9993C230.232 98.9199 230.231 98.9197 230.231 98.9196L230.232 98.92L230.238 98.9228L230.267 98.9363C230.294 98.9487 230.335 98.9679 230.391 98.9929C230.503 99.043 230.671 99.1168 230.89 99.2082C231.327 99.3912 231.966 99.6443 232.759 99.9196C234.35 100.472 236.544 101.107 238.976 101.45C243.893 102.144 249.464 101.611 253.174 97.25L254.878 98.8245C250.405 104.084 243.843 104.532 238.671 103.802C236.059 103.433 233.721 102.755 232.04 102.172C231.198 101.879 230.516 101.609 230.042 101.411C229.804 101.312 229.619 101.23 229.491 101.173C229.427 101.144 229.377 101.122 229.343 101.106L229.302 101.087L229.291 101.081L229.287 101.08L229.286 101.079Z"
        fill="black" />
    <path
        d="M281.16 207.191C283.73 207.009 284.812 204.036 282.935 202.36C280.181 199.889 275.712 197.418 269.1 197.997C256.533 199.093 253.44 205.578 254.11 207.617C255.119 210.66 271.987 207.833 281.16 207.198V207.191Z"
        fill="#1786FF" />
    <path
        d="M243.413 208.605C245.978 208.612 247.289 205.546 245.567 203.616C243.039 200.78 238.797 197.818 232.187 197.914C219.628 198.1 216.03 204.737 216.536 206.949C217.291 210.253 234.261 208.568 243.406 208.605H243.413Z"
        fill="#1786FF" />
    <path fill-rule="evenodd" clip-rule="evenodd"
        d="M291.682 88.726C293.254 88.6131 294.618 89.8363 294.727 91.458L297.524 132.912C297.558 133.427 297.461 133.942 297.242 134.406L283.33 163.84C282.639 165.301 280.931 165.908 279.514 165.196C278.097 164.484 277.509 162.722 278.199 161.26L291.777 132.534L289.033 91.8666C288.924 90.2449 290.11 88.8388 291.682 88.726Z"
        fill="#FFCE68" />
    <path
        d="M139.719 32.7739C139.322 31.6162 139.938 30.3558 141.096 29.9587L226.339 0.719398C227.497 0.322306 228.757 0.938875 229.155 2.09654L238.022 27.949C238.419 29.1067 237.803 30.3671 236.645 30.7641L151.402 60.0035C150.244 60.4006 148.984 59.784 148.587 58.6263L139.719 32.7739Z"
        fill="#EFEFEF" />
    <path d="M168.768 42.332L226.761 22.4397L227.959 25.9333L169.966 45.8256L168.768 42.332Z"
        fill="#D9D9D9" />
    <path
        d="M223.649 18.0418L222.211 13.8495L223.209 13.5072L223.566 14.303C223.579 13.974 223.664 13.6948 223.823 13.4655C223.987 13.2342 224.231 13.0629 224.555 12.9517C224.65 12.9191 224.74 12.8978 224.824 12.8877C224.908 12.8776 224.98 12.878 225.04 12.8886L225.236 13.8989C225.173 13.8957 225.097 13.9029 225.01 13.9205C224.927 13.9361 224.822 13.966 224.694 14.0101C224.526 14.0676 224.378 14.1652 224.25 14.3027C224.121 14.4346 224.034 14.6017 223.991 14.8039C223.946 15.0005 223.967 15.2246 224.053 15.4761L224.798 17.6477L223.649 18.0418Z"
        fill="black" />
    <path
        d="M220.767 19.122C220.326 19.2735 219.91 19.3191 219.521 19.259C219.137 19.1969 218.801 19.0344 218.511 18.7716C218.22 18.5087 217.997 18.1481 217.84 17.6898C217.682 17.2314 217.638 16.8094 217.705 16.4239C217.773 16.0383 217.936 15.7043 218.195 15.4217C218.46 15.1372 218.799 14.924 219.213 14.7821C219.638 14.6364 220.028 14.5994 220.384 14.6711C220.738 14.7371 221.044 14.8915 221.302 15.134C221.558 15.371 221.75 15.6767 221.879 16.0513C221.917 16.1631 221.951 16.2702 221.98 16.3727C222.009 16.4753 222.031 16.5676 222.047 16.6497L218.701 17.7972L218.428 17.0007L221.27 16.0257L220.786 16.4168C220.665 16.0646 220.491 15.8213 220.264 15.6869C220.042 15.5505 219.786 15.5322 219.495 15.6319C219.283 15.7047 219.116 15.8183 218.994 15.9726C218.877 16.125 218.814 16.3152 218.805 16.5433C218.794 16.7658 218.84 17.0279 218.944 17.3298C219.045 17.626 219.172 17.8576 219.323 18.0245C219.477 18.1838 219.649 18.2842 219.838 18.3255C220.033 18.365 220.242 18.3463 220.466 18.2696C220.712 18.1853 220.894 18.0697 221.012 17.9229C221.13 17.7761 221.203 17.6045 221.229 17.408L222.264 17.4467C222.249 17.6954 222.176 17.9296 222.046 18.1494C221.92 18.3673 221.746 18.5613 221.524 18.7314C221.304 18.894 221.052 19.0242 220.767 19.122Z"
        fill="black" />
    <path
        d="M216.03 20.7473C215.773 20.8355 215.52 20.8629 215.271 20.8296C215.026 20.7887 214.801 20.6972 214.596 20.5551C214.395 20.4055 214.228 20.2191 214.095 19.996L214.161 19.8048L214.551 21.161L213.537 21.509L211.469 15.4805L212.617 15.0865L213.653 18.1049L213.483 17.9662C213.465 17.6225 213.547 17.3041 213.727 17.011C213.908 16.7179 214.188 16.5062 214.568 16.3758C214.898 16.2627 215.227 16.2467 215.555 16.328C215.882 16.4092 216.177 16.5861 216.44 16.8585C216.707 17.129 216.921 17.4963 217.08 17.9602C217.235 18.413 217.29 18.8283 217.245 19.2062C217.205 19.5822 217.078 19.9038 216.864 20.171C216.655 20.4363 216.377 20.6284 216.03 20.7473ZM215.385 19.9848C215.692 19.8794 215.895 19.6879 215.994 19.4105C216.096 19.1255 216.074 18.7707 215.928 18.3458C215.783 17.921 215.586 17.6293 215.338 17.4708C215.088 17.3066 214.809 17.2773 214.502 17.3827C214.3 17.4517 214.145 17.5643 214.036 17.7203C213.927 17.8764 213.865 18.0666 213.848 18.291C213.837 18.5135 213.877 18.7589 213.969 19.0272C214.063 19.3011 214.183 19.5225 214.328 19.6912C214.477 19.8525 214.642 19.9586 214.821 20.0093C215.007 20.0582 215.195 20.05 215.385 19.9848Z"
        fill="black" />
    <path
        d="M205.61 24.2273L204.172 20.035L205.204 19.6813L205.504 20.4215C205.548 20.0941 205.666 19.8193 205.859 19.5971C206.057 19.373 206.304 19.2101 206.6 19.1085C206.902 19.005 207.197 18.9818 207.485 19.0391C207.779 19.0945 208.035 19.2381 208.252 19.4698C208.278 19.2547 208.345 19.0597 208.454 18.885C208.563 18.7102 208.699 18.5605 208.862 18.4357C209.026 18.311 209.202 18.216 209.392 18.1508C209.666 18.0568 209.934 18.0274 210.196 18.0625C210.464 18.0957 210.703 18.2011 210.914 18.3787C211.124 18.5562 211.289 18.8183 211.408 19.1649L212.352 21.915L211.203 22.309L210.337 19.7853C210.232 19.4778 210.09 19.2828 209.912 19.2003C209.733 19.1177 209.538 19.1129 209.326 19.1857C209.158 19.2433 209.016 19.3389 208.899 19.4726C208.788 19.6044 208.72 19.7685 208.693 19.9649C208.671 20.1539 208.701 20.3713 208.786 20.6173L209.559 22.8727L208.411 23.2667L207.545 20.743C207.44 20.4355 207.295 20.2415 207.111 20.1609C206.933 20.0783 206.738 20.0735 206.525 20.1463C206.38 20.1962 206.248 20.2852 206.129 20.4133C206.017 20.5395 205.941 20.7027 205.904 20.903C205.872 21.1014 205.903 21.3375 205.997 21.6114L206.759 23.8333L205.61 24.2273Z"
        fill="black" />
    <path
        d="M201.915 25.5893C201.635 25.6852 201.366 25.7212 201.108 25.6973C200.85 25.6733 200.617 25.5754 200.408 25.4034C200.203 25.2239 200.039 24.9581 199.919 24.6059L198.964 21.8223L200.113 21.4283L200.972 23.9352C201.084 24.2594 201.228 24.4628 201.407 24.5454C201.583 24.6223 201.797 24.6177 202.048 24.5314C202.166 24.4911 202.274 24.4323 202.372 24.3548C202.469 24.2717 202.543 24.1711 202.597 24.0529C202.655 23.9328 202.686 23.7942 202.688 23.6372C202.689 23.4746 202.655 23.2955 202.588 23.0999L201.815 20.8444L202.963 20.4504L204.401 24.6427L203.378 24.9936L203.086 24.2785C203.042 24.6059 202.92 24.8789 202.721 25.0974C202.524 25.3084 202.256 25.4724 201.915 25.5893Z"
        fill="black" />
    <path
        d="M195.236 27.7859L193.798 23.5936L194.83 23.2399L195.328 24.4745L195.14 24.3893C195.113 24.0924 195.141 23.8296 195.225 23.6008C195.309 23.3721 195.44 23.1804 195.618 23.0256C195.8 22.8633 196.017 22.739 196.268 22.6527C196.559 22.553 196.835 22.5207 197.097 22.5558C197.365 22.589 197.602 22.6981 197.809 22.8832C198.02 23.0608 198.184 23.3201 198.301 23.661L199.244 26.4112L198.095 26.8052L197.264 24.382C197.142 24.0243 196.987 23.8023 196.802 23.7161C196.614 23.6243 196.408 23.6167 196.185 23.6934C196.028 23.7471 195.888 23.839 195.764 23.969C195.643 24.0915 195.564 24.2529 195.527 24.4532C195.495 24.6516 195.527 24.8905 195.623 25.17L196.385 27.3919L195.236 27.7859Z"
        fill="black" />
    <path
        d="M189.792 29.7489C189.35 29.9004 188.935 29.9461 188.545 29.8859C188.162 29.8238 187.825 29.6614 187.535 29.3985C187.245 29.1357 187.021 28.7751 186.864 28.3167C186.707 27.8584 186.662 27.4364 186.73 27.0508C186.797 26.6653 186.961 26.3312 187.22 26.0486C187.485 25.7642 187.824 25.551 188.238 25.4091C188.662 25.2634 189.053 25.2263 189.408 25.298C189.762 25.3641 190.068 25.5184 190.326 25.761C190.582 25.998 190.775 26.3037 190.903 26.6782C190.941 26.79 190.975 26.8972 191.004 26.9997C191.033 27.1022 191.055 27.1945 191.071 27.2766L187.725 28.4242L187.452 27.6276L190.295 26.6527L189.81 27.0437C189.689 26.6916 189.515 26.4483 189.288 26.3138C189.066 26.1774 188.81 26.1591 188.52 26.2588C188.307 26.3317 188.14 26.4452 188.018 26.5995C187.902 26.7519 187.839 26.9422 187.83 27.1702C187.818 27.3927 187.865 27.6549 187.968 27.9567C188.07 28.253 188.196 28.4845 188.347 28.6514C188.502 28.8108 188.673 28.9112 188.863 28.9525C189.057 28.9919 189.266 28.9733 189.49 28.8966C189.736 28.8122 189.918 28.6966 190.036 28.5499C190.155 28.4031 190.227 28.2314 190.253 28.035L191.288 28.0737C191.273 28.3223 191.201 28.5566 191.07 28.7763C190.945 28.9942 190.771 29.1882 190.548 29.3583C190.329 29.521 190.077 29.6512 189.792 29.7489Z"
        fill="black" />
    <path
        d="M182.627 32.1121L181.189 27.9198L182.22 27.566L182.719 28.8007L182.53 28.7155C182.503 28.4185 182.532 28.1557 182.616 27.927C182.7 27.6983 182.831 27.5065 183.009 27.3518C183.191 27.1895 183.407 27.0652 183.659 26.9789C183.949 26.8792 184.226 26.8469 184.488 26.882C184.755 26.9152 184.993 27.0243 185.2 27.2094C185.411 27.387 185.574 27.6462 185.691 27.9872L186.635 30.7373L185.486 31.1314L184.655 28.7082C184.532 28.3505 184.378 28.1285 184.192 28.0423C184.005 27.9505 183.799 27.9429 183.575 28.0196C183.419 28.0733 183.278 28.1651 183.154 28.2952C183.034 28.4177 182.955 28.5791 182.918 28.7794C182.886 28.9777 182.918 29.2167 183.013 29.4961L183.776 31.7181L182.627 32.1121Z"
        fill="black" />
    <path
        d="M178.052 28.9005C178.477 28.7547 178.878 28.7139 179.256 28.7779C179.64 28.84 179.977 29.0024 180.267 29.2653C180.562 29.5262 180.789 29.8858 180.946 30.3442C181.101 30.797 181.143 31.2199 181.072 31.6129C181.004 31.9985 180.838 32.3335 180.573 32.618C180.314 32.9006 179.972 33.1147 179.547 33.2604C179.128 33.4042 178.727 33.4451 178.343 33.383C177.959 33.321 177.62 33.1595 177.324 32.8985C177.032 32.6301 176.808 32.2695 176.653 31.8167C176.496 31.3584 176.451 30.9364 176.519 30.5508C176.592 30.1634 176.761 29.8274 177.026 29.5429C177.29 29.2584 177.632 29.0443 178.052 28.9005ZM178.345 29.7557C178.133 29.8285 177.968 29.9412 177.852 30.0936C177.739 30.2384 177.677 30.4221 177.666 30.6446C177.655 30.8671 177.7 31.1264 177.802 31.4227C177.903 31.719 178.027 31.9515 178.172 32.1203C178.318 32.2891 178.48 32.3989 178.66 32.4496C178.844 32.4929 179.041 32.4781 179.254 32.4052C179.461 32.3343 179.62 32.2264 179.733 32.0815C179.85 31.9291 179.913 31.7417 179.925 31.5192C179.936 31.2967 179.89 31.0373 179.789 30.7411C179.687 30.4448 179.564 30.2123 179.418 30.0435C179.273 29.8747 179.109 29.7687 178.925 29.7254C178.745 29.6747 178.552 29.6847 178.345 29.7557Z"
        fill="black" />
    <path
        d="M172.416 35.6145L170.348 29.5859L171.496 29.1919L172.371 31.7408C172.413 31.4265 172.529 31.1648 172.72 30.9557C172.909 30.741 173.151 30.5829 173.447 30.4813C173.738 30.3816 174.014 30.3493 174.276 30.3844C174.544 30.4176 174.781 30.5267 174.988 30.7118C175.199 30.8893 175.363 31.1486 175.48 31.4896L176.423 34.2397L175.275 34.6337L174.446 32.219C174.322 31.8556 174.167 31.6309 173.981 31.5446C173.793 31.4528 173.59 31.4443 173.372 31.5191C173.21 31.5747 173.067 31.6675 172.943 31.7975C172.823 31.9201 172.745 32.0843 172.709 32.2901C172.677 32.4885 172.709 32.7274 172.805 33.0069L173.564 35.2204L172.416 35.6145Z"
        fill="black" />
    <path
        d="M167.537 31.1037C167.962 30.958 168.35 30.9061 168.702 30.9479C169.052 30.9841 169.354 31.1085 169.608 31.3212C169.866 31.5264 170.059 31.8163 170.187 32.1908C170.316 32.5653 170.342 32.9155 170.267 33.2413C170.195 33.5596 170.033 33.8432 169.781 34.0921C169.527 34.3354 169.187 34.5299 168.763 34.6756L167.597 35.0753L168.27 37.0373L167.113 37.4342L165.215 31.9004L167.537 31.1037ZM168.273 33.822C168.62 33.7032 168.855 33.5413 168.978 33.3366C169.099 33.1262 169.111 32.8785 169.014 32.5934C168.914 32.3028 168.752 32.1145 168.529 32.0286C168.306 31.9427 168.021 31.9592 167.675 32.0781L166.685 32.4174L167.284 34.1614L168.273 33.822Z"
        fill="black" />
    <path
        d="M160.802 39.5975C161.994 43.0705 160.144 46.8516 156.671 48.0429C153.198 49.2342 149.417 47.3845 148.225 43.9115C147.034 40.4385 148.884 36.6573 152.357 35.466C155.83 34.2748 159.611 36.1245 160.802 39.5975Z"
        fill="#50AD41" />
    <path
        d="M224.754 149.595C225.047 148.407 226.247 147.681 227.436 147.974L314.934 169.549C316.122 169.842 316.848 171.043 316.555 172.231L310.011 198.767C309.718 199.956 308.517 200.681 307.329 200.388L219.831 178.813C218.643 178.52 217.917 177.319 218.21 176.131L224.754 149.595Z"
        fill="#EFEFEF" />
    <path d="M244 173.359L303.527 188.038L302.643 191.624L243.116 176.945L244 173.359Z"
        fill="#D9D9D9" />
    <path
        d="M296.41 181.051C295.974 180.943 295.595 180.768 295.271 180.524C294.954 180.281 294.718 179.992 294.563 179.655L295.413 179.134C295.5 179.375 295.642 179.589 295.839 179.778C296.036 179.967 296.292 180.1 296.607 180.178C296.831 180.233 297.017 180.245 297.164 180.214C297.319 180.18 297.414 180.09 297.449 179.947C297.472 179.855 297.46 179.77 297.412 179.691C297.366 179.607 297.253 179.521 297.074 179.434L296.354 179.093C295.881 178.866 295.563 178.624 295.402 178.365C295.248 178.102 295.212 177.804 295.294 177.471C295.352 177.236 295.475 177.032 295.664 176.859C295.858 176.688 296.111 176.574 296.424 176.517C296.737 176.454 297.104 176.475 297.522 176.578C297.953 176.684 298.309 176.845 298.59 177.06C298.879 177.271 299.083 177.532 299.201 177.841L298.326 178.355C298.249 178.123 298.12 177.93 297.939 177.776C297.765 177.618 297.566 177.511 297.342 177.456C297.182 177.416 297.04 177.399 296.917 177.405C296.793 177.411 296.695 177.439 296.622 177.488C296.551 177.531 296.504 177.599 296.481 177.691C296.458 177.782 296.479 177.873 296.542 177.961C296.607 178.044 296.74 178.135 296.941 178.233L297.774 178.63C298.177 178.821 298.445 179.042 298.578 179.294C298.712 179.54 298.744 179.807 298.673 180.093C298.605 180.369 298.47 180.597 298.267 180.778C298.071 180.955 297.814 181.072 297.496 181.127C297.185 181.178 296.823 181.153 296.41 181.051Z"
        fill="black" />
    <path
        d="M291.838 179.922C291.402 179.815 291.022 179.639 290.699 179.395C290.381 179.152 290.145 178.863 289.991 178.526L290.841 178.005C290.927 178.246 291.069 178.461 291.266 178.649C291.463 178.838 291.72 178.971 292.035 179.049C292.259 179.104 292.445 179.116 292.592 179.086C292.747 179.051 292.842 178.961 292.877 178.818C292.9 178.726 292.887 178.641 292.84 178.562C292.794 178.478 292.681 178.392 292.501 178.305L291.782 177.964C291.309 177.737 290.991 177.495 290.83 177.236C290.675 176.973 290.639 176.675 290.721 176.342C290.779 176.107 290.903 175.903 291.091 175.73C291.286 175.559 291.539 175.445 291.851 175.388C292.165 175.325 292.531 175.346 292.95 175.449C293.38 175.555 293.736 175.716 294.018 175.931C294.307 176.143 294.51 176.403 294.629 176.712L293.753 177.226C293.677 176.995 293.548 176.801 293.367 176.647C293.193 176.489 292.994 176.382 292.77 176.327C292.61 176.287 292.468 176.27 292.344 176.276C292.221 176.283 292.123 176.31 292.05 176.359C291.979 176.402 291.931 176.47 291.909 176.562C291.886 176.653 291.907 176.744 291.97 176.832C292.035 176.915 292.168 177.006 292.369 177.104L293.202 177.501C293.605 177.692 293.873 177.913 294.006 178.165C294.14 178.411 294.172 178.678 294.101 178.965C294.033 179.24 293.898 179.468 293.695 179.65C293.499 179.826 293.242 179.943 292.924 179.998C292.613 180.049 292.251 180.024 291.838 179.922Z"
        fill="black" />
    <path
        d="M287.129 178.761C286.676 178.65 286.302 178.463 286.007 178.202C285.718 177.942 285.523 177.623 285.422 177.245C285.32 176.867 285.327 176.443 285.443 175.972C285.559 175.502 285.75 175.123 286.016 174.835C286.282 174.548 286.6 174.355 286.971 174.258C287.347 174.162 287.748 174.167 288.173 174.271C288.609 174.379 288.957 174.559 289.217 174.812C289.479 175.059 289.652 175.354 289.738 175.698C289.825 176.036 289.821 176.397 289.726 176.782C289.698 176.896 289.668 177.005 289.637 177.107C289.606 177.208 289.575 177.298 289.543 177.376L286.109 176.529L286.311 175.711L289.229 176.431L288.61 176.497C288.699 176.136 288.684 175.837 288.566 175.601C288.453 175.366 288.248 175.212 287.95 175.138C287.732 175.085 287.529 175.09 287.343 175.153C287.163 175.218 287.007 175.344 286.876 175.531C286.746 175.712 286.643 175.957 286.567 176.267C286.492 176.571 286.472 176.834 286.509 177.056C286.553 177.274 286.643 177.452 286.779 177.589C286.922 177.727 287.108 177.825 287.337 177.881C287.59 177.944 287.805 177.945 287.984 177.886C288.163 177.826 288.317 177.721 288.445 177.57L289.294 178.163C289.147 178.364 288.959 178.522 288.731 178.636C288.507 178.751 288.256 178.82 287.977 178.843C287.704 178.861 287.422 178.834 287.129 178.761Z"
        fill="black" />
    <path
        d="M281.607 177.309L282.668 173.006L283.692 173.259L283.562 174.121C283.75 173.851 283.973 173.663 284.231 173.556C284.494 173.45 284.792 173.438 285.125 173.52C285.223 173.545 285.309 173.575 285.385 173.612C285.462 173.649 285.522 173.688 285.566 173.73L285.185 174.686C285.133 174.648 285.066 174.614 284.982 174.581C284.905 174.55 284.8 174.518 284.668 174.485C284.496 174.443 284.319 174.445 284.137 174.491C283.957 174.532 283.794 174.626 283.648 174.772C283.504 174.913 283.4 175.113 283.336 175.371L282.786 177.6L281.607 177.309Z"
        fill="black" />
    <path
        d="M277.816 176.464C277.46 176.377 277.164 176.209 276.927 175.962C276.695 175.716 276.54 175.407 276.461 175.035C276.389 174.664 276.409 174.246 276.524 173.781C276.641 173.305 276.824 172.921 277.073 172.629C277.323 172.332 277.609 172.132 277.933 172.029C278.264 171.922 278.607 171.912 278.963 172C279.341 172.093 279.627 172.279 279.82 172.558C280.013 172.837 280.104 173.158 280.094 173.52L279.948 173.631L280.714 170.524L281.894 170.814L280.368 177.002L279.309 176.741L279.554 175.414L279.684 175.519C279.577 175.779 279.427 175.991 279.234 176.157C279.043 176.316 278.824 176.424 278.579 176.479C278.335 176.534 278.08 176.53 277.816 176.464ZM278.383 175.646C278.59 175.697 278.78 175.689 278.955 175.622C279.131 175.55 279.285 175.421 279.416 175.234C279.553 175.049 279.657 174.812 279.728 174.526C279.796 174.25 279.813 174.008 279.779 173.799C279.747 173.584 279.669 173.406 279.545 173.266C279.421 173.126 279.259 173.032 279.058 172.982C278.737 172.903 278.456 172.955 278.216 173.139C277.983 173.319 277.813 173.627 277.705 174.063C277.598 174.499 277.605 174.854 277.726 175.128C277.849 175.395 278.068 175.568 278.383 175.646Z"
        fill="black" />
    <path
        d="M274.416 172.622C274.476 172.376 274.452 172.166 274.343 171.993C274.239 171.821 274.072 171.707 273.843 171.65C273.63 171.598 273.431 171.606 273.243 171.676C273.055 171.745 272.893 171.897 272.756 172.131L271.826 171.573C272.017 171.218 272.304 170.967 272.688 170.818C273.077 170.67 273.55 170.665 274.107 170.802C274.485 170.896 274.8 171.037 275.052 171.227C275.305 171.411 275.479 171.64 275.576 171.913C275.679 172.188 275.686 172.504 275.599 172.859L275.168 174.606C275.114 174.824 275.191 174.959 275.397 175.01C275.495 175.034 275.59 175.042 275.683 175.035L275.434 175.749C275.266 175.787 275.071 175.778 274.847 175.723C274.646 175.674 274.474 175.595 274.33 175.486C274.187 175.378 274.086 175.243 274.028 175.083C273.972 174.917 273.969 174.728 274.022 174.515L274.03 174.481L274.245 174.498C274.157 174.707 274.017 174.87 273.823 174.987C273.632 175.098 273.414 175.166 273.17 175.191C272.933 175.218 272.696 175.202 272.461 175.144C272.168 175.072 271.926 174.967 271.735 174.828C271.546 174.684 271.415 174.512 271.342 174.311C271.27 174.111 271.265 173.884 271.327 173.632C271.407 173.311 271.574 173.075 271.83 172.925C272.088 172.77 272.418 172.702 272.821 172.722L274.519 172.794L274.33 173.523L273.247 173.475C273.042 173.467 272.879 173.485 272.759 173.528C272.646 173.568 272.571 173.662 272.534 173.811C272.499 173.954 272.523 174.076 272.608 174.176C272.699 174.278 272.819 174.347 272.968 174.383C273.088 174.413 273.21 174.428 273.331 174.427C273.453 174.427 273.568 174.407 273.675 174.366C273.783 174.326 273.876 174.257 273.954 174.161C274.033 174.065 274.091 173.939 274.129 173.784L274.416 172.622Z"
        fill="black" />
    <path
        d="M268.78 167.582L267.581 172.444C267.531 172.645 267.531 172.794 267.58 172.892C267.629 172.989 267.734 173.057 267.894 173.097C267.992 173.121 268.074 173.135 268.14 173.139C268.207 173.137 268.293 173.134 268.398 173.13L268.103 173.879C267.992 173.912 267.858 173.925 267.701 173.917C267.55 173.916 267.402 173.898 267.258 173.862C266.84 173.759 266.557 173.583 266.412 173.334C266.273 173.081 266.259 172.73 266.37 172.283L267.601 167.291L268.78 167.582Z"
        fill="black" />
    <path
        d="M265.471 168.108C265.225 168.047 265.054 167.95 264.959 167.817C264.865 167.678 264.844 167.506 264.895 167.299C264.947 167.087 265.046 166.944 265.192 166.87C265.34 166.791 265.537 166.782 265.783 166.842C266.03 166.903 266.2 167.003 266.294 167.142C266.389 167.275 266.41 167.447 266.358 167.66C266.307 167.866 266.208 168.009 266.06 168.089C265.914 168.162 265.718 168.168 265.471 168.108ZM265.904 168.872L264.843 173.175L263.664 172.884L264.725 168.581L265.904 168.872Z"
        fill="black" />
    <path
        d="M261.851 169.525C261.912 169.278 261.888 169.068 261.778 168.895C261.674 168.723 261.508 168.609 261.278 168.553C261.066 168.5 260.866 168.509 260.679 168.578C260.491 168.648 260.329 168.799 260.192 169.033L259.261 168.475C259.452 168.121 259.74 167.869 260.123 167.72C260.513 167.573 260.986 167.567 261.542 167.705C261.921 167.798 262.236 167.94 262.487 168.13C262.74 168.314 262.915 168.542 263.012 168.816C263.115 169.091 263.122 169.406 263.034 169.762L262.604 171.509C262.55 171.727 262.626 171.861 262.833 171.912C262.93 171.936 263.026 171.945 263.119 171.937L262.869 172.652C262.702 172.689 262.506 172.681 262.283 172.626C262.082 172.576 261.909 172.497 261.766 172.389C261.622 172.28 261.521 172.146 261.463 171.985C261.407 171.819 261.405 171.63 261.457 171.418L261.466 171.383L261.681 171.4C261.593 171.609 261.452 171.773 261.259 171.889C261.067 172 260.85 172.068 260.606 172.093C260.368 172.12 260.132 172.104 259.896 172.046C259.604 171.974 259.362 171.869 259.171 171.73C258.981 171.586 258.85 171.414 258.778 171.214C258.706 171.013 258.701 170.787 258.763 170.534C258.842 170.213 259.01 169.977 259.266 169.828C259.523 169.672 259.853 169.604 260.256 169.624L261.955 169.696L261.766 170.426L260.682 170.378C260.477 170.37 260.315 170.387 260.194 170.431C260.081 170.47 260.006 170.564 259.97 170.713C259.934 170.857 259.959 170.978 260.044 171.078C260.134 171.18 260.254 171.249 260.403 171.286C260.524 171.315 260.645 171.33 260.767 171.33C260.889 171.329 261.003 171.309 261.111 171.268C261.218 171.228 261.311 171.16 261.39 171.063C261.468 170.967 261.526 170.841 261.565 170.687L261.851 169.525Z"
        fill="black" />
    <path
        d="M250.586 169.659L251.647 165.356L252.705 165.617L252.557 166.402C252.772 166.15 253.02 165.983 253.302 165.901C253.59 165.819 253.886 165.816 254.19 165.891C254.499 165.968 254.76 166.108 254.971 166.312C255.188 166.518 255.325 166.777 255.382 167.089C255.521 166.923 255.683 166.795 255.869 166.707C256.055 166.619 256.251 166.567 256.456 166.55C256.66 166.534 256.86 166.55 257.056 166.598C257.337 166.667 257.578 166.788 257.779 166.959C257.986 167.132 258.13 167.35 258.211 167.613C258.292 167.877 258.289 168.186 258.201 168.542L257.505 171.365L256.326 171.074L256.965 168.484C257.043 168.168 257.029 167.927 256.924 167.762C256.819 167.596 256.657 167.486 256.439 167.432C256.267 167.39 256.096 167.393 255.925 167.442C255.761 167.493 255.614 167.594 255.486 167.745C255.364 167.891 255.272 168.091 255.21 168.343L254.639 170.658L253.46 170.368L254.099 167.777C254.177 167.461 254.16 167.22 254.049 167.053C253.944 166.887 253.783 166.777 253.565 166.723C253.415 166.686 253.256 166.69 253.087 166.733C252.924 166.778 252.772 166.875 252.632 167.023C252.498 167.172 252.396 167.388 252.327 167.669L251.765 169.949L250.586 169.659Z"
        fill="black" />
    <path
        d="M245.261 168.346L246.661 162.666L250.921 163.716L250.686 164.672L247.613 163.914L247.265 165.326L249.684 165.922L249.459 166.834L247.04 166.238L246.684 167.684L249.877 168.471L249.641 169.426L245.261 168.346Z"
        fill="black" />
    <path
        d="M238.783 166.747C237.904 170.312 234.301 172.49 230.736 171.61C227.172 170.731 224.994 167.129 225.873 163.564C226.752 159.999 230.355 157.822 233.92 158.701C237.484 159.58 239.662 163.182 238.783 166.747Z"
        fill="#FBC554" />
    <path
        d="M181.514 63.9813C187.168 63.9813 191.751 59.3981 191.751 53.7445C191.751 48.0909 187.168 43.5078 181.514 43.5078C175.86 43.5078 171.277 48.0909 171.277 53.7445C171.277 59.3981 175.86 63.9813 181.514 63.9813Z"
        fill="#1786FF" />
    <path
        d="M280.469 173.173C286.123 173.173 290.706 168.59 290.706 162.936C290.706 157.282 286.123 152.699 280.469 152.699C274.816 152.699 270.232 157.282 270.232 162.936C270.232 168.59 274.816 173.173 280.469 173.173Z"
        fill="#1786FF" />
    <rect y="118.252" width="143.934" height="46.5669" rx="3" transform="rotate(-15 0 118.252)"
        fill="#E02146" />
    <rect x="11.4707" y="128.33" width="84.667" height="4.23335"
        transform="rotate(-15 11.4707 128.33)"
        fill="white" />
    <rect x="13.6611" y="136.502" width="38.1002" height="4.23335"
        transform="rotate(-15 13.6611 136.502)" fill="white" />
    <circle cx="118.484" cy="110.618" r="14.8167" transform="rotate(-15 118.484 110.618)"
        fill="white" />
    <rect x="114.794" y="105.027" width="4.23335" height="12.7001"
        transform="rotate(-15 114.794 105.027)" fill="#E02146" />
    <rect x="112.889" y="114.307" width="4.23335" height="12.7001"
        transform="rotate(-105 112.889 114.307)" fill="#E02146" />
</svg>