<svg viewBox="0 0 179 209" fill="none" xmlns="http://www.w3.org/2000/svg">
    <path fill-rule="evenodd" clip-rule="evenodd"
        d="M107.183 127.329C108.723 127.947 109.459 129.668 108.827 131.173L94.6444 164.928L106.79 202.857C107.062 203.707 106.926 204.632 106.42 205.372C105.914 206.113 105.092 206.59 104.185 206.671L87.6001 208.136C85.9422 208.283 84.4768 207.088 84.3269 205.467C84.177 203.847 85.3994 202.415 87.0573 202.268L99.9211 201.132L88.5664 165.673C88.3564 165.017 88.3876 164.31 88.6547 163.674L103.25 128.935C103.883 127.43 105.643 126.711 107.183 127.329Z"
        fill="#FFCE68" />
    <path fill-rule="evenodd" clip-rule="evenodd"
        d="M134.56 130.533C136.135 130.687 137.29 132.122 137.14 133.739L134.112 166.409L143.916 201.288C144.14 202.087 144.025 202.945 143.6 203.651C143.174 204.358 142.477 204.846 141.681 204.996L125.231 208.099C123.675 208.393 122.182 207.336 121.896 205.738C121.61 204.14 122.64 202.607 124.196 202.314L137.534 199.798L128.457 167.502C128.357 167.147 128.323 166.776 128.357 166.408L131.437 133.182C131.587 131.565 132.985 130.379 134.56 130.533Z"
        fill="#FFCE68" />
    <path fill-rule="evenodd" clip-rule="evenodd"
        d="M42.1482 52.1332C43.7155 51.7226 45.3175 52.6658 45.7263 54.24L54.1438 86.6499L82.429 97.5231C83.9417 98.1046 84.6987 99.8077 84.1197 101.327C83.5408 102.847 81.8452 103.607 80.3325 103.025L50.6385 91.6107C49.7544 91.2708 49.0879 90.5232 48.849 89.6031L40.0508 55.7271C39.6419 54.1529 40.581 52.5439 42.1482 52.1332Z"
        fill="#FFCE68" />
    <path
        d="M76.8093 76.6599C71.5629 100.603 87.005 126.692 110.54 133.624C125.142 137.929 140.034 135.108 151.59 127.293L172.174 132.37L162.395 117.347C166.943 111.677 170.294 104.886 171.944 97.2486C177.332 72.3626 162.231 47.2242 137.708 40.2624C110.673 32.588 82.8138 49.2282 76.8093 76.6599Z"
        fill="#1786FF" />
    <path
        d="M104.361 59.7037C106.549 46.0083 122.2 47.8433 122.545 61.8197C122.545 61.9899 122.685 72.9994 122.692 73.1696C122.979 86.4876 116.927 89.7505 112.623 89.5655C105.925 89.277 103.935 80.9754 103.935 65.2824C103.935 63.2181 104.089 61.3684 104.353 59.7037H104.361Z"
        fill="#EFEFEF" />
    <path
        d="M107.6 66.7192C108.89 58.9787 118.139 60.0137 118.346 67.9168C118.346 68.0129 118.431 74.2305 118.431 74.334C118.6 81.86 115.023 83.7009 112.482 83.5974C108.521 83.4348 107.347 78.7476 107.347 69.876C107.347 68.7079 107.439 67.6655 107.592 66.7192H107.6Z"
        fill="black" />
    <path
        d="M82.1809 59.7037C84.3695 46.0083 100.02 47.8433 100.366 61.8197C100.366 61.9899 100.505 72.9994 100.512 73.1696C100.799 86.4876 94.7471 89.7505 90.4433 89.5655C83.7452 89.277 81.7549 80.9754 81.7549 65.2824C81.7549 63.2181 81.9091 61.3684 82.1735 59.7037H82.1809Z"
        fill="#EFEFEF" />
    <path
        d="M86.2542 67.367C87.4446 59.9261 95.9819 60.9231 96.1718 68.518C96.1718 68.6133 96.2521 74.588 96.2521 74.6907C96.4054 81.9263 93.1045 83.7004 90.7602 83.5978C87.1087 83.4438 86.0205 78.928 86.0205 70.402C86.0205 69.2804 86.1008 68.2761 86.2469 67.367H86.2542Z"
        fill="black" />
    <path fill-rule="evenodd" clip-rule="evenodd"
        d="M108.069 45.0555C108.087 45.0486 108.115 45.0383 108.155 45.0247C108.263 44.9882 108.426 44.9383 108.639 44.8799C109.063 44.7636 109.667 44.62 110.404 44.4861C111.88 44.2179 113.862 43.9941 115.992 44.0958C120.274 44.3004 124.924 45.7964 127.492 50.6024C127.784 51.1498 128.446 51.3458 128.97 51.0403C129.494 50.7348 129.681 50.0434 129.389 49.496C126.293 43.701 120.719 42.0493 116.091 41.8282C113.765 41.7171 111.62 41.9611 110.032 42.2497C109.236 42.3942 108.573 42.5513 108.088 42.6841C107.846 42.7503 107.643 42.812 107.486 42.865C107.409 42.8912 107.335 42.9179 107.269 42.9444C107.268 42.9449 107.266 42.9455 107.265 42.9462C107.227 42.9613 107.099 43.0128 106.978 43.0968C106.479 43.4446 106.344 44.1492 106.677 44.6708C106.985 45.1534 107.585 45.3101 108.069 45.0555Z"
        fill="black" />
    <path fill-rule="evenodd" clip-rule="evenodd"
        d="M98.8709 45.5067C98.9099 45.5219 99.043 45.5734 99.1681 45.6574C99.6858 46.0051 99.8257 46.7098 99.4806 47.2314C99.1612 47.7139 98.5385 47.8707 98.0371 47.616C98.0182 47.6091 97.9888 47.5988 97.9472 47.5853C97.8352 47.5487 97.6669 47.4988 97.4459 47.4405C97.0055 47.3242 96.3795 47.1805 95.6154 47.0467C94.0844 46.7784 92.0289 46.5547 89.8206 46.6564C85.3796 46.8609 80.5577 48.3569 77.8948 53.163C77.5916 53.7103 76.9053 53.9064 76.3619 53.6009C75.8186 53.2953 75.624 52.6039 75.9273 52.0566C79.1381 46.2616 84.9181 44.6098 89.7177 44.3887C92.1298 44.2776 94.3542 44.5216 96.0015 44.8102C96.8266 44.9548 97.5145 45.1119 98.0173 45.2446C98.2679 45.3108 98.4786 45.3726 98.641 45.4255C98.7214 45.4517 98.7983 45.4785 98.8663 45.505L98.8709 45.5067ZM98.0538 47.6223C98.0635 47.6266 98.0691 47.6288 98.0694 47.6288C98.0698 47.6288 98.065 47.6266 98.0538 47.6223"
        fill="black" />
    <path fill-rule="evenodd" clip-rule="evenodd"
        d="M90.2862 101.079C90.2857 101.079 90.2853 101.079 90.7584 99.9993C91.2315 98.9199 91.2312 98.9197 91.231 98.9196L91.2317 98.92L91.2377 98.9228L91.2668 98.9363C91.2936 98.9487 91.3353 98.9679 91.3912 98.9929C91.5029 99.043 91.6709 99.1168 91.8895 99.2082C92.327 99.3912 92.9657 99.6443 93.7592 99.9196C95.3496 100.472 97.5445 101.107 99.9765 101.45C104.893 102.144 110.464 101.611 114.174 97.25L115.878 98.8245C111.405 104.084 104.843 104.532 99.6708 103.802C97.0588 103.433 94.721 102.755 93.0398 102.172C92.1975 101.879 91.5157 101.609 91.0415 101.411C90.8044 101.312 90.6189 101.23 90.4909 101.173C90.4269 101.144 90.3773 101.122 90.3428 101.106L90.3025 101.087L90.291 101.081L90.2874 101.08L90.2862 101.079Z"
        fill="black" />
    <path
        d="M142.16 207.191C144.73 207.009 145.812 204.036 143.935 202.36C141.181 199.889 136.712 197.418 130.1 197.997C117.533 199.093 114.44 205.578 115.11 207.617C116.119 210.66 132.987 207.833 142.16 207.198V207.191Z"
        fill="#1786FF" />
    <path
        d="M104.413 208.605C106.978 208.612 108.289 205.546 106.567 203.616C104.039 200.78 99.7968 197.818 93.1874 197.914C80.6281 198.1 77.0303 204.737 77.5359 206.949C78.2906 210.253 95.2611 208.568 104.406 208.605H104.413Z"
        fill="#1786FF" />
    <path fill-rule="evenodd" clip-rule="evenodd"
        d="M152.682 88.726C154.254 88.6131 155.618 89.8363 155.727 91.458L158.524 132.912C158.558 133.427 158.461 133.942 158.242 134.406L144.33 163.84C143.639 165.301 141.931 165.908 140.514 165.196C139.097 164.484 138.509 162.722 139.199 161.26L152.777 132.534L150.033 91.8666C149.924 90.2449 151.11 88.8388 152.682 88.726Z"
        fill="#FFCE68" />
    <path
        d="M0.719 32.7739C0.321907 31.6162 0.938476 30.3558 2.09615 29.9587L87.3394 0.719398C88.497 0.322306 89.7574 0.938875 90.1545 2.09654L99.0222 27.949C99.4193 29.1067 98.8027 30.3671 97.645 30.7641L12.4018 60.0035C11.2441 60.4006 9.98376 59.784 9.58667 58.6263L0.719 32.7739Z"
        fill="#EFEFEF" />
    <path d="M29.7676 42.332L87.7609 22.4397L88.9593 25.9333L30.9659 45.8256L29.7676 42.332Z"
        fill="#D9D9D9" />
    <path
        d="M84.6494 18.0418L83.2114 13.8495L84.2091 13.5072L84.5665 14.303C84.5785 13.974 84.664 13.6948 84.8227 13.4655C84.987 13.2342 85.2313 13.0629 85.5555 12.9517C85.6505 12.9191 85.74 12.8978 85.824 12.8877C85.908 12.8776 85.98 12.878 86.0399 12.8886L86.2364 13.8989C86.1729 13.8957 86.0973 13.9029 86.0096 13.9205C85.9275 13.9361 85.8222 13.966 85.6936 14.0101C85.5259 14.0676 85.3782 14.1652 85.2504 14.3027C85.1208 14.4346 85.0344 14.6017 84.9913 14.8039C84.9463 15.0005 84.9669 15.2246 85.0532 15.4761L85.7981 17.6477L84.6494 18.0418Z"
        fill="black" />
    <path
        d="M81.7673 19.122C81.3257 19.2735 80.9103 19.3191 80.5211 19.259C80.1374 19.1969 79.8006 19.0344 79.5105 18.7716C79.2204 18.5087 78.9968 18.1481 78.8396 17.6898C78.6823 17.2314 78.6376 16.8094 78.7052 16.4239C78.7729 16.0383 78.9363 15.7043 79.1955 15.4217C79.4603 15.1372 79.7995 14.924 80.2131 14.7821C80.6379 14.6364 81.0282 14.5994 81.3839 14.6711C81.7376 14.7371 82.0436 14.8915 82.3017 15.134C82.5579 15.371 82.7503 15.6767 82.8787 16.0513C82.9171 16.1631 82.9507 16.2702 82.9796 16.3727C83.0086 16.4753 83.0309 16.5676 83.0465 16.6497L79.7011 17.7972L79.4278 17.0007L82.2702 16.0257L81.7859 16.4168C81.6651 16.0646 81.491 15.8213 81.2637 15.6869C81.042 15.5505 80.7859 15.5322 80.4952 15.6319C80.2828 15.7047 80.1156 15.8183 79.9936 15.9726C79.8772 16.125 79.8143 16.3152 79.8051 16.5433C79.794 16.7658 79.8402 17.0279 79.9437 17.3298C80.0453 17.626 80.1716 17.8576 80.3225 18.0245C80.4772 18.1838 80.649 18.2842 80.8381 18.3255C81.0328 18.365 81.242 18.3463 81.4656 18.2696C81.7115 18.1853 81.8937 18.0697 82.012 17.9229C82.1303 17.7761 82.2026 17.6045 82.229 17.408L83.2637 17.4467C83.249 17.6954 83.1763 17.9296 83.0455 18.1494C82.9203 18.3673 82.7464 18.5613 82.5236 18.7314C82.3045 18.894 82.0524 19.0242 81.7673 19.122Z"
        fill="black" />
    <path
        d="M77.0304 20.7473C76.7733 20.8355 76.5203 20.8629 76.2715 20.8296C76.0263 20.7887 75.8013 20.6972 75.5963 20.5551C75.3951 20.4055 75.2281 20.2191 75.0953 19.996L75.1609 19.8048L75.5511 21.161L74.5366 21.509L72.4688 15.4805L73.6174 15.0865L74.6528 18.1049L74.4834 17.9662C74.4655 17.6225 74.5468 17.3041 74.7274 17.011C74.908 16.7179 75.1883 16.5062 75.5684 16.3758C75.8982 16.2627 76.227 16.2467 76.5547 16.328C76.8825 16.4092 77.1774 16.5861 77.4396 16.8585C77.7073 17.129 77.9207 17.4963 78.0798 17.9602C78.2351 18.413 78.2901 18.8283 78.2448 19.2062C78.2051 19.5822 78.078 19.9038 77.8636 20.171C77.6547 20.4363 77.377 20.6284 77.0304 20.7473ZM76.3847 19.9848C76.6921 19.8794 76.8951 19.6879 76.9936 19.4105C77.0958 19.1255 77.074 18.7707 76.9283 18.3458C76.7826 17.921 76.5857 17.6293 76.3376 17.4708C76.0876 17.3066 75.8089 17.2773 75.5015 17.3827C75.3003 17.4517 75.1452 17.5643 75.0363 17.7203C74.9274 17.8764 74.8646 18.0666 74.8478 18.291C74.8367 18.5135 74.8771 18.7589 74.9692 19.0272C75.0631 19.3011 75.1828 19.5225 75.3281 19.6912C75.4772 19.8525 75.6416 19.9586 75.8214 20.0093C76.0069 20.0582 76.1946 20.05 76.3847 19.9848Z"
        fill="black" />
    <path
        d="M66.6103 24.2273L65.1723 20.035L66.2036 19.6813L66.5044 20.4215C66.5483 20.0941 66.6664 19.8193 66.8588 19.5971C67.0568 19.373 67.304 19.2101 67.6002 19.1085C67.9021 19.005 68.1972 18.9818 68.4854 19.0391C68.7793 19.0945 69.0347 19.2381 69.2516 19.4698C69.2778 19.2547 69.3453 19.0597 69.454 18.885C69.5627 18.7102 69.6988 18.5605 69.8622 18.4357C70.0255 18.311 70.2023 18.216 70.3923 18.1508C70.6662 18.0568 70.9341 18.0274 71.1961 18.0625C71.4636 18.0957 71.7028 18.2011 71.9136 18.3787C72.1245 18.5562 72.2893 18.8183 72.4082 19.1649L73.3515 21.915L72.2028 22.309L71.3372 19.7853C71.2317 19.4778 71.0899 19.2828 70.9116 19.2003C70.7333 19.1177 70.538 19.1129 70.3256 19.1857C70.1579 19.2433 70.0158 19.3389 69.8992 19.4726C69.7882 19.6044 69.7196 19.7685 69.6932 19.9649C69.6706 20.1539 69.7014 20.3713 69.7858 20.6173L70.5595 22.8727L69.4108 23.2667L68.5451 20.743C68.4396 20.4355 68.295 20.2415 68.1111 20.1609C67.9329 20.0783 67.7376 20.0735 67.5252 20.1463C67.3798 20.1962 67.2479 20.2852 67.1294 20.4133C67.0165 20.5395 66.9413 20.7027 66.9038 20.903C66.8719 21.1014 66.9029 21.3375 66.9969 21.6114L67.759 23.8333L66.6103 24.2273Z"
        fill="black" />
    <path
        d="M62.9147 25.5893C62.6352 25.6852 62.3664 25.7212 62.1083 25.6973C61.8502 25.6733 61.6167 25.5754 61.4078 25.4034C61.2025 25.2239 61.0395 24.9581 60.9187 24.6059L59.9639 21.8223L61.1126 21.4283L61.9725 23.9352C62.0837 24.2594 62.2284 24.4628 62.4067 24.5454C62.583 24.6223 62.7969 24.6177 63.0485 24.5314C63.1659 24.4911 63.2737 24.4323 63.3721 24.3548C63.4686 24.2717 63.5434 24.1711 63.5965 24.0529C63.6553 23.9328 63.6859 23.7942 63.6882 23.6372C63.6887 23.4746 63.6554 23.2955 63.5883 23.0999L62.8146 20.8444L63.9633 20.4504L65.4013 24.6427L64.3784 24.9936L64.0863 24.2785C64.0424 24.6059 63.9205 24.8789 63.7205 25.0974C63.5243 25.3084 63.2557 25.4724 62.9147 25.5893Z"
        fill="black" />
    <path
        d="M56.2363 27.7859L54.7983 23.5936L55.8296 23.2399L56.3281 24.4745L56.1395 24.3893C56.1126 24.0924 56.1412 23.8296 56.2252 23.6008C56.3092 23.3721 56.4402 23.1804 56.6182 23.0256C56.8 22.8633 57.0166 22.739 57.2681 22.6527C57.5588 22.553 57.8351 22.5207 58.097 22.5558C58.3646 22.589 58.6019 22.6981 58.8091 22.8832C59.0199 23.0608 59.1838 23.3201 59.3008 23.661L60.2441 26.4112L59.0954 26.8052L58.2643 24.382C58.1416 24.0243 57.9873 23.8023 57.8016 23.7161C57.6139 23.6243 57.4083 23.6167 57.1847 23.6934C57.0282 23.7471 56.8879 23.839 56.7638 23.969C56.6434 24.0915 56.5644 24.2529 56.5269 24.4532C56.495 24.6516 56.527 24.8905 56.6228 25.17L57.385 27.3919L56.2363 27.7859Z"
        fill="black" />
    <path
        d="M50.7917 29.7489C50.3501 29.9004 49.9347 29.9461 49.5455 29.8859C49.1619 29.8238 48.825 29.6614 48.5349 29.3985C48.2448 29.1357 48.0212 28.7751 47.864 28.3167C47.7067 27.8584 47.662 27.4364 47.7296 27.0508C47.7973 26.6653 47.9607 26.3312 48.2199 26.0486C48.4847 25.7642 48.8239 25.551 49.2375 25.4091C49.6623 25.2634 50.0526 25.2263 50.4083 25.298C50.7621 25.3641 51.068 25.5184 51.3261 25.761C51.5823 25.998 51.7747 26.3037 51.9031 26.6782C51.9415 26.79 51.9751 26.8972 52.0041 26.9997C52.033 27.1022 52.0553 27.1945 52.0709 27.2766L48.7255 28.4242L48.4523 27.6276L51.2946 26.6527L50.8103 27.0437C50.6895 26.6916 50.5154 26.4483 50.2882 26.3138C50.0665 26.1774 49.8103 26.1591 49.5196 26.2588C49.3072 26.3317 49.14 26.4452 49.018 26.5995C48.9016 26.7519 48.8388 26.9422 48.8295 27.1702C48.8184 27.3927 48.8646 27.6549 48.9681 27.9567C49.0697 28.253 49.196 28.4845 49.347 28.6514C49.5016 28.8108 49.6735 28.9112 49.8626 28.9525C50.0573 28.9919 50.2664 28.9733 50.49 28.8966C50.7359 28.8122 50.9181 28.6966 51.0364 28.5499C51.1547 28.4031 51.2271 28.2314 51.2534 28.035L52.2881 28.0737C52.2734 28.3223 52.2007 28.5566 52.0699 28.7763C51.9448 28.9942 51.7708 29.1882 51.548 29.3583C51.3289 29.521 51.0768 29.6512 50.7917 29.7489Z"
        fill="black" />
    <path
        d="M43.6269 32.1121L42.1889 27.9198L43.2202 27.566L43.7187 28.8007L43.5301 28.7155C43.5033 28.4185 43.5318 28.1557 43.6158 27.927C43.6998 27.6983 43.8308 27.5065 44.0089 27.3518C44.1906 27.1895 44.4072 27.0652 44.6588 26.9789C44.9494 26.8792 45.2257 26.8469 45.4877 26.882C45.7552 26.9152 45.9925 27.0243 46.1997 27.2094C46.4106 27.387 46.5745 27.6462 46.6914 27.9872L47.6347 30.7373L46.4861 31.1314L45.6549 28.7082C45.5322 28.3505 45.378 28.1285 45.1922 28.0423C45.0045 27.9505 44.7989 27.9429 44.5753 28.0196C44.4188 28.0733 44.2785 28.1651 44.1544 28.2952C44.034 28.4177 43.955 28.5791 43.9175 28.7794C43.8856 28.9777 43.9176 29.2167 44.0135 29.4961L44.7756 31.7181L43.6269 32.1121Z"
        fill="black" />
    <path
        d="M39.0517 28.9005C39.4765 28.7547 39.878 28.7139 40.256 28.7779C40.6397 28.84 40.9765 29.0024 41.2666 29.2653C41.5623 29.5262 41.7887 29.8858 41.9459 30.3442C42.1012 30.797 42.1432 31.2199 42.0719 31.6129C42.0042 31.9985 41.838 32.3335 41.5732 32.618C41.3141 32.9006 40.9721 33.1147 40.5472 33.2604C40.128 33.4042 39.7266 33.4451 39.3429 33.383C38.9593 33.321 38.6196 33.1595 38.324 32.8985C38.032 32.6301 37.8083 32.2695 37.653 31.8167C37.4958 31.3584 37.451 30.9364 37.5187 30.5508C37.592 30.1634 37.761 29.8274 38.0257 29.5429C38.2905 29.2584 38.6325 29.0443 39.0517 28.9005ZM39.3451 29.7557C39.1327 29.8285 38.9683 29.9412 38.8518 30.0936C38.7391 30.2384 38.6772 30.4221 38.666 30.6446C38.6549 30.8671 38.7001 31.1264 38.8017 31.4227C38.9033 31.719 39.0268 31.9515 39.1722 32.1203C39.3176 32.2891 39.4802 32.3989 39.66 32.4496C39.8435 32.4929 40.0415 32.4781 40.2539 32.4052C40.4607 32.3343 40.6205 32.2264 40.7332 32.0815C40.8496 31.9291 40.9134 31.7417 40.9246 31.5192C40.9357 31.2967 40.8905 31.0373 40.7889 30.7411C40.6872 30.4448 40.5638 30.2123 40.4184 30.0435C40.273 29.8747 40.1086 29.7687 39.9251 29.7254C39.7452 29.6747 39.5519 29.6847 39.3451 29.7557Z"
        fill="black" />
    <path
        d="M33.4155 35.6145L31.3477 29.5859L32.4963 29.1919L33.3706 31.7408C33.4128 31.4265 33.5292 31.1648 33.7198 30.9557C33.9086 30.741 34.1511 30.5829 34.4473 30.4813C34.738 30.3816 35.0143 30.3493 35.2762 30.3844C35.5438 30.4176 35.7811 30.5267 35.9883 30.7118C36.1991 30.8893 36.363 31.1486 36.48 31.4896L37.4233 34.2397L36.2746 34.6337L35.4464 32.219C35.3217 31.8556 35.1665 31.6309 34.9808 31.5446C34.7931 31.4528 34.5903 31.4443 34.3723 31.5191C34.2102 31.5747 34.0671 31.6675 33.943 31.7975C33.8226 31.9201 33.7446 32.0843 33.709 32.2901C33.6771 32.4885 33.7091 32.7274 33.8049 33.0069L34.5642 35.2204L33.4155 35.6145Z"
        fill="black" />
    <path
        d="M28.5374 31.1037C28.9622 30.958 29.3504 30.9061 29.7021 30.9479C30.0519 30.9841 30.3539 31.1085 30.608 31.3212C30.8658 31.5264 31.059 31.8163 31.1874 32.1908C31.3159 32.5653 31.3423 32.9155 31.2666 33.2413C31.1946 33.5596 31.0326 33.8432 30.7806 34.0921C30.5267 34.3354 30.1874 34.5299 29.7625 34.6756L28.5971 35.0753L29.2701 37.0373L28.113 37.4342L26.2148 31.9004L28.5374 31.1037ZM29.273 33.822C29.6196 33.7032 29.8545 33.5413 29.978 33.3366C30.0995 33.1262 30.1114 32.8785 30.0136 32.5934C29.9139 32.3028 29.7525 32.1145 29.5293 32.0286C29.3062 31.9427 29.0213 31.9592 28.6748 32.0781L27.6854 32.4174L28.2836 34.1614L29.273 33.822Z"
        fill="black" />
    <path
        d="M21.8022 39.5975C22.9935 43.0705 21.1438 46.8516 17.6708 48.0429C14.1978 49.2342 10.4166 47.3845 9.22536 43.9115C8.03408 40.4385 9.88379 36.6573 13.3568 35.466C16.8298 34.2748 20.611 36.1245 21.8022 39.5975Z"
        fill="#50AD41" />
    <path
        d="M85.7536 149.595C86.0467 148.407 87.2475 147.681 88.4358 147.974L175.934 169.549C177.122 169.842 177.848 171.043 177.555 172.231L171.011 198.767C170.718 199.956 169.517 200.681 168.329 200.388L80.8314 178.813C79.6431 178.52 78.9173 177.319 79.2103 176.131L85.7536 149.595Z"
        fill="#EFEFEF" />
    <path d="M105 173.359L164.527 188.038L163.643 191.624L104.116 176.945L105 173.359Z"
        fill="#D9D9D9" />
    <path
        d="M157.41 181.051C156.974 180.943 156.595 180.768 156.271 180.524C155.954 180.281 155.718 179.992 155.563 179.655L156.413 179.134C156.5 179.375 156.642 179.589 156.839 179.778C157.036 179.967 157.292 180.1 157.607 180.178C157.831 180.233 158.017 180.245 158.164 180.214C158.319 180.18 158.414 180.09 158.449 179.947C158.472 179.855 158.46 179.77 158.412 179.691C158.366 179.607 158.253 179.521 158.074 179.434L157.354 179.093C156.881 178.866 156.563 178.624 156.402 178.365C156.248 178.102 156.212 177.804 156.294 177.471C156.352 177.236 156.475 177.032 156.664 176.859C156.858 176.688 157.111 176.574 157.424 176.517C157.737 176.454 158.104 176.475 158.522 176.578C158.953 176.684 159.309 176.845 159.59 177.06C159.879 177.271 160.083 177.532 160.201 177.841L159.326 178.355C159.249 178.123 159.12 177.93 158.939 177.776C158.765 177.618 158.566 177.511 158.342 177.456C158.182 177.416 158.04 177.399 157.917 177.405C157.793 177.411 157.695 177.439 157.622 177.488C157.551 177.531 157.504 177.599 157.481 177.691C157.458 177.782 157.479 177.873 157.542 177.961C157.607 178.044 157.74 178.135 157.941 178.233L158.774 178.63C159.177 178.821 159.445 179.042 159.578 179.294C159.712 179.54 159.744 179.807 159.673 180.093C159.605 180.369 159.47 180.597 159.267 180.778C159.071 180.955 158.814 181.072 158.496 181.127C158.185 181.178 157.823 181.153 157.41 181.051Z"
        fill="black" />
    <path
        d="M152.838 179.922C152.402 179.815 152.022 179.639 151.699 179.395C151.381 179.152 151.145 178.863 150.991 178.526L151.841 178.005C151.927 178.246 152.069 178.461 152.266 178.649C152.463 178.838 152.72 178.971 153.035 179.049C153.259 179.104 153.445 179.116 153.592 179.086C153.747 179.051 153.842 178.961 153.877 178.818C153.9 178.726 153.887 178.641 153.84 178.562C153.794 178.478 153.681 178.392 153.501 178.305L152.782 177.964C152.309 177.737 151.991 177.495 151.83 177.236C151.675 176.973 151.639 176.675 151.721 176.342C151.779 176.107 151.903 175.903 152.091 175.73C152.286 175.559 152.539 175.445 152.851 175.388C153.165 175.325 153.531 175.346 153.95 175.449C154.38 175.555 154.736 175.716 155.018 175.931C155.307 176.143 155.51 176.403 155.629 176.712L154.753 177.226C154.677 176.995 154.548 176.801 154.367 176.647C154.193 176.489 153.994 176.382 153.77 176.327C153.61 176.287 153.468 176.27 153.344 176.276C153.221 176.283 153.123 176.31 153.05 176.359C152.979 176.402 152.931 176.47 152.909 176.562C152.886 176.653 152.907 176.744 152.97 176.832C153.035 176.915 153.168 177.006 153.369 177.104L154.202 177.501C154.605 177.692 154.873 177.913 155.006 178.165C155.14 178.411 155.172 178.678 155.101 178.965C155.033 179.24 154.898 179.468 154.695 179.65C154.499 179.826 154.242 179.943 153.924 179.998C153.613 180.049 153.251 180.024 152.838 179.922Z"
        fill="black" />
    <path
        d="M148.129 178.761C147.676 178.65 147.302 178.463 147.007 178.202C146.718 177.942 146.523 177.623 146.422 177.245C146.32 176.867 146.327 176.443 146.443 175.972C146.559 175.502 146.75 175.123 147.016 174.835C147.282 174.548 147.6 174.355 147.971 174.258C148.347 174.162 148.748 174.167 149.173 174.271C149.609 174.379 149.957 174.559 150.217 174.812C150.479 175.059 150.652 175.354 150.738 175.698C150.825 176.036 150.821 176.397 150.726 176.782C150.698 176.896 150.668 177.005 150.637 177.107C150.606 177.208 150.575 177.298 150.543 177.376L147.109 176.529L147.311 175.711L150.229 176.431L149.61 176.497C149.699 176.136 149.684 175.837 149.566 175.601C149.453 175.366 149.248 175.212 148.95 175.138C148.732 175.085 148.529 175.09 148.343 175.153C148.163 175.218 148.007 175.344 147.876 175.531C147.746 175.712 147.643 175.957 147.567 176.267C147.492 176.571 147.472 176.834 147.509 177.056C147.553 177.274 147.643 177.452 147.779 177.589C147.922 177.727 148.108 177.825 148.337 177.881C148.59 177.944 148.805 177.945 148.984 177.886C149.163 177.826 149.317 177.721 149.445 177.57L150.294 178.163C150.147 178.364 149.959 178.522 149.731 178.636C149.507 178.751 149.256 178.82 148.977 178.843C148.704 178.861 148.422 178.834 148.129 178.761Z"
        fill="black" />
    <path
        d="M142.607 177.309L143.668 173.006L144.692 173.259L144.562 174.121C144.75 173.851 144.973 173.663 145.231 173.556C145.494 173.45 145.792 173.438 146.125 173.52C146.223 173.545 146.309 173.575 146.385 173.612C146.462 173.649 146.522 173.688 146.566 173.73L146.185 174.686C146.133 174.648 146.066 174.614 145.982 174.581C145.905 174.55 145.8 174.518 145.668 174.485C145.496 174.443 145.319 174.445 145.137 174.491C144.957 174.532 144.794 174.626 144.648 174.772C144.504 174.913 144.4 175.113 144.336 175.371L143.786 177.6L142.607 177.309Z"
        fill="black" />
    <path
        d="M138.816 176.464C138.46 176.377 138.164 176.209 137.927 175.962C137.695 175.716 137.54 175.407 137.461 175.035C137.389 174.664 137.409 174.246 137.524 173.781C137.641 173.305 137.824 172.921 138.073 172.629C138.323 172.332 138.609 172.132 138.933 172.029C139.264 171.922 139.607 171.912 139.963 172C140.341 172.093 140.627 172.279 140.82 172.558C141.013 172.837 141.104 173.158 141.094 173.52L140.948 173.631L141.714 170.524L142.894 170.814L141.368 177.002L140.309 176.741L140.554 175.414L140.684 175.519C140.577 175.779 140.427 175.991 140.234 176.157C140.043 176.316 139.824 176.424 139.579 176.479C139.335 176.534 139.08 176.53 138.816 176.464ZM139.383 175.646C139.59 175.697 139.78 175.689 139.955 175.622C140.131 175.55 140.285 175.421 140.416 175.234C140.553 175.049 140.657 174.812 140.728 174.526C140.796 174.25 140.813 174.008 140.779 173.799C140.747 173.584 140.669 173.406 140.545 173.266C140.421 173.126 140.259 173.032 140.058 172.982C139.737 172.903 139.456 172.955 139.216 173.139C138.983 173.319 138.813 173.627 138.705 174.063C138.598 174.499 138.605 174.854 138.726 175.128C138.849 175.395 139.068 175.568 139.383 175.646Z"
        fill="black" />
    <path
        d="M135.416 172.622C135.476 172.376 135.452 172.166 135.343 171.993C135.239 171.821 135.072 171.707 134.843 171.65C134.63 171.598 134.431 171.606 134.243 171.676C134.055 171.745 133.893 171.897 133.756 172.131L132.826 171.573C133.017 171.218 133.304 170.967 133.688 170.818C134.077 170.67 134.55 170.665 135.107 170.802C135.485 170.896 135.8 171.037 136.052 171.227C136.305 171.411 136.479 171.64 136.576 171.913C136.679 172.188 136.686 172.504 136.599 172.859L136.168 174.606C136.114 174.824 136.191 174.959 136.397 175.01C136.495 175.034 136.59 175.042 136.683 175.035L136.434 175.749C136.266 175.787 136.071 175.778 135.847 175.723C135.646 175.674 135.474 175.595 135.33 175.486C135.187 175.378 135.086 175.243 135.028 175.083C134.972 174.917 134.969 174.728 135.022 174.515L135.03 174.481L135.245 174.498C135.157 174.707 135.017 174.87 134.823 174.987C134.632 175.098 134.414 175.166 134.17 175.191C133.933 175.218 133.696 175.202 133.461 175.144C133.168 175.072 132.926 174.967 132.735 174.828C132.546 174.684 132.415 174.512 132.342 174.311C132.27 174.111 132.265 173.884 132.327 173.632C132.407 173.311 132.574 173.075 132.83 172.925C133.088 172.77 133.418 172.702 133.821 172.722L135.519 172.794L135.33 173.523L134.247 173.475C134.042 173.467 133.879 173.485 133.759 173.528C133.646 173.568 133.571 173.662 133.534 173.811C133.499 173.954 133.523 174.076 133.608 174.176C133.699 174.278 133.819 174.347 133.968 174.383C134.088 174.413 134.21 174.428 134.331 174.427C134.453 174.427 134.568 174.407 134.675 174.366C134.783 174.326 134.876 174.257 134.954 174.161C135.033 174.065 135.091 173.939 135.129 173.784L135.416 172.622Z"
        fill="black" />
    <path
        d="M129.78 167.582L128.581 172.444C128.531 172.645 128.531 172.794 128.58 172.892C128.629 172.989 128.734 173.057 128.894 173.097C128.992 173.121 129.074 173.135 129.14 173.139C129.207 173.137 129.293 173.134 129.398 173.13L129.103 173.879C128.992 173.912 128.858 173.925 128.701 173.917C128.55 173.916 128.402 173.898 128.258 173.862C127.84 173.759 127.557 173.583 127.412 173.334C127.273 173.081 127.259 172.73 127.37 172.283L128.601 167.291L129.78 167.582Z"
        fill="black" />
    <path
        d="M126.471 168.108C126.225 168.047 126.054 167.95 125.959 167.817C125.865 167.678 125.844 167.506 125.895 167.299C125.947 167.087 126.046 166.944 126.192 166.87C126.34 166.791 126.537 166.782 126.783 166.842C127.03 166.903 127.2 167.003 127.294 167.142C127.389 167.275 127.41 167.447 127.358 167.66C127.307 167.866 127.208 168.009 127.06 168.089C126.914 168.162 126.718 168.168 126.471 168.108ZM126.904 168.872L125.843 173.175L124.664 172.884L125.725 168.581L126.904 168.872Z"
        fill="black" />
    <path
        d="M122.851 169.525C122.912 169.278 122.888 169.068 122.778 168.895C122.674 168.723 122.508 168.609 122.278 168.553C122.066 168.5 121.866 168.509 121.679 168.578C121.491 168.648 121.329 168.799 121.192 169.033L120.261 168.475C120.452 168.121 120.74 167.869 121.123 167.72C121.513 167.573 121.986 167.567 122.542 167.705C122.921 167.798 123.236 167.94 123.487 168.13C123.74 168.314 123.915 168.542 124.012 168.816C124.115 169.091 124.122 169.406 124.034 169.762L123.604 171.509C123.55 171.727 123.626 171.861 123.833 171.912C123.93 171.936 124.026 171.945 124.119 171.937L123.869 172.652C123.702 172.689 123.506 172.681 123.283 172.626C123.082 172.576 122.909 172.497 122.766 172.389C122.622 172.28 122.521 172.146 122.463 171.985C122.407 171.819 122.405 171.63 122.457 171.418L122.466 171.383L122.681 171.4C122.593 171.609 122.452 171.773 122.259 171.889C122.067 172 121.85 172.068 121.606 172.093C121.368 172.12 121.132 172.104 120.896 172.046C120.604 171.974 120.362 171.869 120.171 171.73C119.981 171.586 119.85 171.414 119.778 171.214C119.706 171.013 119.701 170.787 119.763 170.534C119.842 170.213 120.01 169.977 120.266 169.828C120.523 169.672 120.853 169.604 121.256 169.624L122.955 169.696L122.766 170.426L121.682 170.378C121.477 170.37 121.315 170.387 121.194 170.431C121.081 170.47 121.006 170.564 120.97 170.713C120.934 170.857 120.959 170.978 121.044 171.078C121.134 171.18 121.254 171.249 121.403 171.286C121.524 171.315 121.645 171.33 121.767 171.33C121.889 171.329 122.003 171.309 122.111 171.268C122.218 171.228 122.311 171.16 122.39 171.063C122.468 170.967 122.526 170.841 122.565 170.687L122.851 169.525Z"
        fill="black" />
    <path
        d="M111.586 169.659L112.647 165.356L113.705 165.617L113.557 166.402C113.772 166.15 114.02 165.983 114.302 165.901C114.59 165.819 114.886 165.816 115.19 165.891C115.499 165.968 115.76 166.108 115.971 166.312C116.188 166.518 116.325 166.777 116.382 167.089C116.521 166.923 116.683 166.795 116.869 166.707C117.055 166.619 117.251 166.567 117.456 166.55C117.66 166.534 117.86 166.55 118.056 166.598C118.337 166.667 118.578 166.788 118.779 166.959C118.986 167.132 119.13 167.35 119.211 167.613C119.292 167.877 119.289 168.186 119.201 168.542L118.505 171.365L117.326 171.074L117.965 168.484C118.043 168.168 118.029 167.927 117.924 167.762C117.819 167.596 117.657 167.486 117.439 167.432C117.267 167.39 117.096 167.393 116.925 167.442C116.761 167.493 116.614 167.594 116.486 167.745C116.364 167.891 116.272 168.091 116.21 168.343L115.639 170.658L114.46 170.368L115.099 167.777C115.177 167.461 115.16 167.22 115.049 167.053C114.944 166.887 114.783 166.777 114.565 166.723C114.415 166.686 114.256 166.69 114.087 166.733C113.924 166.778 113.772 166.875 113.632 167.023C113.498 167.172 113.396 167.388 113.327 167.669L112.765 169.949L111.586 169.659Z"
        fill="black" />
    <path
        d="M106.261 168.346L107.661 162.666L111.921 163.716L111.686 164.672L108.613 163.914L108.265 165.326L110.684 165.922L110.459 166.834L108.04 166.238L107.684 167.684L110.877 168.471L110.641 169.426L106.261 168.346Z"
        fill="black" />
    <path
        d="M99.7827 166.747C98.9037 170.312 95.3012 172.49 91.7364 171.61C88.1715 170.731 85.9942 167.129 86.8732 163.564C87.7523 159.999 91.3547 157.822 94.9196 158.701C98.4845 159.58 100.662 163.182 99.7827 166.747Z"
        fill="#FBC554" />
    <path
        d="M42.5141 63.9813C48.1677 63.9813 52.7508 59.3981 52.7508 53.7445C52.7508 48.0909 48.1677 43.5078 42.5141 43.5078C36.8605 43.5078 32.2773 48.0909 32.2773 53.7445C32.2773 59.3981 36.8605 63.9813 42.5141 63.9813Z"
        fill="#1786FF" />
    <path
        d="M141.469 173.173C147.123 173.173 151.706 168.59 151.706 162.936C151.706 157.282 147.123 152.699 141.469 152.699C135.816 152.699 131.232 157.282 131.232 162.936C131.232 168.59 135.816 173.173 141.469 173.173Z"
        fill="#1786FF" />
</svg>
    