<svg class="logo__img" xmlns="http://www.w3.org/2000/svg" viewBox="0 0 127.98652 71.103439">
    <path fill="#3ea6de" d="m56.884723 18.360341 14.2204 38.2017h14.2204l-14.2204-38.2017z"></path>
    <path fill="#e02146" d="M98.689423 7.579751C98.689423 3.480591 101.93752 0 106.65552 0s7.966 3.480591 7.966 7.579751c0 4.09869-3.248 7.65649-7.966 7.65649s-7.966097-3.5578-7.966097-7.65649z"></path>
    <path fill="#97c6dd" d="M113.76552 18.360841v38.2017h.001l14.22-38.2017z"></path>
    <path fill="#e02146" d="M113.76652 18.360841H99.545923v38.2017l14.220597-38.2012z"></path>
    <path fill="#6a2e4a" d="M99.545923 56.562541h14.220597v-38.2012z"></path>
    <path fill="#97c6dd" d="m56.883323 18.360841-.0005.0005v38.2012h.0005l14.2204-38.2017z"></path>
    <path fill="#e02146" d="M56.883923 18.360841h-14.2208v38.2017h.001l14.2198-38.2012z"></path>
    <path fill="#6a2e4a" d="M42.664023 56.562541h14.2199v-38.2012z"></path>
    <path fill="#e02146" d="M14.221923 56.562541c-1.2768 3.4309-3.0888 4.3314-6.10536 4.3314-1.93343 0-3.47306-.309-4.93142-.7736l-.24081 10.21c1.99766.5413 4.54514.7731 6.78709.7731 9.9005 0 14.5776-3.4314 17.563-11.4532l1.1483-3.0872h-14.2208zM56.884723 18.360341l14.2204 38.2017h14.2204l-14.2204-38.2017zM41.806623 7.579751c0-4.09916 3.2483-7.579751 7.966-7.579751 4.7178 0 7.9661 3.480591 7.9661 7.579751 0 4.09869-3.2483 7.65649-7.9661 7.65649-4.7177 0-7.966-3.5578-7.966-7.65649z"></path>
    <path fill="#6a2e4a" d="m85.324023 18.360841-7.1102 19.1031 7.1102 19.0986h.0005l14.2209-38.2017zM28.441723 18.361341l-7.1097 19.1031 7.1097 19.0986 14.2213-38.2017z"></path>
    <path fill="#e02146" d="m0 18.360341 14.220823 38.2017h14.2204l-14.2199-38.2017z"></path>
    <path fill="#6a2e4a" d="M14.221323 18.360341H0l7.110173 19.1041z"></path>
    <path fill="#ba3353" d="M71.103223 18.360341h-14.2204l7.1097 19.1041zM71.104523 56.563441h14.2208v-.0005l-7.1107-19.0981-7.1101 19.0981zM14.219723 56.563441h14.2204v-.0005l-7.1097-19.0981-7.1107 19.0981z"></path>
</svg>