<?xml version="1.0" encoding="UTF-8"?><svg id="Layer_2" xmlns="http://www.w3.org/2000/svg" viewBox="0 0 512 512"><defs><style>.cls-1,.cls-2{fill:#001242;}.cls-3,.cls-4{fill:#118de8;}.cls-5,.cls-4{opacity:.5;}.cls-5,.cls-6{fill:#4ee9a4;}.cls-2{opacity:.64;}</style></defs><path class="cls-6" d="m300.31,204.4c-2.49,33.72-18.51,63.69-42.6,84.5-22.73-20.95-37.62-50.35-39.64-83.23,13.39-4.93,27.8-7.66,42.93-7.66,13.76,0,26.96,2.25,39.31,6.39Z"/><path class="cls-4" d="m300.31,204.4c-2.49,33.72-18.51,63.69-42.6,84.5-22.73-20.95-37.62-50.35-39.64-83.23,13.39-4.93,27.8-7.66,42.93-7.66,13.76,0,26.96,2.25,39.31,6.39Z"/><path class="cls-2" d="m300.31,204.4c-2.49,33.72-18.51,63.69-42.6,84.5-22.73-20.95-37.62-50.35-39.64-83.23,13.39-4.93,27.8-7.66,42.93-7.66,13.76,0,26.96,2.25,39.31,6.39Z"/><path class="cls-3" d="m257.71,288.9c-21.75,18.83-50.07,30.15-81.02,30.15-13.67,0-26.77-2.21-39.08-6.29,3.52-49.32,35.98-90.65,80.46-107.09,2.02,32.88,16.91,62.28,39.64,83.23Z"/><path class="cls-5" d="m257.71,288.9c-21.75,18.83-50.07,30.15-81.02,30.15-13.67,0-26.77-2.21-39.08-6.29,3.52-49.32,35.98-90.65,80.46-107.09,2.02,32.88,16.91,62.28,39.64,83.23Z"/><path class="cls-6" d="m384.47,314.12c-13.29,4.93-27.76,7.61-42.79,7.61-32.41,0-61.91-12.45-83.98-32.83,24.1-20.81,40.11-50.77,42.6-84.5,46.78,15.64,81.07,58.48,84.17,109.72Z"/><path class="cls-2" d="m384.47,314.12c-13.29,4.93-27.76,7.61-42.79,7.61-32.41,0-61.91-12.45-83.98-32.83,24.1-20.81,40.11-50.77,42.6-84.5,46.78,15.64,81.07,58.48,84.17,109.72Z"/><path class="cls-1" d="m300.68,195.06c0,3.15-.09,6.25-.38,9.35-12.35-4.13-25.55-6.39-39.31-6.39-15.12,0-29.54,2.72-42.93,7.66-.14-2.58-.24-5.17-.24-7.75,0-37.53,16.67-71.16,43.07-93.84,24.47,22.59,39.78,55,39.78,90.98Z"/><path class="cls-4" d="m300.68,195.06c0,3.15-.09,6.25-.38,9.35-12.35-4.13-25.55-6.39-39.31-6.39-15.12,0-29.54,2.72-42.93,7.66-.14-2.58-.24-5.17-.24-7.75,0-37.53,16.67-71.16,43.07-93.84,24.47,22.59,39.78,55,39.78,90.98Z"/><path class="cls-1" d="m470.29,288.34l-42.32-1.64c-12.31,11.98-27.05,21.37-43.49,27.43-3.1-51.24-37.39-94.08-84.17-109.72.28-3.1.38-6.2.38-9.35,0-35.98-15.31-68.39-39.78-90.98,21.7-18.74,49.93-30.01,80.79-30.01,68.39,0,123.81,55.47,123.81,123.86,0,20.95-5.21,40.67-14.37,57.96l19.16,32.46Z"/><path class="cls-3" d="m217.83,197.92c0,2.58.09,5.17.24,7.75-44.48,16.44-76.93,57.77-80.46,107.09-20.76-6.86-39.08-19.12-53.31-35.04l-54.01-.28,33.49-31.09c-7.09-15.64-11.08-32.97-11.08-51.29,0-68.48,55.52-124,124-124,32.5,0,62.09,12.49,84.21,33.02-26.4,22.69-43.07,56.32-43.07,93.84Z"/><path class="cls-6" d="m350.38,407.26l24.33,23.3-49.83-2.82c-18.65,11.23-40.53,17.71-63.88,17.71-68.34,0-123.71-55.38-123.71-123.71,0-3.01.09-6.01.33-8.97,12.31,4.09,25.41,6.29,39.08,6.29,30.95,0,59.27-11.32,81.02-30.15,22.07,20.38,51.57,32.83,83.98,32.83,15.03,0,29.5-2.68,42.79-7.61.14,2.54.24,5.07.24,7.61,0,33.16-13.06,63.31-34.33,85.53Z"/></svg>