<svg width="267" height="293" viewBox="0 0 267 293" fill="none" xmlns="http://www.w3.org/2000/svg">
<path d="M0.266325 267.243C-3.96045 280.394 42.6261 291.801 104.282 292.703C137.361 293.193 168.143 290.547 190.104 285.98L223.827 288.383L210.595 280.218C218.038 277.317 222.632 274.025 223.827 270.516C227.961 257.365 181.375 245.958 119.719 245.057C58.063 244.155 4.49312 254.092 0.266325 267.243Z" fill="#D9DBDE"/>
<path fill-rule="evenodd" clip-rule="evenodd" d="M102.679 181.954C104.306 182.622 105.083 184.483 104.415 186.109L89.4329 222.594L102.264 263.59C102.551 264.509 102.407 265.508 101.873 266.309C101.338 267.109 100.47 267.625 99.5115 267.712L81.9913 269.296C80.2399 269.454 78.6918 268.163 78.5334 266.412C78.3751 264.66 79.6665 263.112 81.4178 262.954L95.0072 261.725L83.0121 223.399C82.7902 222.69 82.8232 221.925 83.1054 221.238L98.5242 183.69C99.1922 182.064 101.052 181.286 102.679 181.954Z" fill="#FFCE68"/>
<path fill-rule="evenodd" clip-rule="evenodd" d="M132.265 185.28C134.016 185.447 135.3 187.001 135.133 188.752L131.768 224.121L142.664 261.883C142.914 262.747 142.786 263.676 142.313 264.441C141.84 265.206 141.065 265.735 140.18 265.897L121.896 269.257C120.166 269.574 118.507 268.43 118.189 266.7C117.871 264.971 119.016 263.311 120.745 262.993L135.571 260.27L125.481 225.305C125.37 224.92 125.333 224.518 125.371 224.12L128.794 188.148C128.96 186.398 130.514 185.114 132.265 185.28Z" fill="#FFCE68"/>
<path fill-rule="evenodd" clip-rule="evenodd" d="M74.5526 149.963C75.9475 151.034 76.2103 153.033 75.1395 154.428L54.1529 181.766L51.2731 210.903C51.1002 212.653 49.5413 213.931 47.7914 213.759C46.0414 213.586 44.763 212.027 44.9359 210.277L47.905 180.235C47.9635 179.644 48.1862 179.081 48.548 178.609L70.0881 150.55C71.1589 149.155 73.1577 148.892 74.5526 149.963Z" fill="#FFCE68"/>
<path d="M70.3757 127.651C64.7559 153.331 81.297 181.311 106.507 188.746C122.148 193.362 138.101 190.338 150.479 181.956L172.528 187.4L162.053 171.289C166.924 165.207 170.514 157.924 172.281 149.733C178.052 123.043 161.877 96.0816 135.609 88.615C106.65 80.3842 76.8075 98.2308 70.3757 127.651Z" fill="#1786FF"/>
<path d="M99.6783 109.543C102.05 94.8093 119.013 96.7834 119.388 111.82C119.388 112.003 119.539 123.848 119.547 124.031C119.857 138.359 113.298 141.87 108.633 141.671C101.374 141.36 99.2166 132.429 99.2166 115.545C99.2166 113.325 99.3837 111.334 99.6703 109.543H99.6783Z" fill="#EFEFEF"/>
<path d="M103.268 116.969C104.605 108.635 114.197 109.749 114.412 118.259C114.412 118.362 114.5 125.057 114.5 125.168C114.675 133.272 110.965 135.254 108.33 135.142C104.223 134.967 103.005 129.92 103.005 120.368C103.005 119.111 103.101 117.988 103.26 116.969H103.268Z" fill="black"/>
<path d="M75.7652 109.543C78.1373 94.8093 95.1004 96.7834 95.4745 111.82C95.4745 112.003 95.6257 123.848 95.6337 124.031C95.9441 138.359 89.385 141.87 84.7203 141.671C77.4607 141.36 75.3035 132.429 75.3035 115.545C75.3035 113.325 75.4707 111.334 75.7572 109.543H75.7652Z" fill="#EFEFEF"/>
<path d="M80.1534 117.161C81.4509 109.082 90.7563 110.164 90.9633 118.411C90.9633 118.515 91.0509 125.002 91.0509 125.114C91.218 132.97 87.62 134.897 85.0648 134.785C81.0848 134.618 79.8987 129.715 79.8987 120.457C79.8987 119.239 79.9863 118.148 80.1455 117.161H80.1534Z" fill="black"/>
<path fill-rule="evenodd" clip-rule="evenodd" d="M103.581 93.5879C103.601 93.5807 103.632 93.5698 103.676 93.5556C103.795 93.5172 103.974 93.4647 104.208 93.4033C104.675 93.2809 105.338 93.1298 106.148 92.989C107.77 92.7068 109.949 92.4714 112.289 92.5784C116.995 92.7936 122.106 94.3674 124.928 99.4233C125.249 99.9991 125.976 100.205 126.552 99.8839C127.128 99.5625 127.334 98.8352 127.013 98.2594C123.61 92.1631 117.484 90.4255 112.398 90.1929C109.842 90.076 107.484 90.3327 105.739 90.6363C104.864 90.7884 104.135 90.9536 103.602 91.0933C103.337 91.1629 103.113 91.2279 102.941 91.2836C102.856 91.3111 102.775 91.3393 102.702 91.3671C102.701 91.3677 102.699 91.3683 102.698 91.369C102.656 91.3849 102.515 91.4391 102.383 91.5275C101.834 91.8933 101.686 92.6346 102.052 93.1833C102.39 93.691 103.05 93.8558 103.581 93.5879Z" fill="black"/>
<path fill-rule="evenodd" clip-rule="evenodd" d="M93.5129 93.7049C93.5543 93.7209 93.6954 93.7751 93.8279 93.8634C94.3766 94.2292 94.5249 94.9706 94.1591 95.5192C93.8206 96.0269 93.1607 96.1918 92.6294 95.9239C92.6094 95.9166 92.5781 95.9058 92.5341 95.8915C92.4154 95.8531 92.237 95.8006 92.0028 95.7392C91.536 95.6169 90.8726 95.4658 90.0629 95.325C88.4403 95.0428 86.2619 94.8074 83.9217 94.9144C79.2152 95.1296 74.1051 96.7033 71.283 101.759C70.9616 102.335 70.2343 102.541 69.6585 102.22C69.0826 101.898 68.8764 101.171 69.1978 100.595C72.6006 94.499 78.7261 92.7614 83.8126 92.5288C86.3689 92.4119 88.7263 92.6686 90.4721 92.9722C91.3465 93.1243 92.0755 93.2896 92.6083 93.4292C92.874 93.4989 93.0973 93.5638 93.2694 93.6195C93.3545 93.6471 93.436 93.6752 93.5081 93.7031L93.5129 93.7049ZM92.647 95.9305C92.6573 95.935 92.6632 95.9373 92.6636 95.9373C92.664 95.9373 92.6589 95.9351 92.647 95.9305Z" fill="black"/>
<path d="M48.1042 227.291C54.237 227.291 59.2086 222.319 59.2086 216.186C59.2086 210.054 54.237 205.082 48.1042 205.082C41.9714 205.082 36.9998 210.054 36.9998 216.186C36.9998 222.319 41.9714 227.291 48.1042 227.291Z" fill="#1786FF"/>
<path fill-rule="evenodd" clip-rule="evenodd" d="M84.9881 153.931C84.9876 153.931 84.9872 153.93 85.4833 152.844C85.9795 151.758 85.9792 151.758 85.979 151.758L85.986 151.761L86.0164 151.775C86.0446 151.787 86.0883 151.807 86.1469 151.832C86.264 151.882 86.4402 151.956 86.6695 152.048C87.1283 152.232 87.798 152.487 88.6301 152.764C90.298 153.319 92.5996 153.958 95.15 154.304C100.306 155.002 106.148 154.466 110.038 150.078L111.825 151.662C107.134 156.954 100.253 157.405 94.8295 156.67C92.0903 156.299 89.6387 155.617 87.8758 155.03C86.9925 154.736 86.2774 154.464 85.7802 154.265C85.5315 154.165 85.337 154.083 85.2028 154.025C85.1357 153.996 85.0837 153.974 85.0475 153.957L85.0052 153.939L84.9931 153.933L84.9881 153.931Z" fill="black"/>
<path d="M140.562 268.421C143.34 268.214 144.51 264.823 142.481 262.912C139.504 260.094 134.672 257.276 127.524 257.937C113.936 259.187 110.592 266.582 111.317 268.906C112.407 272.377 130.644 269.153 140.562 268.429V268.421Z" fill="#1786FF"/>
<path d="M99.8204 269.438C102.606 269.446 104.031 266.158 102.161 264.089C99.4144 261.048 94.8055 257.872 87.6255 257.975C73.9818 258.174 70.0734 265.29 70.6226 267.663C71.4425 271.205 89.8782 269.398 99.8124 269.438H99.8204Z" fill="#1786FF"/>
<path d="M266.095 51.1138L88.8911 0L72.6055 56.4599L249.809 107.574L266.095 51.1138Z" fill="#D9DBDE"/>
<path fill-rule="evenodd" clip-rule="evenodd" d="M209.102 86.7413C210.713 87.4472 211.446 89.3251 210.74 90.9357L189.001 140.535C188.549 141.566 187.588 142.281 186.471 142.418L152.473 146.573C150.728 146.786 149.14 145.544 148.926 143.799C148.713 142.053 149.955 140.465 151.701 140.252L183.897 136.317L204.908 88.3793C205.614 86.7688 207.491 86.0354 209.102 86.7413Z" fill="#FFCE68"/>
<path d="M206.471 103.638C212.652 103.638 217.663 98.627 217.663 92.4459C217.663 86.2647 212.652 81.2539 206.471 81.2539C200.289 81.2539 195.279 86.2647 195.279 92.4459C195.279 98.627 200.289 103.638 206.471 103.638Z" fill="#1786FF"/>
<path d="M221.253 99.3281L225.186 111.268L233.878 102.966L221.253 99.3281Z" fill="#D9DBDE"/>
<path d="M110.105 43.7692L105.839 42.5433L105.791 23.3594L109.787 24.5136L108.959 40.2826L116.76 26.5275L120.302 27.5464L119.633 43.3632L127.331 29.5762L131.136 30.6747L120.883 46.8895L116.728 45.6876L117.046 35.3235L117.421 30.8976L117.365 30.8817L115.327 34.8299L110.105 43.7851V43.7692Z" fill="black"/>
<path d="M141.237 46.9913L131.741 44.253C131.558 46.2908 132.473 47.5405 134.272 48.0659C135.824 48.5117 137.018 48.2171 137.703 47.254L140.393 49.2201C138.913 51.1146 136.517 51.6798 133.484 50.8042C129.034 49.5226 127.251 46.2191 128.525 41.8172C129.799 37.4152 132.975 35.5446 137.297 36.7943C141.484 38.0043 143.036 41.1804 141.763 45.5744C141.651 45.9485 141.389 46.6569 141.237 46.9913ZM132.457 41.6739L138.706 43.4729C138.992 41.3714 138.173 39.9784 136.485 39.4928C134.798 39.0072 133.341 39.7157 132.457 41.6739Z" fill="black"/>
<path d="M147.757 50.0092C147.39 51.2669 147.581 51.8162 148.576 52.1027C149.197 52.2778 149.595 52.3097 150.248 52.2619L149.189 54.7216C148.497 54.8967 147.422 54.8251 146.531 54.5624C143.928 53.8142 143.124 52.2699 143.928 49.4838L148.417 33.9297L152.095 34.9884L147.764 50.0092H147.757Z" fill="black"/>
<path d="M166.557 49.5014L162.768 49.7482C162.911 48.0447 162.291 46.9621 160.874 46.5561C158.78 45.9512 157.18 47.0576 156.368 49.8755C155.54 52.7491 156.416 54.4526 158.398 55.0257C160.006 55.4874 161.168 54.8984 161.877 53.4417L164.894 55.4715C163.644 57.6924 161.073 58.759 157.666 57.772C153.216 56.4904 151.433 53.1869 152.707 48.785C153.98 44.383 157.268 42.5442 161.558 43.786C165.339 44.8766 166.557 47.1134 166.565 49.5014H166.557Z" fill="black"/>
<path d="M181.706 57.1521C180.448 61.5222 177.145 63.3928 172.83 62.1431C168.516 60.8934 166.717 57.5581 167.975 53.188C169.232 48.8178 172.536 46.9472 176.85 48.1969C181.165 49.4387 182.964 52.782 181.706 57.1521ZM171.644 54.2546C170.825 57.0964 171.549 58.8158 173.611 59.4128C175.672 60.0098 177.209 58.9352 178.028 56.0934C178.848 53.2516 178.124 51.5322 176.062 50.9352C174.001 50.3382 172.464 51.4128 171.644 54.2546Z" fill="black"/>
<path d="M207.045 62.197L204.482 70.985L200.836 69.9343L203.16 61.8627C203.725 59.9045 202.977 58.8777 201.632 58.4876C199.992 58.018 198.328 58.8697 197.652 61.202L195.574 68.4139L191.897 67.3552L194.221 59.2836C194.786 57.3254 194.038 56.2986 192.669 55.9006C191.3 55.5026 189.421 56.0996 188.657 58.7264L186.603 65.8348L182.926 64.7761L186.794 51.3633L190.09 52.3185L189.54 54.7145C190.933 53.2021 192.844 52.82 194.722 53.3613C196.601 53.9026 198.113 55.2956 198.312 57.3334C199.721 55.7652 201.775 55.3991 203.654 55.9404C206.257 56.6886 208 58.9095 207.021 62.197H207.045Z" fill="black"/>
<path d="M222.256 70.3585L212.76 67.6202C212.577 69.658 213.492 70.9077 215.291 71.4331C216.843 71.8788 218.037 71.5843 218.722 70.6211L221.413 72.5873C219.932 74.4818 217.536 75.047 214.503 74.1714C210.053 72.8898 208.27 69.5863 209.544 65.1844C210.818 60.7824 213.994 58.9118 218.316 60.1615C222.638 61.4113 224.055 64.5476 222.782 68.9416C222.67 69.3157 222.408 70.0241 222.256 70.3585ZM213.476 65.0411L219.725 66.8401C220.012 64.7386 219.192 63.3456 217.504 62.86C215.817 62.3744 214.36 63.0829 213.476 65.0411Z" fill="black"/>
<path d="M228.689 75.9929C228.323 77.2506 227.208 77.7998 225.815 77.4018C224.422 77.0038 223.77 75.9372 224.128 74.6795C224.486 73.4218 225.608 72.8646 227.001 73.2705C228.394 73.6765 229.047 74.7352 228.681 75.9929H228.689ZM231.061 66.4487L229.007 71.8695L226.054 71.0178L227.2 65.3343L229.055 58.8945L232.916 60.0089L231.061 66.4487Z" fill="black"/>
</svg>
