<?xml version="1.0" standalone="no"?>
<!DOCTYPE svg PUBLIC "-//W3C//DTD SVG 20010904//EN"
 "http://www.w3.org/TR/2001/REC-SVG-20010904/DTD/svg10.dtd">
<svg version="1.0" xmlns="http://www.w3.org/2000/svg"
 width="1505.000000pt" height="1892.000000pt" viewBox="0 0 1505.000000 1892.000000"
 preserveAspectRatio="xMidYMid meet">

<g transform="translate(0.000000,1892.000000) scale(0.100000,-0.100000)"
fill="#000000" stroke="none">
<path d="M10090 18189 c-1198 -51 -2447 -537 -3595 -1399 -564 -424 -1124
-967 -1592 -1547 -1140 -1410 -1878 -3138 -2072 -4848 -34 -295 -42 -414 -48
-745 -14 -776 76 -1448 282 -2114 199 -639 521 -1241 915 -1711 121 -144 124
-148 117 -192 -3 -22 -105 -228 -245 -493 -325 -618 -645 -1229 -787 -1500
-65 -124 -191 -364 -280 -535 -89 -170 -213 -407 -275 -525 -354 -676 -454
-861 -494 -913 -25 -32 -52 -81 -62 -110 -9 -29 -32 -91 -50 -139 -21 -55 -34
-105 -34 -134 0 -43 4 -52 43 -89 24 -22 115 -87 203 -143 196 -125 279 -191
390 -310 47 -51 107 -105 132 -120 42 -24 56 -27 142 -27 94 0 96 1 165 41 39
23 101 51 139 63 133 41 153 61 483 491 137 179 370 483 518 675 272 354 786
1025 1165 1520 114 149 250 326 303 395 53 69 174 226 269 350 202 263 240
307 277 315 15 3 82 -7 156 -24 528 -122 1118 -148 1705 -75 1222 152 2491
753 3600 1704 1319 1131 2353 2707 2885 4394 198 629 319 1231 381 1896 21
230 30 817 15 1065 -51 876 -239 1627 -581 2320 -318 645 -723 1157 -1240
1565 -614 485 -1332 777 -2147 875 -112 13 -546 38 -593 33 -8 0 -94 -4 -190
-9z m710 -504 c1078 -131 1967 -642 2610 -1500 301 -401 559 -921 704 -1417
165 -564 235 -1021 252 -1633 22 -832 -125 -1752 -426 -2655 -313 -945 -785
-1845 -1388 -2649 -594 -793 -1307 -1476 -2069 -1982 -283 -188 -614 -380
-758 -440 -52 -21 -57 -22 -88 -7 -17 8 -79 51 -137 94 -58 44 -458 336 -889
649 -622 452 -804 589 -877 661 -78 78 -110 101 -206 151 -87 46 -278 179
-838 587 -399 291 -770 565 -825 609 -55 44 -137 104 -182 133 -45 29 -405
288 -800 575 -1179 858 -1436 1043 -1488 1069 -28 14 -62 36 -77 49 -26 23
-28 31 -28 95 0 137 57 566 115 866 373 1919 1438 3774 2910 5070 1099 967
2379 1568 3575 1679 63 6 133 13 155 15 100 10 627 -3 755 -19z m-7134 -8537
c691 -504 1161 -846 1369 -997 226 -165 249 -184 260 -218 6 -23 -47 -132
-285 -583 -53 -102 -154 -293 -223 -425 -297 -567 -389 -741 -404 -757 -12
-13 -20 -15 -34 -7 -44 23 -295 380 -411 584 -318 559 -536 1238 -622 1935
-32 258 -46 440 -46 595 0 122 3 135 26 135 6 0 173 -118 370 -262z m2100
-1536 c63 -35 1307 -947 1321 -969 9 -13 13 -33 9 -45 -3 -13 -114 -165 -247
-338 -133 -173 -381 -497 -552 -720 -170 -223 -326 -422 -345 -443 -20 -20
-53 -42 -72 -47 -46 -12 -66 -34 -128 -141 -28 -47 -78 -116 -111 -153 -51
-55 -61 -73 -61 -102 0 -19 -5 -45 -11 -56 -6 -11 -273 -361 -593 -777 -320
-416 -806 -1048 -1081 -1406 -274 -357 -567 -738 -649 -845 -83 -107 -192
-250 -244 -317 -51 -68 -101 -127 -110 -132 -26 -14 -66 8 -162 88 -47 40
-120 97 -162 129 -81 59 -103 90 -92 126 4 11 74 149 156 306 321 610 383 729
603 1150 125 239 298 570 385 735 87 165 209 399 272 520 410 787 562 1076
579 1094 11 12 30 21 42 21 12 0 27 4 33 8 19 12 184 387 184 418 0 16 5 46
10 66 6 20 173 346 371 725 199 378 407 776 462 883 93 178 133 241 154 240 4
-1 22 -9 39 -18z m1880 -1365 c49 -35 280 -203 514 -373 234 -171 540 -394
681 -497 141 -102 262 -193 269 -202 22 -26 -5 -43 -161 -97 -289 -99 -586
-175 -894 -227 -414 -70 -916 -79 -1305 -25 -268 37 -335 58 -312 100 6 10
150 201 321 424 171 223 395 515 498 650 102 135 200 260 217 278 44 47 69 43
172 -31z"/>
<path d="M6245 3574 c-16 -2 -65 -9 -108 -15 -217 -29 -468 -125 -657 -252
-341 -227 -563 -551 -652 -948 -20 -90 -23 -130 -23 -304 1 -168 5 -216 23
-302 132 -607 608 -1066 1252 -1205 91 -19 135 -22 330 -23 195 0 240 3 336
22 221 45 427 130 609 250 129 86 326 281 414 411 300 444 339 1015 100 1495
-116 234 -237 379 -443 534 -224 168 -457 270 -731 319 -85 15 -385 27 -450
18z"/>
</g>
</svg>
