<svg width="1263" height="165" viewBox="0 0 1263 165" fill="none" xmlns="http://www.w3.org/2000/svg">
<rect y="1" width="1262" height="163" fill="#AEE2FB"/>
<path d="M844.944 64.9111L814.24 37.8079L772.918 45.6116C772.451 70.968 777.326 109.452 792.603 118.558C811.881 117.458 834.245 87.5255 844.944 64.9111Z" fill="#EFEFEF"/>
<path d="M1232.42 54.6359C1237.03 76.4695 1223.07 97.908 1201.24 102.52C1179.4 107.132 1157.96 93.1715 1153.35 71.3379C1148.74 49.5043 1162.7 28.0658 1184.53 23.4537C1206.37 18.8415 1227.81 32.8023 1232.42 54.6359Z" fill="#FFCE68"/>
<path d="M1182.84 57.927C1183.84 62.6734 1183.11 66.8463 1181.22 67.2473C1179.32 67.6484 1176.97 64.1258 1175.96 59.3793C1174.96 54.6329 1175.69 50.46 1177.58 50.059C1179.48 49.6579 1181.84 53.1806 1182.84 57.927Z" fill="black"/>
<path d="M1206.9 52.8438C1207.9 57.5902 1207.18 61.7631 1205.28 62.1641C1203.38 62.5652 1201.03 59.0426 1200.03 54.2961C1199.02 49.5497 1199.75 45.3768 1201.65 44.9758C1203.55 44.5747 1205.9 48.0973 1206.9 52.8438Z" fill="black"/>
<path fill-rule="evenodd" clip-rule="evenodd" d="M1179.26 80.6895C1179.83 79.9054 1180.93 79.733 1181.72 80.3045C1182.77 81.0725 1185.14 82.2464 1188.09 83.0522C1191.02 83.8544 1194.31 84.2314 1197.24 83.6127C1200.16 82.9954 1202.93 81.3425 1205.25 79.4319C1207.56 77.527 1209.3 75.462 1210.17 74.1943C1210.72 73.3945 1211.82 73.1912 1212.62 73.7403C1213.42 74.2895 1213.62 75.3831 1213.07 76.1829C1212.02 77.7153 1210.05 80.0247 1207.48 82.1426C1204.92 84.2548 1201.65 86.2734 1197.97 87.0504C1194.3 87.8259 1190.4 87.3272 1187.16 86.4413C1183.93 85.5588 1181.14 84.2319 1179.65 83.144C1178.86 82.5725 1178.69 81.4736 1179.26 80.6895Z" fill="black"/>
<path d="M140 161.602C148.167 150.602 178.4 128.302 234 127.102C303.5 125.602 377.5 160.102 433 141.602C488.5 123.102 504 82.1016 567 71.6016C630 61.1016 729.5 77.6016 741.5 1.10156" stroke="#1786FF" stroke-dasharray="5 5"/>
<path d="M880.5 1.09959C909.333 0.266258 971.2 4.29959 988 27.0996C1004.8 49.8996 995 66.6009 988 72.1016C978.333 77.4356 951.5 79.1016 947.5 55.1016C942.316 23.997 988.359 16.731 1008 18.6016C1029 20.6016 1108.5 38.1016 1110.5 89.6016C1112.1 130.802 1148.5 156.102 1166.5 163.602" stroke="#1786FF" stroke-dasharray="5 5"/>
<path d="M478.961 160C485.836 151.018 504.555 132.884 524.424 132.21C549.26 131.368 553.048 160 578.305 160C603.562 160 627.557 134.737 620.821 107.789C615.349 76.6317 658.707 87.1575 646.92 107.789C635.134 128.421 582.515 92.6317 595.564 56" stroke="#1786FF" stroke-dasharray="4 4"/>
<path d="M612.86 16.9982L579.268 51.3789L598.263 47.8259L607.677 64.4115L612.86 16.9982Z" fill="#55CAEF"/>
<path d="M117 53.002C46.2 51.402 9.5 125.669 0 163.002V1H325.5C323.167 26.8333 307.3 78.8 262.5 80C206.5 81.5 205.5 55.002 117 53.002Z" fill="#55CAEF"/>
<path d="M30.0725 64.409C28.922 81.2057 41.6024 95.7744 58.3845 96.9259C67.3883 97.5517 75.7668 94.1724 81.7444 88.3399L95 89.191L87.3217 80.9804C89.3476 77.2756 90.5981 73.0702 90.9233 68.5894C92.0487 51.7928 79.3684 37.224 62.5863 36.0726C45.8042 34.9211 31.248 47.6124 30.0975 64.409H30.0725Z" fill="#1786FF"/>
<path d="M1220 131.203C1244 129.215 1258 92.1104 1262 83L1262 164L964.002 164C963.669 160.356 1006.5 110.541 1032 103.871C1070 93.9325 1088.99 159.528 1126.99 134.184C1179.49 99.1699 1190 133.688 1220 131.203Z" fill="#1786FF"/>
<path d="M844.944 64.9111L814.24 37.8079L772.918 45.6116C772.451 70.968 777.326 109.452 792.603 118.558C811.881 117.458 834.245 87.5255 844.944 64.9111Z" fill="#EFEFEF"/>
<path d="M1232.42 54.6359C1237.03 76.4695 1223.07 97.908 1201.24 102.52C1179.4 107.132 1157.96 93.1715 1153.35 71.3379C1148.74 49.5043 1162.7 28.0658 1184.53 23.4537C1206.37 18.8415 1227.81 32.8023 1232.42 54.6359Z" fill="#FFCE68"/>
<path d="M1182.84 57.927C1183.84 62.6734 1183.11 66.8463 1181.22 67.2473C1179.32 67.6484 1176.97 64.1258 1175.96 59.3793C1174.96 54.6329 1175.69 50.46 1177.58 50.059C1179.48 49.6579 1181.84 53.1806 1182.84 57.927Z" fill="black"/>
<path d="M1206.9 52.8438C1207.9 57.5902 1207.18 61.7631 1205.28 62.1641C1203.38 62.5652 1201.03 59.0426 1200.03 54.2961C1199.02 49.5497 1199.75 45.3768 1201.65 44.9758C1203.55 44.5747 1205.9 48.0973 1206.9 52.8438Z" fill="black"/>
<path fill-rule="evenodd" clip-rule="evenodd" d="M1179.26 80.6895C1179.83 79.9054 1180.93 79.733 1181.72 80.3045C1182.77 81.0725 1185.14 82.2464 1188.09 83.0522C1191.02 83.8544 1194.31 84.2314 1197.24 83.6127C1200.16 82.9954 1202.93 81.3425 1205.25 79.4319C1207.56 77.527 1209.3 75.462 1210.17 74.1943C1210.72 73.3945 1211.82 73.1912 1212.62 73.7403C1213.42 74.2895 1213.62 75.3831 1213.07 76.1829C1212.02 77.7153 1210.05 80.0247 1207.48 82.1426C1204.92 84.2548 1201.65 86.2734 1197.97 87.0504C1194.3 87.8259 1190.4 87.3272 1187.16 86.4413C1183.93 85.5588 1181.14 84.2319 1179.65 83.144C1178.86 82.5725 1178.69 81.4736 1179.26 80.6895Z" fill="black"/>
<path d="M140 161.602C148.167 150.602 178.4 128.302 234 127.102C303.5 125.602 377.5 160.102 433 141.602C488.5 123.102 504 82.1016 567 71.6016C630 61.1016 729.5 77.6016 741.5 1.10156" stroke="#1786FF" stroke-dasharray="5 5"/>
<path d="M880.5 1.09959C909.333 0.266258 971.2 4.29959 988 27.0996C1004.8 49.8996 995 66.6009 988 72.1016C978.333 77.4356 951.5 79.1016 947.5 55.1016C942.316 23.997 988.359 16.731 1008 18.6016C1029 20.6016 1108.5 38.1016 1110.5 89.6016C1112.1 130.802 1148.5 156.102 1166.5 163.602" stroke="#1786FF" stroke-dasharray="5 5"/>
<path d="M478.961 160C485.836 151.018 504.555 132.884 524.424 132.21C549.26 131.368 553.048 160 578.305 160C603.562 160 627.557 134.737 620.821 107.789C615.349 76.6317 658.707 87.1575 646.92 107.789C635.134 128.421 582.515 92.6317 595.564 56" stroke="#1786FF" stroke-dasharray="4 4"/>
<path d="M612.86 16.9982L579.268 51.3789L598.263 47.8259L607.677 64.4115L612.86 16.9982Z" fill="#55CAEF"/>
<path d="M117 53.002C46.2 51.402 9.5 125.669 0 163.002V1H325.5C323.167 26.8333 307.3 78.8 262.5 80C206.5 81.5 205.5 55.002 117 53.002Z" fill="#55CAEF"/>
<path d="M30.0725 64.409C28.922 81.2057 41.6024 95.7744 58.3845 96.9259C67.3883 97.5517 75.7668 94.1724 81.7444 88.3399L95 89.191L87.3217 80.9804C89.3476 77.2756 90.5981 73.0702 90.9233 68.5894C92.0487 51.7928 79.3684 37.224 62.5863 36.0726C45.8042 34.9211 31.248 47.6124 30.0975 64.409H30.0725Z" fill="#1786FF"/>
<path d="M1220.52 129.001C1244.52 127.001 1258.52 89.6667 1262.52 80.5L1262.52 162L964.5 162C964.167 158.334 1007 108.211 1032.5 101.5C1070.5 91.5 1089.5 157.5 1127.5 132C1180 96.7697 1190.52 131.501 1220.52 129.001Z" fill="#1786FF"/>
</svg>
