<?xml version="1.0" standalone="no"?>
<!DOCTYPE svg PUBLIC "-//W3C//DTD SVG 20010904//EN"
 "http://www.w3.org/TR/2001/REC-SVG-20010904/DTD/svg10.dtd">
<svg version="1.0" xmlns="http://www.w3.org/2000/svg"
 width="1711.000000pt" height="1534.000000pt" viewBox="0 0 1711.000000 1534.000000"
 preserveAspectRatio="xMidYMid meet">

<g transform="translate(0.000000,1534.000000) scale(0.100000,-0.100000)"
fill="#000000" stroke="none">
<path d="M1075 14929 c-488 -59 -823 -345 -927 -788 -29 -126 -36 -381 -14
-531 37 -250 119 -503 251 -775 416 -856 1267 -1718 2185 -2210 163 -87 362
-178 503 -229 70 -26 137 -52 148 -59 40 -25 34 -48 -66 -254 -414 -846 -717
-1723 -926 -2678 -42 -194 -57 -236 -114 -315 -71 -100 -305 -547 -329 -629
-22 -76 -20 -127 8 -188 29 -61 79 -99 149 -112 26 -4 54 -14 62 -21 18 -15
20 -96 4 -290 -5 -74 -14 -290 -18 -480 -7 -329 -8 -347 -30 -395 -49 -107
-53 -128 -61 -300 -7 -154 -11 -181 -43 -285 -61 -198 -180 -480 -352 -835
-290 -597 -276 -564 -276 -645 -1 -90 39 -162 106 -194 50 -24 133 -22 183 3
81 41 123 105 290 440 87 174 179 362 205 418 78 166 91 163 137 -35 53 -229
118 -456 192 -667 70 -197 71 -201 72 -305 1 -93 -3 -117 -33 -210 -113 -357
-245 -574 -581 -955 -147 -166 -180 -222 -180 -303 0 -173 182 -254 342 -151
87 56 338 338 485 545 95 133 144 215 220 367 68 136 81 148 120 104 11 -12
46 -60 79 -107 93 -134 246 -313 388 -455 534 -532 1261 -893 2181 -1085 665
-138 1354 -193 2580 -206 1454 -16 2433 47 3225 206 1237 249 2089 747 2734
1598 43 57 84 106 93 109 22 9 46 -23 89 -117 127 -278 352 -592 617 -863 157
-159 290 -187 393 -83 100 99 79 224 -64 378 -174 188 -335 392 -425 538 -135
219 -257 555 -257 705 0 72 19 140 92 333 67 180 154 458 198 639 26 109 40
134 64 114 9 -8 99 -181 200 -386 100 -204 203 -403 229 -442 64 -99 134 -146
219 -145 115 2 198 91 198 212 0 58 -18 105 -117 309 -328 674 -425 894 -506
1146 -44 138 -48 161 -51 331 -3 108 -9 161 -29 239 -23 92 -26 123 -31 400
-4 165 -13 381 -21 480 -21 253 -20 300 6 323 11 11 32 22 47 26 40 8 86 40
116 79 51 67 50 175 -5 295 -43 95 -210 407 -291 544 l-70 117 -68 278 c-219
889 -503 1658 -918 2490 -97 194 -139 288 -135 303 7 26 34 40 148 74 626 191
1377 680 1953 1271 1105 1133 1467 2405 858 3011 -152 151 -334 241 -582 290
-109 22 -418 25 -539 5 -585 -93 -1189 -375 -1795 -837 -578 -440 -1092 -1023
-1409 -1599 -78 -142 -101 -168 -132 -157 -11 4 -86 71 -167 148 -203 194
-351 325 -527 467 -700 561 -1484 939 -2244 1082 -813 152 -1598 73 -2387
-243 -619 -248 -1231 -655 -1780 -1184 -142 -137 -163 -148 -201 -105 -11 12
-60 86 -108 164 -274 442 -637 862 -1050 1217 -655 562 -1350 923 -1993 1036
-137 24 -397 34 -517 19z m507 -468 c560 -121 1145 -436 1718 -927 222 -190
505 -487 687 -719 216 -278 433 -639 433 -723 0 -46 -15 -68 -213 -313 -145
-179 -462 -640 -610 -886 -38 -62 -78 -119 -90 -128 -33 -23 -84 -18 -193 19
-557 188 -1133 561 -1647 1066 -636 624 -1033 1305 -1098 1883 -21 191 16 387
97 504 86 125 231 211 406 243 92 16 400 4 510 -19z m14323 5 c233 -63 385
-217 431 -436 22 -103 14 -349 -15 -474 -76 -329 -259 -706 -517 -1066 -457
-638 -1121 -1205 -1808 -1544 -221 -110 -579 -236 -668 -236 -50 0 -70 20
-158 161 -157 250 -409 602 -629 879 -67 83 -122 161 -122 173 -2 45 4 64 71
198 202 403 453 747 810 1113 639 654 1419 1117 2085 1236 138 25 422 22 520
-4z m-7175 -1091 c1579 -165 3096 -1306 4222 -3175 1041 -1729 1583 -3920
1412 -5710 -67 -702 -237 -1326 -512 -1875 -277 -554 -690 -1040 -1185 -1393
-953 -679 -2322 -991 -4352 -992 -2126 0 -3482 346 -4429 1132 -175 145 -421
410 -574 616 -124 168 -299 467 -366 627 -21 50 -65 151 -99 225 -33 74 -86
214 -118 310 -311 941 -379 2139 -193 3395 133 896 391 1808 749 2644 277 649
659 1330 1014 1806 53 72 129 173 168 226 188 254 419 510 749 829 399 386
947 764 1409 973 707 319 1390 436 2105 362z"/>
<path d="M5005 8371 c-133 -39 -233 -110 -325 -233 -199 -264 -287 -663 -235
-1065 36 -273 108 -472 236 -644 232 -314 603 -368 873 -128 158 141 259 345
317 639 19 95 23 148 23 300 0 292 -43 495 -149 711 -58 119 -96 171 -184 259
-83 83 -178 139 -277 165 -76 20 -204 18 -279 -4z m231 -523 c88 -81 160 -281
171 -473 7 -133 10 -131 -137 -110 -95 14 -127 15 -216 5 -141 -16 -138 -18
-131 125 7 142 28 238 75 339 47 100 104 156 157 156 28 0 45 -9 81 -42z"/>
<path d="M11556 8375 c-274 -76 -488 -365 -576 -780 -27 -130 -38 -407 -21
-555 31 -265 124 -507 252 -655 250 -289 591 -313 857 -61 155 147 257 349
313 622 30 144 37 449 15 602 -65 440 -280 751 -572 827 -70 18 -201 18 -268
0z m213 -523 c83 -78 148 -268 158 -457 8 -144 10 -143 -135 -126 -101 11
-180 7 -298 -15 -22 -4 -36 -1 -49 12 -15 16 -17 29 -11 106 14 185 86 386
170 473 37 39 48 45 84 45 34 0 48 -7 81 -38z"/>
<path d="M7450 5269 c-150 -18 -394 -93 -568 -175 -358 -167 -623 -449 -777
-825 -14 -35 -44 -131 -65 -212 -29 -108 -53 -172 -87 -236 -27 -48 -59 -109
-73 -135 -14 -26 -78 -112 -143 -189 -64 -78 -131 -169 -147 -201 -60 -119
-30 -245 72 -295 91 -43 184 -21 288 69 32 28 66 50 77 50 21 0 42 -40 88
-164 44 -120 39 -135 -105 -316 -119 -150 -150 -203 -157 -274 -7 -65 9 -116
50 -163 74 -85 199 -84 310 1 17 14 58 56 91 94 69 82 94 99 124 83 11 -6 62
-65 113 -133 192 -252 272 -314 394 -306 71 4 99 19 149 82 26 31 31 47 34
105 5 85 -19 140 -112 257 -354 448 -496 710 -551 1017 -26 144 -17 404 18
537 84 321 249 549 507 700 103 60 208 102 254 102 38 -1 46 -7 180 -149 251
-266 562 -561 708 -672 83 -62 144 -83 267 -89 179 -8 260 22 421 159 146 124
460 429 609 592 77 84 147 151 163 156 85 30 375 -131 524 -291 140 -150 229
-330 280 -568 29 -131 26 -403 -5 -530 -75 -304 -188 -509 -505 -915 -115
-148 -142 -195 -152 -268 -12 -83 34 -170 108 -208 51 -26 142 -23 203 6 54
26 143 118 253 263 88 115 133 162 155 162 6 0 56 -47 111 -105 111 -115 160
-144 239 -145 121 0 201 80 200 202 -1 81 -32 141 -153 293 -57 72 -112 150
-123 174 l-19 44 32 96 c64 192 75 200 164 122 72 -62 117 -84 187 -89 124 -9
221 93 206 219 -10 82 -42 132 -215 338 -101 119 -212 323 -248 455 -93 339
-186 527 -358 725 -211 243 -521 420 -913 520 -130 33 -268 44 -493 38 -234
-7 -328 -22 -519 -86 l-121 -41 -58 21 c-97 36 -208 68 -299 85 -103 19 -493
28 -613 13z"/>
<path d="M6840 3758 c-120 -34 -178 -174 -121 -292 58 -118 203 -165 309 -99
91 56 118 167 66 271 -30 61 -74 98 -140 118 -54 16 -65 16 -114 2z"/>
<path d="M9885 3758 c-79 -22 -165 -136 -165 -219 0 -75 49 -152 117 -184 49
-24 130 -22 181 4 73 37 132 128 132 202 0 70 -50 153 -109 184 -38 19 -110
25 -156 13z"/>
<path d="M7320 2677 c-67 -35 -103 -93 -107 -170 -3 -51 0 -69 19 -101 48 -81
139 -126 230 -112 55 8 99 36 142 89 26 33 31 48 34 105 3 81 -20 130 -86 176
-37 26 -54 31 -115 34 -60 2 -80 -1 -117 -21z"/>
<path d="M9325 2681 c-118 -53 -159 -197 -85 -300 42 -58 100 -85 181 -86 90
0 152 37 192 114 15 30 27 66 27 80 0 118 -97 211 -220 211 -32 0 -72 -8 -95
-19z"/>
</g>
</svg>
