<?xml version="1.0" standalone="no"?>
<!DOCTYPE svg PUBLIC "-//W3C//DTD SVG 20010904//EN"
 "http://www.w3.org/TR/2001/REC-SVG-20010904/DTD/svg10.dtd">
<svg version="1.0" xmlns="http://www.w3.org/2000/svg"
 width="1238.000000pt" height="1610.000000pt" viewBox="0 0 1238.000000 1610.000000"
 preserveAspectRatio="xMidYMid meet">

<g transform="translate(0.000000,1610.000000) scale(0.100000,-0.100000)"
fill="#000000" stroke="none">
<path d="M9085 15005 c-938 -119 -1748 -776 -2167 -1760 -81 -190 -149 -402
-203 -639 -25 -109 -52 -169 -81 -180 -8 -3 -261 -10 -562 -16 -301 -5 -779
-14 -1062 -20 -283 -5 -780 -15 -1105 -21 -324 -5 -718 -14 -875 -18 -276 -7
-287 -8 -360 -35 -154 -56 -149 -56 -540 -56 -297 0 -379 -3 -440 -16 -133
-29 -373 -7 -570 52 -37 11 -98 17 -185 18 -112 1 -135 -2 -160 -18 -83 -52
-124 -118 -146 -231 -16 -85 -16 -291 1 -400 17 -120 1152 -5806 1961 -9830
132 -655 255 -1266 273 -1360 40 -200 56 -244 104 -286 76 -67 71 -67 732 -74
272 -3 623 -7 780 -10 706 -12 905 -15 1365 -20 270 -3 549 -8 621 -10 155 -7
216 4 268 46 67 56 77 88 151 509 14 80 47 271 74 425 28 154 62 348 76 430
14 83 55 312 90 510 72 406 301 1707 400 2275 142 810 180 1028 291 1660 63
360 137 781 164 935 73 413 161 914 230 1310 93 534 109 618 117 626 5 5 54
-11 108 -34 198 -86 378 -139 611 -179 174 -29 536 -32 719 -4 418 63 794 224
1150 490 165 124 451 412 570 573 419 571 641 1211 675 1943 34 749 -133 1433
-502 2055 -214 362 -548 718 -883 942 -324 216 -622 336 -1002 404 -154 28
-523 35 -688 14z m455 -605 c177 -19 390 -71 520 -127 427 -186 760 -469 1023
-874 65 -99 207 -369 207 -392 0 -11 -15 -20 -42 -28 -24 -6 -110 -32 -193
-59 -82 -26 -211 -67 -285 -90 -74 -23 -189 -59 -255 -80 -432 -139 -549 -173
-564 -163 -16 10 -47 88 -115 288 -19 55 -69 199 -111 320 -42 121 -114 328
-160 460 -46 132 -116 332 -155 445 -101 289 -102 293 -87 302 16 11 103 10
217 -2z m-841 -154 c7 -8 47 -117 90 -242 44 -126 109 -314 146 -419 37 -104
71 -201 75 -215 5 -14 47 -137 94 -274 47 -137 86 -251 86 -253 0 -11 -46 12
-287 144 -147 81 -448 245 -668 365 -220 120 -402 223 -403 228 -6 17 97 136
220 255 114 112 222 199 333 270 74 47 276 155 291 155 6 0 17 -6 23 -14z
m-1085 -1260 c460 -250 799 -437 810 -448 7 -7 36 -26 64 -43 29 -16 52 -33
52 -37 0 -5 -125 -9 -277 -9 -153 -1 -419 -4 -592 -8 -343 -7 -341 -7 -341 49
0 43 55 247 96 356 58 156 72 184 90 184 10 0 54 -20 98 -44z m3876 -608 c13
-31 37 -196 51 -352 18 -192 3 -606 -26 -734 -5 -20 -8 -21 -28 -11 -45 24
-1114 739 -1126 753 -13 16 -4 19 419 151 118 37 316 100 440 140 124 40 233
73 243 74 9 1 22 -9 27 -21z m-2464 -164 c96 -53 174 -101 174 -107 -1 -10
-265 -179 -336 -215 -21 -11 -21 -9 -27 97 -8 135 -31 250 -63 313 l-24 48 51
-20 c28 -11 129 -63 225 -116z m519 -666 c2 -13 11 -108 19 -213 9 -104 24
-300 36 -435 11 -135 27 -324 35 -420 8 -96 23 -283 34 -415 12 -132 30 -350
41 -485 11 -135 23 -273 26 -307 l7 -62 -39 -10 c-22 -6 -95 -15 -164 -20
-330 -27 -684 54 -1009 229 -97 52 -97 52 -67 222 31 177 44 251 151 863 47
270 92 509 101 533 11 30 29 51 62 74 79 55 745 468 754 468 4 0 10 -10 13
-22z m1217 -530 l560 -373 -5 -37 c-3 -20 -36 -99 -74 -175 -138 -274 -270
-460 -468 -659 -154 -155 -411 -351 -432 -331 -3 4 -16 136 -29 294 -26 322
-73 881 -110 1316 -27 329 -28 337 -13 337 6 0 263 -168 571 -372z m-2972 218
c0 -18 -383 -266 -411 -266 -14 0 -22 19 -38 89 -26 110 -27 157 -3 170 16 10
452 16 452 7z m-1136 -32 c24 -23 34 -53 57 -164 96 -466 297 -933 560 -1302
126 -176 304 -376 448 -503 50 -44 96 -92 102 -107 9 -23 1 -95 -45 -400 -31
-205 -79 -526 -106 -713 -156 -1052 -203 -1351 -213 -1363 -9 -11 -46 -13
-186 -8 -97 4 -477 13 -846 21 -368 9 -1041 24 -1495 35 -454 11 -1025 25
-1270 30 -245 6 -609 15 -810 20 -201 6 -456 10 -567 10 -227 0 -214 -5 -228
80 -4 25 -29 171 -56 325 -27 154 -58 332 -69 395 -11 63 -31 178 -45 255 -24
140 -173 1000 -221 1275 -14 80 -63 361 -110 625 -217 1225 -240 1369 -227
1398 l12 25 293 6 c161 4 608 11 993 16 385 6 963 15 1285 20 322 5 909 14
1305 20 396 6 734 12 750 13 17 1 174 4 351 6 295 3 322 2 338 -15z m1382
-740 c-67 -448 -86 -568 -90 -571 -10 -11 -121 128 -213 267 -90 136 -116 183
-112 205 2 10 47 45 99 78 221 140 335 207 338 198 2 -5 -8 -85 -22 -177z
m-4721 -4339 c572 -14 1425 -34 1895 -45 1777 -41 2145 -52 2154 -60 6 -6 1
-64 -12 -147 -12 -76 -51 -336 -86 -578 -36 -242 -104 -696 -150 -1010 -47
-313 -112 -754 -146 -980 -33 -225 -71 -484 -85 -575 -13 -91 -42 -286 -64
-435 -22 -148 -94 -636 -161 -1083 -66 -447 -120 -818 -120 -824 0 -10 -993
-6 -1500 7 -102 3 -376 7 -610 10 -1059 13 -1245 17 -1256 29 -6 6 -34 151
-63 321 -29 171 -68 396 -86 500 -41 237 -109 626 -141 810 -14 77 -47 273
-75 435 -27 162 -65 383 -84 490 -19 107 -50 285 -69 395 -43 252 -106 611
-245 1410 -61 347 -137 786 -171 977 -33 191 -60 354 -60 362 0 20 -118 21
1135 -9z"/>
<path d="M9746 13924 c-34 -34 -36 -98 -5 -138 20 -26 562 -494 699 -604 71
-57 108 -69 155 -46 50 24 69 83 43 139 -10 23 -689 613 -757 657 -40 27 -103
23 -135 -8z"/>
<path d="M8600 13725 c-58 -27 -282 -168 -312 -198 -38 -39 -39 -97 -2 -134
22 -22 32 -25 72 -21 37 4 77 23 187 91 169 103 200 132 200 187 0 72 -71 108
-145 75z"/>
<path d="M7607 12669 c-45 -37 -67 -77 -67 -122 0 -58 56 -98 117 -82 40 10
111 87 118 129 18 95 -87 142 -168 75z"/>
<path d="M10983 12198 c-12 -6 -29 -26 -39 -46 -21 -44 -12 -76 61 -222 59
-117 77 -138 127 -146 27 -5 40 -1 66 21 46 39 44 85 -11 200 -66 140 -87 173
-123 190 -37 17 -50 18 -81 3z"/>
<path d="M9087 10150 c-163 -19 -205 -29 -230 -58 -39 -44 -27 -111 24 -137
37 -20 92 -19 308 5 222 24 225 25 256 62 34 40 33 82 -4 119 -28 28 -33 29
-113 28 -46 -1 -154 -9 -241 -19z"/>
<path d="M10576 10619 c-34 -26 -44 -52 -62 -154 -16 -92 -8 -132 33 -165 32
-25 59 -25 100 0 39 23 62 89 70 202 6 76 5 77 -25 107 -37 37 -77 40 -116 10z"/>
<path d="M1863 10818 c-36 -17 -57 -68 -50 -124 3 -27 77 -389 166 -804 169
-797 446 -2097 561 -2636 37 -177 75 -335 84 -353 44 -84 152 -86 192 -3 21
44 19 54 -61 432 -95 441 -361 1694 -550 2585 -89 424 -169 790 -176 814 -18
61 -61 101 -107 100 -20 0 -47 -5 -59 -11z"/>
<path d="M2588 9341 c-31 -28 -33 -33 -32 -93 1 -40 32 -200 88 -443 131 -576
219 -964 281 -1240 31 -137 63 -261 72 -275 35 -56 90 -75 146 -49 31 14 57
59 57 99 0 28 -45 237 -190 875 -23 99 -70 308 -105 465 -92 410 -132 581
-143 611 -6 14 -25 38 -42 52 -43 37 -90 36 -132 -2z"/>
<path d="M5823 5540 c-399 -44 -722 -381 -799 -834 -22 -130 -15 -343 15 -463
77 -310 254 -549 501 -677 144 -75 212 -91 380 -91 124 0 156 4 220 24 348
109 598 411 666 806 20 111 14 343 -11 455 -22 102 -87 260 -141 347 -56 90
-177 220 -260 279 -167 119 -377 176 -571 154z m247 -257 c174 -48 325 -183
420 -378 80 -163 109 -326 89 -502 -31 -279 -177 -516 -386 -626 -93 -49 -170
-68 -273 -68 -157 0 -289 55 -415 173 -326 304 -346 888 -42 1215 123 131 226
185 388 201 103 10 137 8 219 -15z"/>
<path d="M5830 5283 c-50 -19 -72 -80 -46 -131 11 -21 40 -43 106 -76 173 -90
340 -238 396 -352 21 -44 29 -75 32 -138 6 -106 -14 -182 -78 -311 -58 -117
-61 -145 -21 -186 67 -67 148 -21 220 124 104 209 112 436 24 612 -109 216
-507 504 -633 458z"/>
<path d="M4763 3376 c-419 -102 -565 -664 -253 -975 108 -108 234 -161 381
-161 148 0 259 48 370 159 118 118 169 243 169 414 0 165 -56 304 -170 417
-136 135 -318 189 -497 146z m247 -242 c217 -101 264 -410 88 -581 -155 -150
-401 -98 -497 106 -22 48 -26 69 -26 151 0 120 20 175 89 249 68 72 130 101
221 101 54 0 83 -6 125 -26z"/>
<path d="M3530 2387 c-123 -42 -210 -106 -267 -195 -93 -144 -102 -305 -28
-458 89 -183 319 -299 524 -266 238 40 397 194 432 418 12 74 -7 181 -48 264
-52 106 -187 212 -317 246 -81 22 -219 18 -296 -9z m300 -235 c232 -118 154
-434 -113 -459 -190 -17 -342 138 -298 303 12 46 74 122 125 153 78 48 194 50
286 3z"/>
</g>
</svg>
