<?xml version="1.0" encoding="UTF-8"?>
<svg width="700pt" height="700pt" version="1.1" viewBox="0 0 700 700" xmlns="http://www.w3.org/2000/svg">
 <path d="m629.27 263.92c-3.668-37.039-21.121-71.344-48.902-96.113-27.781-24.77-63.855-38.188-101.07-37.598-44.508-0.30469-86.855 19.164-115.61 53.141l-13.688 15.98-13.688-15.98c-28.75-33.977-71.098-53.445-115.61-53.141-37.215-0.59375-73.289 12.828-101.07 37.594s-45.234 59.07-48.902 96.109c-0.48828 5.2891-0.73047 10.652-0.73438 16.09 0 5.4336 0.24609 10.809 0.73438 16.082 3.668 37.039 21.121 71.344 48.902 96.113 27.781 24.77 63.855 38.188 101.07 37.598 44.508 0.30469 86.855-19.16 115.61-53.141l13.688-15.98 13.32 15.551c26.637 31.188 64.773 50.242 105.7 52.816 40.93 2.5781 81.156-11.547 111.49-39.145 30.332-27.602 48.184-66.316 49.477-107.3l0.015625-2.5898c0-5.4336-0.24609-10.809-0.73438-16.082zm-34.281 18.27c-1.1836 31.441-15.027 61.07-38.387 82.148-23.363 21.074-54.254 31.809-85.652 29.758-31.395-2.0508-60.629-16.711-81.051-40.648-50.227-58.617-22.883-26.699-106.73-124.54-15.531-18.352-38.41-28.867-62.453-28.703-19.773-0.67969-39.066 6.1797-53.969 19.191-14.902 13.012-24.301 31.203-26.293 50.887-0.30078 3.2031-0.44922 6.4414-0.44531 9.7148 0 3.2656 0.14844 6.5 0.44531 9.707 1.9883 19.688 11.387 37.879 26.289 50.895 14.902 13.012 34.199 19.875 53.973 19.191 24.043 0.16406 46.922-10.352 62.453-28.703l20.738-24.195 23.051 26.891-17.215 20.09 0.003906-0.003906c-22.141 26.168-54.754 41.16-89.031 40.922-28.473 0.55078-56.113-9.6211-77.441-28.5-21.324-18.875-34.773-45.078-37.684-73.406-0.38672-4.2305-0.57812-8.5273-0.58203-12.887 0-4.3594 0.19531-8.6602 0.58203-12.902 2.9102-28.328 16.363-54.527 37.688-73.402 21.324-18.871 48.965-29.039 77.438-28.488 34.277-0.23828 66.891 14.754 89.031 40.922 52.023 60.707 31.375 36.605 106.73 124.54 14.336 16.844 34.906 27.141 56.984 28.516 22.078 1.3789 43.766-6.2773 60.086-21.207 16.324-14.934 25.871-35.859 26.457-57.973 0-3.2656-0.14844-6.5-0.44531-9.707-1.9883-19.688-11.387-37.879-26.289-50.895-14.902-13.012-34.199-19.875-53.973-19.191-24.043-0.16406-46.922 10.352-62.453 28.703l-20.738 24.195-23.051-26.887 17.215-20.09h-0.003906c22.141-26.168 54.754-41.16 89.031-40.922 28.473-0.55078 56.113 9.6211 77.441 28.5 21.324 18.875 34.773 45.078 37.684 73.406 0.38672 4.2305 0.58203 8.5273 0.58203 12.766zm-314.13-2.1875-24.27 28.309c-8.9219 10.543-22.066 16.582-35.879 16.484-11.008 0.54297-21.816-3.1016-30.242-10.207-8.4297-7.1055-13.852-17.141-15.176-28.082-0.19531-2.1562-0.28906-4.3164-0.28906-6.5039 0-2.1797 0.097656-4.3438 0.28906-6.4922 1.3242-10.945 6.7461-20.984 15.172-28.09 8.4258-7.1055 19.234-10.754 30.246-10.211 13.812-0.097656 26.957 5.9414 35.879 16.484zm138.29 0 24.27-28.309c8.9219-10.543 22.066-16.582 35.879-16.484 11.008-0.54297 21.816 3.1016 30.242 10.207 8.4297 7.1055 13.852 17.141 15.176 28.082 0.19531 2.1523 0.28906 4.3164 0.28906 6.2227-0.50781 12.551-6.0703 24.363-15.426 32.746-9.3516 8.3867-21.699 12.629-34.23 11.766-12.535-0.86328-24.184-6.7617-32.297-16.348z"/>
</svg>
