<?xml version="1.0" standalone="no"?>
<!DOCTYPE svg PUBLIC "-//W3C//DTD SVG 20010904//EN"
 "http://www.w3.org/TR/2001/REC-SVG-20010904/DTD/svg10.dtd">
<svg version="1.0" xmlns="http://www.w3.org/2000/svg"
 width="1178.000000pt" height="1560.000000pt" viewBox="0 0 1178.000000 1560.000000"
 preserveAspectRatio="xMidYMid meet">

<g transform="translate(0.000000,1560.000000) scale(0.100000,-0.100000)"
fill="#000000" stroke="none">
<path d="M2715 15449 c-359 -19 -744 -74 -1137 -164 -216 -50 -291 -94 -348
-205 -39 -76 -41 -154 -36 -1170 3 -536 8 -1702 11 -2590 3 -888 7 -2378 10
-3310 3 -932 8 -1720 11 -1750 7 -72 48 -230 73 -278 50 -99 140 -148 363
-197 788 -176 1582 -201 2463 -79 451 63 864 176 1262 345 193 82 613 295 983
498 600 330 946 480 1327 577 598 152 1137 134 1838 -61 107 -30 206 -62 219
-70 51 -33 50 204 6 -3000 -47 -3486 -47 -3420 -13 -3495 25 -54 73 -104 125
-131 45 -23 143 -26 192 -5 79 33 136 111 155 213 10 49 17 496 41 2298 5 413
12 914 15 1115 3 201 10 714 15 1140 15 1197 29 2208 35 2620 3 206 10 719 15
1140 20 1544 30 2273 35 2630 8 518 25 1892 28 2230 2 332 -4 369 -76 447 -53
58 -106 83 -177 83 -73 0 -127 -26 -200 -96 l-60 -57 -182 -54 c-715 -211
-1189 -259 -1723 -172 -476 78 -910 250 -1655 659 -794 436 -1147 589 -1649
715 -579 145 -1298 208 -1966 174z m7006 -2176 l22 -28 -7 -1215 c-3 -668 -8
-1687 -11 -2265 -8 -1697 -14 -2066 -31 -2093 -32 -49 -87 -41 -111 15 -13 33
-14 123 -9 748 3 390 8 1187 11 1770 12 2577 17 3029 31 3057 24 46 72 51 105
11z m-685 -1019 c16 -24 17 -95 11 -987 -4 -529 -9 -1349 -12 -1822 -3 -473
-8 -888 -11 -921 -6 -69 -29 -104 -69 -104 -61 0 -80 66 -71 244 3 61 9 602
12 1201 12 2088 17 2357 37 2388 24 37 79 38 103 1z m-671 -1009 c23 -22 25
-31 25 -127 0 -57 -9 -339 -20 -628 -29 -783 -31 -833 -37 -855 -10 -35 -35
-55 -70 -55 -28 0 -36 5 -50 34 -15 32 -14 86 11 778 15 409 29 763 32 787 6
46 40 91 69 91 9 0 27 -11 40 -25z"/>
</g>
</svg>
