<?xml version="1.0" standalone="no"?>
<!DOCTYPE svg PUBLIC "-//W3C//DTD SVG 20010904//EN"
 "http://www.w3.org/TR/2001/REC-SVG-20010904/DTD/svg10.dtd">
<svg version="1.0" xmlns="http://www.w3.org/2000/svg"
 width="844.000000pt" height="1546.000000pt" viewBox="0 0 844.000000 1546.000000"
 preserveAspectRatio="xMidYMid meet">

<g transform="translate(0.000000,1546.000000) scale(0.100000,-0.100000)"
fill="#000000" stroke="none">
<path d="M3025 15360 l-510 -5 -57 -28 c-95 -46 -142 -119 -159 -245 -8 -54
-8 -550 -2 -1662 l9 -1585 23 -57 c29 -73 95 -147 160 -178 28 -13 51 -28 50
-34 0 -6 -43 -42 -96 -80 -264 -191 -466 -386 -701 -678 -159 -197 -325 -462
-454 -723 -221 -450 -355 -913 -419 -1448 -30 -242 -32 -731 -6 -965 104 -917
438 -1711 988 -2347 190 -220 461 -463 693 -620 47 -32 86 -63 86 -69 0 -6
-23 -31 -51 -55 -33 -29 -61 -64 -78 -100 l-26 -56 3 -1860 c1 -1318 5 -1876
13 -1915 16 -77 40 -120 99 -173 99 -89 -58 -82 1760 -80 1139 2 1623 6 1667
14 124 22 218 107 242 219 12 58 13 2303 2 3235 -8 615 -7 604 -81 687 -20 24
-63 56 -94 71 -31 16 -56 32 -56 37 0 4 42 37 93 74 812 577 1362 1465 1577
2546 73 367 97 883 59 1265 -123 1250 -715 2323 -1650 2986 -54 38 -99 73 -99
78 0 4 21 26 48 48 62 53 99 122 113 214 16 103 -3 3228 -19 3279 -19 59 -68
126 -115 159 -93 63 -42 61 -1332 59 -643 -1 -1399 -5 -1680 -8z m2614 -500
c10 -5 21 -24 24 -42 3 -18 7 -635 9 -1371 3 -1315 3 -1339 -16 -1353 -29 -20
-618 -19 -944 2 -257 17 -661 14 -877 -7 -159 -15 -978 -24 -1002 -11 -12 7
-23 25 -26 44 -3 18 -7 635 -9 1370 -2 1087 -1 1339 10 1350 10 10 160 14 725
18 1393 10 2088 10 2106 0z m-954 -3310 c511 -49 1095 -349 1535 -791 598
-598 966 -1445 1030 -2369 11 -165 4 -510 -15 -685 -61 -575 -249 -1137 -533
-1600 -186 -302 -449 -605 -702 -810 -395 -320 -811 -511 -1290 -592 -150 -25
-648 -25 -800 1 -760 127 -1432 575 -1899 1266 -470 695 -702 1572 -641 2425
57 801 325 1514 788 2100 107 136 348 377 497 497 371 301 873 522 1265 557
139 12 637 13 765 1z m1059 -7412 c13 -20 16 -237 22 -1609 7 -1579 7 -1586
-13 -1606 -20 -20 -37 -20 -1364 -27 -912 -5 -1353 -4 -1371 3 -20 7 -28 19
-32 43 -3 18 -8 738 -12 1599 l-6 1567 23 23 22 22 791 -6 c435 -3 859 -2 941
2 83 4 338 8 567 9 l418 2 14 -22z"/>
<path d="M3830 14440 c-537 -5 -599 -7 -639 -23 -106 -42 -155 -110 -156 -217
0 -116 65 -193 190 -225 52 -13 182 -15 955 -15 492 1 949 5 1015 10 150 11
212 38 263 115 33 48 34 53 30 132 -3 73 -6 85 -34 120 -37 45 -83 78 -133 95
-42 13 -561 16 -1491 8z"/>
<path d="M4192 11469 c-19 -5 -53 -30 -77 -54 -81 -80 -87 -142 -60 -615 32
-575 38 -610 103 -682 45 -50 102 -77 163 -78 134 0 223 90 236 239 11 130
-38 938 -62 1017 -20 67 -51 112 -103 148 -34 24 -54 31 -105 33 -34 1 -77 -2
-95 -8z"/>
<path d="M5859 10495 c-58 -30 -143 -118 -336 -346 -677 -801 -929 -1096 -950
-1110 -22 -15 -31 -15 -76 -3 -205 55 -404 3 -562 -148 -193 -183 -295 -453
-295 -784 0 -209 38 -380 120 -546 50 -101 86 -152 157 -223 238 -240 557
-253 810 -33 26 22 49 35 58 31 9 -3 94 -99 190 -214 97 -115 196 -224 222
-244 129 -98 295 -75 370 52 23 40 28 59 28 118 0 117 -13 137 -372 566 -90
107 -170 209 -179 228 -12 25 -16 54 -13 105 7 134 0 321 -15 401 -9 44 -32
130 -53 192 l-37 111 26 39 c22 33 339 409 933 1108 310 364 320 379 320 500
-1 78 -15 113 -67 165 -45 45 -86 60 -165 60 -52 -1 -79 -7 -114 -25z"/>
<path d="M2975 10491 c-157 -39 -232 -208 -157 -352 89 -171 320 -180 417 -15
57 97 43 217 -34 297 -63 64 -144 90 -226 70z"/>
<path d="M1865 8851 c-22 -10 -53 -31 -68 -47 -77 -77 -83 -134 -57 -502 29
-426 37 -463 102 -538 87 -99 249 -99 334 -1 58 65 68 118 61 312 -10 239 -35
529 -52 598 -8 32 -28 78 -45 102 -58 84 -182 119 -275 76z"/>
<path d="M6535 8644 c-48 -25 -93 -74 -112 -123 -16 -40 -18 -78 -16 -291 3
-421 21 -530 105 -605 51 -47 75 -55 157 -55 57 0 74 4 113 29 26 17 57 48 72
73 43 74 48 149 32 478 -12 256 -17 303 -36 353 -42 112 -104 157 -217 157
-42 0 -80 -6 -98 -16z"/>
<path d="M2800 6574 c-123 -53 -174 -208 -105 -320 19 -30 49 -60 79 -79 42
-25 59 -30 116 -30 57 0 74 5 116 30 30 19 60 49 79 79 69 113 17 269 -107
320 -47 20 -132 20 -178 0z"/>
<path d="M5970 6563 c-206 -108 -167 -434 59 -500 160 -46 311 74 311 246 0
154 -102 268 -248 278 -59 4 -73 2 -122 -24z"/>
<path d="M4274 6201 c-52 -24 -101 -83 -119 -145 -18 -60 -19 -237 -5 -686 11
-342 18 -400 59 -474 87 -163 324 -147 402 26 24 52 24 58 22 313 -4 405 -20
752 -37 810 -21 68 -68 129 -119 154 -55 27 -146 28 -203 2z"/>
</g>
</svg>
