<svg width="449" height="675" viewBox="0 0 449 675" fill="none" xmlns="http://www.w3.org/2000/svg">
<path d="M0 0H449V675H0V0Z" fill="#AEE2FB"/>
<path fill-rule="evenodd" clip-rule="evenodd" d="M142.204 493.414C141.941 494.155 141.699 494.895 141.48 495.635L140.319 495.291C140.545 494.53 140.793 493.769 141.064 493.008L142.204 493.414ZM140.407 500.138C140.129 501.675 139.941 503.207 139.837 504.73L138.629 504.648C138.736 503.08 138.93 501.504 139.216 499.922L140.407 500.138ZM139.777 509.359C139.842 510.91 139.99 512.45 140.216 513.974L139.018 514.151C138.786 512.586 138.634 511.004 138.568 509.409L139.777 509.359ZM141.126 518.524C141.504 520.024 141.955 521.507 142.472 522.968L141.33 523.372C140.801 521.876 140.34 520.358 139.952 518.819L141.126 518.524ZM144.213 527.277C144.854 528.688 145.555 530.073 146.309 531.43L145.251 532.019C144.482 530.634 143.766 529.219 143.111 527.778L144.213 527.277ZM186.498 532.802C184.902 532.907 183.341 533.216 181.874 533.743L181.465 532.604C183.047 532.035 184.72 531.706 186.418 531.594L186.498 532.802ZM195.804 534.406C194.347 533.792 192.807 533.34 191.239 533.067L191.447 531.874C193.104 532.163 194.732 532.641 196.273 533.29L195.804 534.406ZM177.787 536.015C176.612 536.96 175.573 538.125 174.72 539.529L173.685 538.9C174.612 537.375 175.745 536.104 177.028 535.072L177.787 536.015ZM148.724 535.41C149.58 536.708 150.482 537.975 151.426 539.206L150.465 539.942C149.505 538.689 148.585 537.399 147.714 536.077L148.724 535.41ZM203.236 540.095C202.331 538.842 201.206 537.723 199.922 536.757L200.65 535.789C202.021 536.821 203.234 538.025 204.217 539.385L203.236 540.095ZM154.387 542.806C155.419 543.978 156.487 545.111 157.584 546.2L156.731 547.059C155.615 545.951 154.529 544.799 153.479 543.606L154.387 542.806ZM172.916 543.88C172.551 545.291 172.322 546.856 172.254 548.582L171.044 548.535C171.115 546.73 171.356 545.079 171.744 543.577L172.916 543.88ZM205.587 548.926C205.769 547.278 205.639 545.726 205.253 544.286L206.422 543.973C206.847 545.56 206.989 547.263 206.79 549.06L205.587 548.926ZM160.998 549.374C162.182 550.403 163.389 551.383 164.612 552.309L163.881 553.274C162.636 552.331 161.408 551.334 160.204 550.287L160.998 549.374ZM172.802 555.778C172.657 554.953 172.541 554.152 172.453 553.377L171.25 553.514C171.342 554.321 171.463 555.153 171.613 556.009L171.617 556.03L171.622 556.051C171.707 556.392 171.788 556.733 171.865 557.074C170.716 556.43 169.567 555.735 168.426 554.992L167.766 556.007C169.118 556.887 170.481 557.701 171.846 558.446L172.072 558.033C172.09 558.121 172.108 558.21 172.125 558.298L173.313 558.063C173.162 557.303 172.992 556.541 172.802 555.778ZM203.277 555.604C203.691 554.879 204.046 554.168 204.347 553.469L205.459 553.947C205.14 554.69 204.764 555.442 204.329 556.204C203.911 556.935 203.451 557.612 202.953 558.234L202.008 557.478C202.466 556.906 202.89 556.282 203.277 555.604ZM176.591 559.431C178.054 560.07 179.505 560.619 180.935 561.073L180.568 562.227C179.096 561.759 177.605 561.195 176.106 560.54L176.591 559.431ZM194.505 562.133C196.01 561.772 197.403 561.211 198.66 560.44L199.293 561.472C197.918 562.316 196.405 562.922 194.787 563.31L194.505 562.133ZM185.413 562.193C186.993 562.476 188.525 562.623 189.991 562.628L189.987 563.838C188.443 563.833 186.841 563.678 185.2 563.385L185.413 562.193ZM173.996 562.726C174.146 564.306 174.215 565.876 174.205 567.434L172.994 567.426C173.004 565.909 172.938 564.38 172.791 562.841L173.996 562.726ZM173.935 572.141C173.766 573.71 173.518 575.262 173.196 576.793L172.011 576.544C172.325 575.052 172.567 573.539 172.732 572.01L173.935 572.141ZM172.004 581.352C171.534 582.853 170.993 584.328 170.386 585.775L169.269 585.306C169.862 583.894 170.39 582.454 170.849 580.99L172.004 581.352ZM57.8739 586.066C57.1126 586.043 56.3335 586.045 55.5358 586.072C54.7576 586.098 53.9806 586.147 53.2053 586.217L53.0961 585.012C53.8936 584.94 54.6933 584.889 55.4947 584.862C56.3177 584.834 57.1224 584.833 57.9098 584.856L57.8739 586.066ZM67.0005 587.65C65.5713 587.175 64.0757 586.795 62.5013 586.524L62.7065 585.331C64.3418 585.612 65.8964 586.008 67.382 586.501L67.0005 587.65ZM48.5802 586.886C47.0541 587.187 45.5383 587.564 44.0361 588.008L43.6927 586.847C45.2287 586.393 46.781 586.007 48.3459 585.698L48.5802 586.886ZM75.3063 591.784C74.0165 590.923 72.6814 590.133 71.2863 589.433L71.8294 588.351C73.2739 589.076 74.6521 589.892 75.9783 590.777L75.3063 591.784ZM39.6 589.524C38.144 590.088 36.7053 590.708 35.2872 591.378L34.7702 590.283C36.2129 589.602 37.6784 588.97 39.1631 588.395L39.6 589.524ZM168.369 590.028C167.634 591.414 166.837 592.768 165.984 594.085L164.968 593.427C165.802 592.139 166.581 590.816 167.299 589.461L168.369 590.028ZM31.1045 593.522C29.7286 594.282 28.3773 595.082 27.054 595.914L26.4096 594.89C27.751 594.046 29.1221 593.234 30.5191 592.462L31.1045 593.522ZM82.6144 597.648C81.4526 596.583 80.2744 595.55 79.0647 594.569L79.8274 593.629C81.0607 594.63 82.2578 595.679 83.4325 596.756L82.6144 597.648ZM163.261 597.922C162.301 599.162 161.289 600.361 160.229 601.518L159.337 600.7C160.374 599.568 161.365 598.394 162.304 597.181L163.261 597.922ZM23.135 598.523C21.8372 599.435 20.573 600.371 19.3464 601.322L18.6049 600.365C19.8457 599.403 21.125 598.456 22.4391 597.533L23.135 598.523ZM87.6243 602.446C87.0926 601.925 86.5621 601.406 86.0369 600.896L86.8807 600.028C87.4176 600.55 87.947 601.068 88.4759 601.585C89.0712 602.168 89.6658 602.749 90.2699 603.336L89.4269 604.204C88.8285 603.624 88.2256 603.034 87.6243 602.446ZM15.6879 604.288C14.4608 605.328 13.2815 606.373 12.1548 607.412L11.3341 606.522C12.4728 605.472 13.6648 604.416 14.9053 603.365L15.6879 604.288ZM156.914 604.854C155.764 605.92 154.572 606.94 153.341 607.91L152.592 606.959C153.797 606.009 154.965 605.011 156.091 603.966L156.914 604.854ZM96.4931 610.59C95.2545 609.589 94.055 608.543 92.8812 607.472L93.6973 606.578C94.858 607.637 96.0386 608.667 97.2539 609.648L96.4931 610.59ZM149.531 610.668C148.224 611.536 146.882 612.351 145.51 613.107L144.926 612.047C146.268 611.307 147.581 610.51 148.862 609.66L149.531 610.668ZM8.75566 610.68C7.59175 611.847 6.50459 612.989 5.50139 614.088L4.60733 613.272C5.62256 612.16 6.72203 611.005 7.89855 609.825L8.75566 610.68ZM104.481 615.875C103.04 615.14 101.665 614.321 100.343 613.437L101.016 612.431C102.303 613.291 103.637 614.085 105.031 614.797L104.481 615.875ZM141.298 615.203C139.863 615.844 138.403 616.421 136.922 616.933L136.526 615.789C137.974 615.289 139.402 614.724 140.805 614.098L141.298 615.203ZM113.551 619.032C111.926 618.712 110.381 618.286 108.904 617.771L109.303 616.628C110.727 617.125 112.218 617.535 113.785 617.844L113.551 619.032ZM2.41578 617.644C1.89052 618.283 1.40503 618.896 0.961267 619.476L0 618.74C0.452659 618.148 0.946738 617.525 1.48015 616.876L2.41578 617.644ZM132.408 618.269C130.882 618.646 129.341 618.953 127.787 619.185L127.609 617.987C129.124 617.761 130.628 617.462 132.117 617.094L132.408 618.269ZM120.741 619.713C119.919 619.713 119.115 619.688 118.329 619.64L118.402 618.432C119.164 618.478 119.944 618.502 120.741 618.502C121.508 618.502 122.274 618.483 123.038 618.444L123.099 619.653C122.315 619.693 121.529 619.713 120.741 619.713Z" fill="#1786FF"/>
<path d="M162.571 446L121.906 487.619L144.901 483.318L156.296 503.396L162.571 446Z" fill="#55CAEF"/>
<path d="M315.088 173.39C313.695 193.723 329.045 211.36 349.361 212.754C360.26 213.511 370.403 209.42 377.639 202.36L393.686 203.39L384.391 193.451C386.843 188.966 388.357 183.875 388.75 178.451C390.113 158.118 374.763 140.482 354.447 139.088C334.132 137.694 316.511 153.057 315.118 173.39H315.088Z" fill="#1786FF"/>
<path d="M330.598 94.3904C331.99 114.723 316.64 132.36 296.325 133.754C285.425 134.511 275.283 130.42 268.047 123.36L252 124.39L261.295 114.451C258.842 109.966 257.329 104.875 256.935 99.451C255.573 79.1179 270.923 61.4818 291.238 60.0878C311.554 58.6939 329.175 74.0574 330.567 94.3904H330.598Z" fill="#55CAEF"/>
<path d="M381.671 510.683L344.503 477.873L294.48 487.32C293.915 518.015 299.816 564.601 318.31 575.625C341.647 574.293 368.719 538.058 381.671 510.683Z" fill="white"/>
<path d="M339.915 303.338L133.776 267.848C131.054 267.38 128.468 269.206 128 271.928L117.848 330.892C117.38 333.613 119.206 336.199 121.927 336.668L328.067 372.157C330.788 372.626 333.374 370.8 333.843 368.078L343.994 309.114C344.463 306.393 342.637 303.807 339.915 303.338Z" fill="white"/>
<path d="M298.187 367.006L304.394 380.595L313.575 369.651L298.187 367.006Z" fill="white"/>
<path d="M164.681 307.824C164.132 310.911 161.185 312.968 158.099 312.419C155.013 311.871 152.956 308.924 153.504 305.838C154.053 302.751 157 300.694 160.086 301.243C163.172 301.792 165.229 304.738 164.681 307.824Z" fill="black"/>
<path d="M199.144 313.953C198.596 317.039 195.649 319.096 192.563 318.548C189.476 317.999 187.419 315.052 187.968 311.966C188.516 308.88 191.463 306.823 194.549 307.371C197.636 307.92 199.693 310.867 199.144 313.953Z" fill="black"/>
<path d="M233.604 320.081C233.055 323.168 230.108 325.225 227.022 324.676C223.936 324.127 221.879 321.181 222.427 318.094C222.976 315.008 225.923 312.951 229.009 313.5C232.095 314.048 234.152 316.995 233.604 320.081Z" fill="black"/>
<path d="M268.067 326.202C267.519 329.288 264.572 331.345 261.486 330.797C258.399 330.248 256.342 327.301 256.891 324.215C257.439 321.129 260.386 319.072 263.472 319.62C266.559 320.169 268.616 323.116 268.067 326.202Z" fill="black"/>
<path d="M302.527 332.33C301.978 335.417 299.031 337.474 295.945 336.925C292.859 336.376 290.802 333.43 291.35 330.343C291.899 327.257 294.846 325.2 297.932 325.749C301.018 326.297 303.075 329.244 302.527 332.33Z" fill="black"/>
<path d="M51.3309 83.0458C49.5626 76.6074 53.3485 69.9545 59.7869 68.1862L113.505 53.4324C119.943 51.6641 126.596 55.4499 128.364 61.8884L159.526 175.347C161.294 181.785 157.509 188.438 151.07 190.206L97.3521 204.96C90.9137 206.728 84.2609 202.942 82.4925 196.504L51.3309 83.0458Z" fill="#218BFF"/>
<path d="M57.605 85.6983C56.4998 81.6743 58.8659 77.5163 62.8899 76.4111L114.308 62.289C118.332 61.1838 122.49 63.5499 123.595 67.5739L152.119 171.429C153.224 175.453 150.858 179.611 146.834 180.716L95.4162 194.838C91.3922 195.943 87.2342 193.577 86.129 189.553L57.605 85.6983Z" fill="#F5F5F5"/>
<path d="M84.6244 184.15L150.765 166.428L152.185 171.727C153.265 175.758 150.873 179.901 146.842 180.981L95.2985 194.793C91.2677 195.873 87.1245 193.481 86.0445 189.45L84.6244 184.15Z" fill="white"/>
<path d="M124.204 174.405C125.02 177.449 123.213 180.578 120.169 181.394C117.125 182.21 113.996 180.403 113.181 177.359C112.365 174.315 114.172 171.186 117.216 170.371C120.26 169.555 123.389 171.361 124.204 174.405Z" fill="#55CAEF"/>
<path d="M116.096 175.612C115.88 174.806 116.358 173.977 117.164 173.761L118.969 173.278C119.775 173.062 120.604 173.54 120.82 174.346L121.304 176.151C121.52 176.958 121.041 177.786 120.235 178.002L118.43 178.486C117.624 178.702 116.795 178.223 116.579 177.417L116.096 175.612Z" fill="#EFEFEF"/>
<path d="M117.703 175.316L119.278 174.894L119.7 176.469L118.125 176.891L117.703 175.316Z" fill="#55CAEF"/>
<path d="M97.3052 187.392C97.0892 186.586 97.5676 185.757 98.3737 185.541L98.6039 185.48C99.4101 185.264 100.239 185.742 100.455 186.548L100.516 186.778C100.732 187.585 100.254 188.413 99.4478 188.629L99.2177 188.691C98.4115 188.907 97.5829 188.429 97.3669 187.622L97.3052 187.392Z" fill="#218BFF"/>
<path d="M106.754 184.855C106.538 184.049 107.016 183.22 107.823 183.004L108.053 182.942C108.859 182.726 109.688 183.205 109.904 184.011L109.965 184.241C110.181 185.047 109.703 185.876 108.897 186.092L108.667 186.154C107.86 186.37 107.032 185.891 106.816 185.085L106.754 184.855Z" fill="#218BFF"/>
<path d="M130.378 178.521C130.162 177.715 130.64 176.886 131.446 176.67L131.677 176.608C132.483 176.392 133.311 176.871 133.527 177.677L133.589 177.907C133.805 178.713 133.327 179.542 132.521 179.758L132.29 179.82C131.484 180.036 130.656 179.557 130.44 178.751L130.378 178.521Z" fill="#218BFF"/>
<path d="M139.83 176.002C139.614 175.196 140.092 174.368 140.898 174.152L141.129 174.09C141.935 173.874 142.763 174.352 142.979 175.158L143.041 175.389C143.257 176.195 142.779 177.023 141.973 177.239L141.742 177.301C140.936 177.517 140.108 177.039 139.892 176.232L139.83 176.002Z" fill="#218BFF"/>
</svg>
