<?xml version="1.0" standalone="no"?>
<!DOCTYPE svg PUBLIC "-//W3C//DTD SVG 20010904//EN"
 "http://www.w3.org/TR/2001/REC-SVG-20010904/DTD/svg10.dtd">
<svg version="1.0" xmlns="http://www.w3.org/2000/svg"
 width="742.000000pt" height="701.000000pt" viewBox="0 0 742.000000 701.000000"
 preserveAspectRatio="xMidYMid meet">

<g transform="translate(0.000000,701.000000) scale(0.100000,-0.100000)"
fill="#000000" stroke="none">
<path d="M2235 6054 c-426 -57 -832 -231 -1160 -497 -44 -36 -139 -125 -211
-198 -308 -314 -516 -740 -580 -1185 -20 -142 -23 -407 -5 -544 64 -486 271
-904 616 -1245 343 -339 734 -538 1232 -626 162 -29 463 -36 633 -16 133 16
154 13 166 -25 3 -13 28 -67 55 -120 303 -608 865 -1016 1579 -1150 137 -25
473 -35 631 -19 908 94 1669 717 1889 1545 51 192 64 292 63 501 0 327 -59
577 -203 866 -94 188 -199 336 -345 488 -444 462 -1064 705 -1726 676 -123 -5
-158 -4 -166 7 -5 7 -29 65 -52 129 -278 767 -1001 1322 -1846 1419 -124 14
-449 11 -570 -6z m635 -279 c640 -108 1167 -488 1444 -1042 70 -139 113 -260
100 -280 -9 -14 -129 -56 -201 -69 -36 -7 -33 -14 -51 111 -16 103 -77 219
-160 303 -204 205 -512 233 -760 68 -109 -72 -199 -206 -233 -346 -17 -71 -17
-210 0 -280 32 -133 142 -281 267 -360 75 -47 75 -40 -13 -145 -90 -106 -145
-185 -210 -296 l-58 -101 -75 6 c-41 3 -268 13 -505 21 -236 8 -511 20 -610
25 -291 16 -329 14 -382 -16 -67 -40 -75 -76 -47 -212 37 -178 126 -343 264
-486 233 -243 547 -357 896 -326 64 6 141 19 172 29 31 11 59 18 63 15 4 -2
10 -39 13 -81 4 -43 14 -122 22 -176 9 -54 13 -101 10 -104 -11 -12 -96 -22
-226 -29 -484 -24 -983 139 -1361 444 -42 34 -123 110 -180 170 -334 349 -509
785 -509 1269 0 342 90 659 271 960 61 101 223 306 300 379 327 311 749 509
1199 564 110 13 448 4 560 -15z m824 -1095 c114 -43 194 -150 203 -272 6 -79
-9 -137 -46 -177 -37 -40 -65 -39 -144 0 -110 56 -276 111 -357 118 l-75 6 -3
43 c-9 118 96 252 228 293 49 14 138 9 194 -11z m1571 -466 c276 -36 578 -149
815 -306 430 -284 713 -727 780 -1216 16 -121 14 -340 -5 -465 -98 -652 -585
-1207 -1255 -1431 -500 -167 -1044 -136 -1512 86 -224 107 -379 219 -553 399
-188 194 -316 404 -390 639 -25 80 -51 159 -59 175 -17 39 -39 324 -34 445 6
136 59 382 113 525 91 240 124 290 363 552 102 111 216 203 372 299 36 22 92
57 125 78 33 20 88 50 122 66 81 39 323 121 334 115 9 -6 247 33 263 43 39 23
327 22 521 -4z m-3430 -989 c99 -4 342 -15 540 -26 198 -10 397 -19 443 -19
61 0 84 -4 88 -14 3 -8 -8 -54 -24 -102 -36 -107 -78 -294 -87 -386 -4 -38
-10 -68 -14 -68 -4 0 -18 25 -30 55 -31 73 -106 154 -194 209 -119 73 -201 84
-334 41 -125 -39 -207 -104 -257 -202 -29 -58 -45 -58 -128 -5 -85 56 -139
114 -215 230 -67 101 -147 268 -139 288 5 13 20 15 89 10 45 -3 163 -8 262
-11z"/>
<path d="M1370 5024 c-133 -35 -246 -115 -319 -227 -154 -236 -122 -538 77
-733 87 -86 251 -154 372 -154 129 0 274 64 375 165 219 218 223 574 9 795
-137 142 -335 201 -514 154z m248 -290 c98 -48 160 -166 149 -283 -3 -31 -11
-69 -18 -85 -13 -28 -14 -28 -74 -21 -107 12 -329 21 -373 15 -57 -9 -66 5
-71 102 -3 72 0 85 28 143 72 147 217 198 359 129z"/>
<path d="M3855 3422 c-206 -61 -374 -238 -415 -438 -18 -84 -8 -245 18 -318
51 -141 153 -258 282 -325 137 -72 270 -88 412 -52 200 51 341 179 416 379 22
58 26 83 26 187 0 99 -4 131 -23 185 -61 173 -195 309 -367 372 -82 30 -263
35 -349 10z m251 -267 c78 -23 143 -80 183 -158 30 -58 34 -76 34 -139 0 -77
-28 -163 -57 -174 -8 -3 -60 4 -115 15 -55 12 -130 21 -168 21 -102 0 -246 19
-262 34 -18 19 -26 132 -12 183 6 22 26 63 44 89 81 119 218 170 353 129z"/>
<path d="M5792 3240 c-212 -57 -371 -220 -426 -436 -20 -78 -21 -232 -1 -309
53 -210 226 -387 431 -440 75 -19 213 -19 289 0 201 52 367 215 429 423 61
207 -1 447 -154 603 -114 116 -233 168 -395 175 -78 3 -116 0 -173 -16z m285
-286 c67 -32 136 -109 163 -182 31 -80 25 -205 -12 -278 -42 -80 -38 -79 -192
-55 -75 12 -178 21 -231 21 -64 0 -105 5 -124 14 -37 20 -56 81 -56 181 0 71
4 89 33 147 80 164 261 229 419 152z"/>
<path d="M3894 1631 c-48 -22 -84 -64 -84 -98 0 -63 76 -142 147 -154 26 -4
257 -8 513 -9 256 -1 620 -5 810 -10 312 -7 348 -6 374 9 52 29 71 65 71 136
0 57 -3 67 -30 95 -39 41 -88 53 -167 40 -36 -5 -164 -8 -303 -5 -132 3 -476
7 -765 10 -495 4 -527 3 -566 -14z"/>
</g>
</svg>
