<?xml version="1.0" standalone="no"?>
<!DOCTYPE svg PUBLIC "-//W3C//DTD SVG 20010904//EN"
 "http://www.w3.org/TR/2001/REC-SVG-20010904/DTD/svg10.dtd">
<svg version="1.0" xmlns="http://www.w3.org/2000/svg"
 width="1612.000000pt" height="1565.000000pt" viewBox="0 0 1612.000000 1565.000000"
 preserveAspectRatio="xMidYMid meet">

<g transform="translate(0.000000,1565.000000) scale(0.100000,-0.100000)"
fill="#000000" stroke="none">
<path d="M7909 14816 c-2 -2 -74 -6 -159 -9 -269 -11 -675 -55 -927 -102 -46
-8 -118 -21 -160 -29 -293 -55 -642 -145 -948 -247 -110 -37 -359 -126 -400
-144 -16 -7 -102 -43 -190 -80 -88 -37 -171 -73 -185 -80 -14 -7 -92 -46 -175
-85 -245 -117 -562 -295 -799 -448 -56 -36 -103 -68 -106 -71 -3 -3 -25 -19
-50 -35 -56 -36 -324 -231 -365 -265 -17 -15 -48 -39 -70 -56 -41 -32 -237
-195 -245 -204 -3 -3 -25 -24 -50 -45 -234 -202 -384 -353 -646 -646 -69 -78
-232 -274 -285 -344 -381 -507 -601 -869 -859 -1421 -217 -463 -423 -1118
-511 -1622 -5 -29 -14 -79 -19 -110 -9 -52 -18 -110 -34 -223 -41 -287 -59
-556 -60 -895 -1 -418 8 -578 55 -950 18 -139 28 -207 70 -435 16 -92 88 -398
114 -485 14 -49 35 -121 46 -160 11 -38 47 -151 80 -250 154 -453 334 -849
596 -1306 57 -98 232 -376 255 -404 5 -5 58 -80 119 -165 371 -520 834 -1007
1357 -1427 81 -65 157 -125 168 -133 12 -8 75 -54 140 -101 108 -78 280 -196
329 -226 11 -7 79 -48 150 -91 258 -158 572 -324 805 -426 47 -21 103 -46 125
-56 399 -179 970 -363 1430 -460 127 -27 395 -76 458 -85 27 -4 59 -8 70 -11
25 -5 158 -21 232 -29 75 -7 144 -14 200 -20 252 -24 812 -35 1060 -20 656 39
1185 127 1770 294 252 73 577 186 790 276 17 7 82 34 145 61 117 49 535 255
645 317 132 75 259 150 352 209 109 68 335 219 343 228 3 3 43 33 90 65 118
83 357 272 466 369 50 45 126 113 170 151 187 165 491 484 678 710 64 77 134
159 155 183 l38 42 48 -21 c57 -25 173 -29 226 -6 158 66 198 280 79 428 -16
21 -30 46 -30 56 0 10 24 54 54 98 154 230 406 716 538 1035 21 52 45 109 53
125 20 46 102 274 150 420 115 347 217 781 261 1105 3 25 7 47 9 50 2 3 6 28
9 55 3 28 12 106 21 175 8 69 17 170 21 225 9 125 14 140 62 164 84 43 141
139 142 237 0 110 -44 192 -131 246 -47 30 -48 31 -53 92 -3 33 -8 124 -11
201 -4 77 -8 156 -10 175 -3 19 -10 89 -16 155 -9 101 -49 393 -63 460 -2 11
-9 54 -16 95 -19 114 -107 492 -141 605 -120 393 -136 441 -230 680 -93 234
-278 626 -397 840 -57 104 -115 201 -136 230 -19 27 -21 41 -18 133 2 87 -1
110 -19 153 -28 64 -87 115 -158 135 -31 9 -67 21 -80 27 -14 7 -74 78 -135
158 -212 279 -389 482 -651 744 -184 184 -271 266 -380 360 -38 33 -76 65 -83
72 -7 7 -34 29 -60 50 -26 21 -49 40 -52 43 -17 17 -122 99 -230 179 -69 51
-133 99 -143 107 -25 21 -414 276 -462 304 -22 12 -53 30 -70 40 -16 9 -57 33
-90 53 -347 203 -846 432 -1275 584 -313 110 -853 254 -1145 303 -27 5 -88 16
-135 24 -158 27 -505 68 -690 81 -47 3 -107 8 -135 11 -60 6 -680 15 -686 10z
m-29 -575 c0 -6 -4 -12 -9 -16 -18 -10 -157 -190 -206 -265 -93 -143 -221
-409 -295 -615 -18 -49 -36 -99 -41 -110 -24 -57 -130 -406 -169 -560 -62
-240 -150 -647 -191 -885 -44 -258 -59 -347 -65 -390 -3 -25 -8 -47 -9 -50 -2
-3 -6 -33 -10 -65 -3 -33 -13 -98 -20 -145 -15 -92 -51 -367 -60 -465 -11
-107 -36 -300 -41 -317 -6 -22 -1 -22 -221 -3 -778 67 -1617 226 -2353 447
-419 125 -755 260 -1035 416 -160 88 -278 172 -455 321 -36 31 -67 56 -69 58
-8 5 9 49 26 68 10 11 38 45 63 75 25 30 57 68 71 85 15 16 48 55 74 85 55 64
401 416 501 510 98 91 388 331 529 437 161 121 453 316 620 413 165 96 276
156 446 242 205 102 685 308 719 308 6 0 18 4 28 10 63 35 659 213 791 236 14
3 51 11 81 19 30 7 96 21 145 30 50 9 135 25 190 36 317 59 965 120 965 90z
m1205 -46 c275 -29 814 -145 1125 -240 218 -67 574 -196 705 -254 11 -5 74
-33 140 -61 118 -52 411 -194 470 -229 17 -10 55 -32 85 -48 126 -70 252 -144
309 -182 33 -23 62 -41 65 -41 7 0 269 -178 336 -228 184 -137 418 -324 520
-416 304 -277 594 -580 765 -800 17 -21 35 -44 41 -50 35 -37 194 -259 194
-272 0 -38 -405 -258 -678 -369 -419 -169 -964 -325 -1572 -450 -166 -34 -597
-110 -684 -121 -23 -2 -124 -16 -226 -29 -226 -30 -663 -70 -683 -62 -10 4
-18 26 -22 64 -3 32 -12 114 -20 183 -8 69 -17 150 -21 180 -8 87 -38 309 -49
380 -3 14 -10 61 -15 105 -30 217 -101 628 -151 865 -20 96 -75 344 -86 390
-3 14 -7 30 -9 35 -114 476 -299 996 -455 1275 -61 110 -140 226 -209 308 -33
40 -59 76 -56 81 3 4 31 4 63 0 32 -4 85 -10 118 -14z m-642 -347 c113 -77
255 -305 370 -593 89 -222 220 -635 252 -795 2 -8 15 -62 30 -120 14 -58 30
-125 35 -150 5 -25 19 -90 30 -145 26 -123 65 -324 90 -470 10 -60 21 -123 24
-140 3 -16 15 -93 26 -170 49 -330 48 -324 85 -625 16 -136 25 -223 27 -270
l3 -54 -40 -7 c-72 -13 -2023 -5 -2035 7 -9 9 -8 43 3 135 9 68 19 149 22 179
7 69 74 568 79 595 2 11 7 40 10 65 66 439 192 1040 291 1395 39 140 127 410
151 462 8 17 14 34 14 38 0 10 79 194 119 275 64 131 134 240 198 310 93 100
153 122 216 78z m-6073 -2739 c88 -81 383 -299 404 -299 3 0 26 -14 52 -32
155 -105 582 -293 934 -412 241 -82 699 -213 835 -240 11 -2 70 -16 130 -30
183 -43 234 -54 395 -86 85 -16 189 -37 230 -45 281 -56 762 -119 1253 -164
54 -4 103 -13 108 -18 5 -5 5 -50 0 -113 -12 -138 -20 -241 -26 -375 -3 -60
-7 -135 -10 -165 -2 -30 -7 -134 -11 -230 -3 -96 -7 -188 -9 -205 -2 -16 -6
-194 -10 -395 -9 -490 -9 -498 -20 -509 -6 -5 -147 -12 -315 -16 -444 -10
-5071 -12 -5077 -2 -6 10 -4 191 2 257 3 25 10 99 16 165 5 66 12 131 14 145
2 14 6 52 10 85 6 51 42 272 75 450 58 318 231 892 350 1160 5 11 34 81 66
155 59 140 260 542 294 590 11 16 20 30 20 33 0 5 121 206 183 305 15 23 33
42 40 42 6 -1 37 -23 67 -51z m11819 -260 c17 -28 31 -52 31 -55 0 -2 12 -23
26 -45 49 -78 207 -397 289 -584 15 -33 33 -74 41 -92 8 -17 14 -34 14 -38 0
-4 6 -21 14 -38 46 -102 134 -358 212 -617 48 -160 143 -569 158 -680 2 -14
15 -106 29 -205 15 -99 29 -216 33 -260 3 -43 8 -88 10 -100 2 -11 7 -98 11
-192 l6 -173 -34 -1 c-19 0 -970 -1 -2114 -1 -2037 1 -2780 7 -2791 23 -6 11
-12 169 -19 589 -4 189 -8 347 -10 350 -1 3 -6 82 -9 175 -7 183 -9 209 -31
565 -21 316 -21 310 -4 321 8 5 37 9 64 9 158 0 804 79 1160 140 191 33 571
109 680 136 55 13 114 27 130 30 27 5 355 89 500 128 259 71 741 241 950 336
193 87 484 248 570 314 33 26 51 18 84 -35z m-6359 -1109 c130 -13 960 -12
1112 1 68 5 213 11 322 12 l200 2 7 -30 c10 -39 42 -538 54 -825 3 -80 8 -165
10 -190 2 -25 6 -173 10 -330 3 -157 8 -350 11 -428 3 -102 2 -148 -7 -158
-10 -12 -185 -14 -1175 -14 l-1164 0 -9 23 c-5 13 -8 55 -6 93 2 38 7 218 10
399 4 182 8 341 10 355 1 14 6 117 10 230 4 113 8 219 10 235 2 17 6 84 9 150
4 66 8 140 11 165 2 25 7 88 10 140 6 104 14 170 23 184 6 10 398 0 542 -14z
m-3659 -2562 c1957 -2 2439 -6 2451 -16 13 -10 16 -47 17 -220 1 -114 4 -241
6 -282 2 -41 7 -158 10 -260 6 -197 29 -621 45 -860 6 -80 13 -181 16 -225 2
-44 7 -94 10 -111 2 -19 -1 -35 -8 -41 -7 -6 -58 -14 -113 -17 -241 -16 -673
-67 -950 -111 -55 -9 -113 -18 -130 -21 -346 -54 -917 -181 -1300 -288 -351
-99 -811 -255 -905 -307 -8 -5 -62 -29 -120 -54 -253 -111 -529 -278 -752
-456 -14 -12 -31 -19 -36 -15 -23 14 -265 392 -348 543 -15 27 -41 75 -59 108
-257 469 -498 1097 -605 1575 -44 197 -61 277 -71 330 -50 280 -99 689 -87
722 4 10 57 12 249 11 134 -2 1340 -4 2680 -5z m10872 -83 c-3 -78 -20 -249
-38 -365 -54 -354 -113 -628 -209 -955 -41 -141 -129 -399 -167 -490 -4 -11
-27 -65 -49 -120 -23 -55 -54 -128 -71 -163 -16 -35 -29 -65 -29 -68 0 -7
-168 -343 -189 -379 -10 -16 -32 -55 -48 -85 -110 -202 -199 -340 -219 -340
-8 0 -58 25 -112 56 -157 91 -405 210 -592 284 -189 75 -580 202 -810 264 -30
8 -98 26 -150 40 -103 28 -406 100 -590 140 -478 104 -1191 206 -1615 232 -60
4 -115 11 -122 16 -6 5 -10 23 -8 41 7 67 15 170 29 397 23 347 25 380 31 560
4 91 9 176 11 190 2 14 7 192 10 395 4 204 10 381 14 395 l6 25 205 5 c112 3
1219 5 2459 5 l2255 0 -2 -80z m-5498 64 c7 -11 7 -427 0 -507 -2 -26 -7 -137
-10 -247 -3 -110 -8 -236 -11 -280 -27 -456 -46 -745 -53 -815 -5 -47 -7 -88
-5 -91 2 -4 -3 -12 -11 -19 -12 -10 -65 -12 -233 -7 -119 4 -228 9 -242 13
-39 11 -1066 13 -1155 3 -44 -6 -181 -11 -304 -12 l-225 -2 -7 30 c-7 28 -41
516 -54 780 -4 66 -8 137 -10 157 -2 20 -7 142 -10 270 -4 128 -9 247 -10 263
-7 57 -6 455 0 465 9 14 2331 14 2340 -1z m-152 -2519 c10 -10 11 -37 3 -115
-5 -44 -9 -87 -11 -95 -1 -8 -6 -44 -10 -80 -16 -154 -70 -534 -101 -715 -3
-16 -14 -82 -25 -145 -11 -63 -24 -139 -29 -167 -6 -29 -14 -77 -19 -105 -10
-51 -22 -109 -77 -358 -24 -107 -49 -215 -58 -250 -3 -8 -9 -35 -15 -60 -32
-139 -173 -582 -227 -713 -100 -242 -201 -425 -296 -538 -134 -160 -227 -131
-391 121 -49 76 -167 297 -167 314 0 3 -9 25 -19 49 -84 184 -251 730 -316
1037 -48 228 -107 520 -125 625 -30 171 -80 490 -96 610 -3 22 -7 51 -10 65
-2 14 -6 50 -10 80 -3 30 -16 134 -28 230 -12 96 -20 183 -18 192 3 13 17 18
61 20 97 5 1979 3 1984 -2z m-2618 -39 c3 -6 8 -27 10 -48 3 -21 16 -130 30
-243 14 -113 27 -221 30 -240 4 -32 27 -191 41 -280 3 -19 11 -80 19 -135 8
-55 19 -127 25 -160 6 -33 15 -87 21 -120 52 -319 172 -853 264 -1179 35 -122
108 -354 124 -391 4 -11 18 -45 29 -75 58 -154 80 -207 148 -345 83 -170 106
-210 175 -313 27 -40 49 -78 49 -84 0 -10 -46 -9 -240 8 -126 10 -396 43 -478
58 -9 2 -37 7 -62 11 -350 54 -946 211 -1289 340 -90 34 -280 109 -349 139
-135 58 -173 76 -362 170 -186 93 -242 123 -402 215 -66 37 -224 134 -265 162
-23 16 -46 29 -51 29 -6 0 -12 3 -14 8 -1 4 -30 25 -63 48 -109 74 -270 187
-296 208 -14 12 -43 35 -65 51 -212 165 -464 386 -638 561 -199 200 -406 429
-406 450 0 7 33 39 73 71 373 300 955 540 1862 768 77 20 169 42 205 50 36 8
119 26 185 40 221 48 705 132 920 160 66 8 136 17 155 20 19 2 82 9 140 15 58
5 130 13 160 16 69 7 234 21 277 23 17 0 34 -3 38 -8z m3375 -1 c829 -71 1553
-204 2335 -427 269 -76 385 -115 660 -221 110 -42 508 -235 541 -263 8 -6 14
-18 14 -26 0 -13 -37 -69 -67 -101 -7 -7 -29 -34 -50 -60 -113 -142 -250 -293
-435 -482 -130 -132 -483 -448 -599 -535 -15 -11 -71 -53 -125 -94 -173 -130
-196 -147 -326 -232 -174 -115 -264 -172 -323 -204 -27 -15 -54 -31 -60 -35
-5 -4 -37 -22 -70 -40 -33 -18 -78 -44 -100 -56 -90 -53 -412 -207 -580 -279
-99 -42 -193 -82 -210 -89 -54 -24 -377 -134 -510 -175 -278 -86 -522 -144
-885 -211 -50 -9 -242 -38 -297 -45 -30 -3 -29 8 6 58 152 221 348 684 462
1093 117 417 252 1040 294 1359 3 17 11 68 19 115 8 47 20 121 26 166 6 44 13
91 15 105 6 30 43 315 50 389 12 118 35 282 40 291 8 11 32 11 175 -1z"/>
</g>
</svg>
