<?xml version="1.0" encoding="UTF-8"?>
<svg width="456px" height="198px" viewBox="0 0 456 198" version="1.1" xmlns="http://www.w3.org/2000/svg" xmlns:xlink="http://www.w3.org/1999/xlink">
    <!-- Generator: Sketch 52.6 (67491) - http://www.bohemiancoding.com/sketch -->
    <title>Slice 1</title>
    <desc>Created with Sketch.</desc>
    <defs>
        <rect id="path-1" x="1.63154005" y="2.77940716" width="17.9489903" height="14.2819923"></rect>
        <rect id="path-3" x="0.2" y="0.277" width="16.203" height="11.965"></rect>
        <rect id="path-5" x="4.46071391" y="3.65453331" width="26.4452535" height="26.4452535"></rect>
        <rect id="path-7" x="4.46071391" y="3.65453331" width="26.4452535" height="26.4452535"></rect>
        <rect id="path-9" x="5.47691247" y="5.23587273" width="26.4440573" height="26.4430572"></rect>
        <rect id="path-11" x="5.47691247" y="5.23587273" width="26.4440573" height="26.4430572"></rect>
        <rect id="path-13" x="4.57404031" y="4.15478883" width="20.5991006" height="20.6001005"></rect>
        <rect id="path-15" x="4.57404031" y="4.15478883" width="20.5991006" height="20.6001005"></rect>
        <rect id="path-17" x="3.92184363" y="4.18695055" width="20.6001005" height="20.6011005"></rect>
        <rect id="path-19" x="3.92184363" y="4.18695055" width="20.6001005" height="20.6011005"></rect>
        <rect id="path-21" x="4.22524131" y="3.95764843" width="20.5991006" height="20.6001005"></rect>
        <rect id="path-23" x="4.22524131" y="3.95764843" width="20.5991006" height="20.6001005"></rect>
        <rect id="path-25" x="4.32167842" y="4.56895092" width="20.6019317" height="20.6019317"></rect>
        <rect id="path-27" x="4.32167842" y="4.56895092" width="20.6019317" height="20.6019317"></rect>
        <rect id="path-29" x="4.26607338" y="4.91984339" width="22.6010489" height="22.5990489"></rect>
        <rect id="path-31" x="4.26607338" y="4.91984339" width="22.6010489" height="22.5990489"></rect>
        <rect id="path-33" x="6.17163394" y="5.75785759" width="32.0650694" height="32.0640694"></rect>
        <rect id="path-35" x="6.17163394" y="5.75785759" width="32.0650694" height="32.0640694"></rect>
        <rect id="path-37" x="0.768" y="0.242" width="16.536" height="21.682"></rect>
        <rect id="path-39" x="0.478" y="0.242" width="32.013" height="38.376"></rect>
        <rect id="path-41" x="0.6" y="0.296" width="22.161" height="23.613"></rect>
        <rect id="path-43" x="0.751" y="0.091" width="37.935" height="5.879"></rect>
        <rect id="path-45" x="0.243" y="0.082" width="65.222" height="27.071"></rect>
        <rect id="path-47" x="0.748" y="0.253" width="49.16" height="9.724"></rect>
        <rect id="path-49" x="0.933" y="0.982" width="24.975" height="25.691"></rect>
        <rect id="path-51" x="4.25719543" y="4.14055431" width="20.6001005" height="20.5991006"></rect>
        <rect id="path-53" x="4.25719543" y="4.14055431" width="20.6001005" height="20.5991006"></rect>
        <rect id="path-55" x="0.874" y="0.904" width="34.313" height="4.241"></rect>
    </defs>
    <g id="Page-1" stroke="none" stroke-width="1" fill="none" fill-rule="evenodd">
        <g id="pubhubs-logo">
            <g id="Clipped" transform="translate(76.000000, 54.000000)">
                <mask id="mask-2" fill="white">
                    <use xlink:href="#path-1"></use>
                </mask>
                <g id="SVGID_1_" transform="translate(10.606035, 9.920403) rotate(-165.557982) translate(-10.606035, -9.920403) "></g>
                <path d="M15.914,17.061 C13.432,13.128 9.846,8.391 5.156,2.848" id="Path" stroke="#FFFFFF" stroke-width="2" mask="url(#mask-2)"></path>
            </g>
            <g id="Clipped" transform="translate(112.000000, 86.000000)">
                <mask id="mask-4" fill="white">
                    <use xlink:href="#path-3"></use>
                </mask>
                <g id="SVGID_3_"></g>
                <path d="M0.574,2.204 C7.484,5.135 12.427,8.481 15.403,12.243" id="Path" stroke="#FFFFFF" stroke-width="2" mask="url(#mask-4)"></path>
            </g>
            <g id="Group" transform="translate(83.000000, 63.000000)" fill="#000000">
                <path d="M0.312,49.29 C0.312,47.376 2.574,47.028 3.792,46.854 L21.887,44.244 C22.235,44.244 24.845,43.722 25.193,43.722 C27.455,43.722 27.455,46.158 27.455,47.202 C27.455,51.9 26.933,72.258 26.933,76.433 L26.933,90.178 C26.933,95.224 26.933,115.756 27.281,118.714 C27.803,122.541 30.587,123.064 34.937,123.934 C39.461,124.978 39.461,126.196 39.461,127.413 L39.461,130.023 C39.461,131.937 37.721,131.937 36.677,131.937 C34.415,131.937 31.631,131.241 19.451,131.241 C7.271,131.241 4.487,131.937 2.573,131.937 C0.659,131.937 0.311,131.241 0.311,130.023 L0.311,126.717 C0.311,124.977 1.181,124.803 7.619,123.237 C11.273,122.367 12.491,120.975 12.839,117.147 C13.013,113.319 13.013,96.267 13.013,90.874 L13.013,72.604 C13.013,61.816 13.013,56.597 5.357,55.727 C1.355,55.205 0.311,54.509 0.311,52.247 L0.311,49.29 L0.312,49.29 Z M28.151,19.189 C28.151,26.323 23.279,30.15 18.233,30.15 C12.665,30.15 7.794,25.626 7.794,19.014 C7.794,12.228 12.839,8.4 17.885,8.4 C22.235,8.401 28.151,11.185 28.151,19.189 Z" id="Shape" fill-rule="nonzero"></path>
                <path d="M140.03,63.731 C146.642,63.557 147.164,63.557 147.164,58.337 C147.164,52.421 147.164,26.496 146.468,22.842 C145.772,18.666 141.77,17.622 139.856,17.448 C135.854,17.1 134.984,16.404 134.984,14.838 L134.984,11.01 C134.984,9.27 135.332,8.748 137.42,8.748 C139.16,8.748 149.252,9.444 153.949,9.444 C161.779,9.444 169.434,8.748 171.697,8.748 C173.785,8.748 173.959,9.792 173.959,11.01 L173.959,14.838 C173.959,16.926 173.263,17.274 168.739,17.97 C163.171,19.014 162.475,21.276 162.301,23.886 C161.952,27.714 161.952,52.769 161.952,58.337 L161.952,82.523 L162.126,113.669 C162.126,117.845 162.475,122.368 169.26,123.238 C173.611,123.76 173.958,124.456 173.958,125.848 L173.958,129.675 C173.958,131.415 173.784,131.938 171.696,131.938 C169.956,131.938 160.56,131.242 154.992,131.242 C147.511,131.242 138.985,131.938 137.419,131.938 C135.157,131.938 134.983,130.894 134.983,129.675 L134.983,125.848 C134.983,123.76 135.853,123.411 140.377,122.541 C146.641,121.497 146.815,118.714 146.815,115.233 C147.163,108.969 147.163,85.828 147.163,80.782 C147.163,76.259 146.815,75.736 140.029,75.736 L88.352,75.736 L85.22,75.91 C81.218,75.91 81.218,77.476 81.218,82.522 C81.218,88.264 81.218,114.189 81.74,117.843 C82.436,122.019 86.612,122.889 88.526,123.237 C92.876,123.585 93.224,124.455 93.224,125.847 L93.224,129.674 C93.224,131.414 93.05,131.937 90.962,131.937 C89.222,131.937 79.304,131.241 74.258,131.241 C67.646,131.241 59.817,131.937 56.51,131.937 C54.422,131.937 54.248,130.893 54.248,129.674 L54.248,125.847 C54.248,123.759 55.118,123.41 59.642,122.54 C64.688,121.671 65.906,119.757 66.08,116.799 C66.428,112.448 66.428,83.218 66.428,82.522 L66.428,58.336 C66.428,52.594 66.428,26.669 65.732,22.841 C65.036,18.491 60.686,17.621 59.12,17.447 C54.944,17.099 54.248,16.403 54.248,14.837 L54.248,11.009 C54.248,9.269 54.596,8.747 56.51,8.747 C58.424,8.747 68.516,9.443 73.214,9.443 C76.694,9.443 87.655,8.747 90.962,8.747 C93.05,8.747 93.224,9.791 93.224,11.009 L93.224,14.837 C93.224,16.925 92.528,17.273 88.004,17.969 C81.566,19.187 81.566,21.797 81.392,25.799 C81.218,28.757 81.218,44.416 81.218,58.336 C81.218,63.208 81.566,63.73 88.352,63.73 L140.03,63.73 L140.03,63.731 Z" id="Path"></path>
                <path d="M211.196,44.07 C213.98,43.722 215.547,43.548 215.547,46.506 L215.373,55.031 C215.024,62.687 215.024,65.471 215.024,74.171 L215.024,95.05 C215.024,107.926 215.373,112.449 217.634,116.451 C220.592,121.497 227.552,122.716 230.858,122.716 C237.122,122.716 247.561,118.365 252.086,111.058 C255.739,104.968 255.739,96.094 255.739,85.481 L255.739,72.605 C255.739,56.076 255.218,55.901 245.996,54.509 C243.908,54.161 243.038,53.987 243.038,52.595 L243.038,48.941 C243.038,47.027 244.082,46.853 247.91,46.331 L264.613,44.069 C265.309,44.069 267.223,43.721 267.92,43.721 C270.008,43.721 270.182,45.287 270.182,46.853 C270.182,50.681 269.486,67.211 269.486,70.69 L269.486,93.832 C269.486,114.363 270.008,115.93 270.878,118.018 C272.097,120.976 273.662,121.15 279.752,122.02 C282.536,122.541 282.536,123.238 282.536,127.066 C282.536,128.11 282.536,129.328 280.1,129.85 L262.178,133.852 C261.656,134.026 260.438,134.373 259.916,134.373 C257.828,134.373 257.653,132.285 257.306,129.85 L256.262,121.15 C256.088,119.062 255.914,117.844 254.87,117.844 C254.174,117.844 253.826,118.192 251.042,121.323 C243.56,129.327 238.688,133.851 225.813,133.851 C219.723,133.851 209.979,131.588 204.933,125.498 C201.106,120.627 201.106,115.929 201.106,96.615 L201.106,79.041 C201.106,68.08 201.106,65.817 200.931,62.686 C200.931,59.728 200.41,54.856 192.579,54.683 C188.577,54.683 188.403,53.639 188.403,51.725 L188.403,48.941 C188.403,46.853 189.273,46.679 192.405,46.331 L211.196,44.07 Z" id="Path"></path>
                <path d="M301.152,49.29 C301.152,44.244 300.978,18.493 299.934,15.535 C299.239,13.621 297.325,12.229 292.104,11.359 C287.928,10.837 287.928,9.445 287.928,8.053 L287.928,5.617 C287.928,3.877 288.972,3.355 291.06,3.181 C296.628,2.659 312.636,0.223 313.854,0.223 C314.724,0.223 316.116,-0.125 316.116,3.529 C316.116,7.009 315.595,22.321 315.595,25.452 C315.595,29.802 314.899,49.289 314.899,53.118 C314.899,58.512 314.899,59.208 316.117,59.208 C316.639,59.208 318.379,57.294 319.075,56.424 C326.731,48.072 327.253,47.55 331.429,45.985 C334.561,44.767 337.867,44.245 341.173,44.245 C359.616,44.245 372.492,62.341 372.492,85.308 C372.492,113.669 353.005,133.853 328.819,133.853 C315.422,133.853 302.546,127.067 301.502,124.283 C301.153,123.413 300.98,122.718 300.98,119.063 L301.154,91.049 L301.154,49.29 L301.152,49.29 Z M318.03,69.474 C315.246,75.738 314.898,88.091 314.898,95.225 C314.898,100.793 315.072,108.797 316.116,114.017 C317.856,122.369 326.904,124.283 331.08,124.283 C349.872,124.283 358.05,103.926 358.05,87.918 C358.05,77.826 354.048,57.469 335.952,57.469 C325.164,57.468 320.118,64.775 318.03,69.474 Z" id="Shape" fill-rule="nonzero"></path>
            </g>
            <g id="Group" transform="translate(123.000000, 24.000000)">
                <g id="Clipped">
                    <mask id="mask-6" fill="white">
                        <use xlink:href="#path-5"></use>
                    </mask>
                    <g id="SVGID_5_" transform="translate(17.683341, 16.877160) rotate(-161.693692) translate(-17.683341, -16.877160) "></g>
                    <path d="M27.706,11.841 C30.491,17.378 28.26,24.124 22.723,26.908 C17.185,29.693 10.44,27.462 7.655,21.925 C4.871,16.388 7.102,9.642 12.639,6.857 C18.175,4.072 24.921,6.304 27.706,11.841" id="Path" fill="#FDC300" mask="url(#mask-6)"></path>
                </g>
                <g id="Clipped">
                    <mask id="mask-8" fill="white">
                        <use xlink:href="#path-7"></use>
                    </mask>
                    <g id="SVGID_5_" transform="translate(17.683341, 16.877160) rotate(-161.693692) translate(-17.683341, -16.877160) "></g>
                    <circle id="Oval" stroke="#FFFFFF" stroke-width="2" mask="url(#mask-8)" cx="17.68" cy="16.883" r="11.222"></circle>
                </g>
            </g>
            <g id="Group" transform="translate(57.000000, 30.000000)">
                <g id="Clipped">
                    <mask id="mask-10" fill="white">
                        <use xlink:href="#path-9"></use>
                    </mask>
                    <g id="SVGID_7_" transform="translate(18.698941, 18.457401) rotate(-117.277400) translate(-18.698941, -18.457401) "></g>
                    <path d="M22.12,7.769 C28.023,9.656 31.28,15.972 29.392,21.875 C27.505,27.779 21.19,31.035 15.286,29.147 C9.383,27.26 6.127,20.945 8.014,15.041 C9.901,9.138 16.216,5.882 22.12,7.769" id="Path" fill="#8F2011" mask="url(#mask-10)"></path>
                </g>
                <g id="Clipped">
                    <mask id="mask-12" fill="white">
                        <use xlink:href="#path-11"></use>
                    </mask>
                    <g id="SVGID_7_" transform="translate(18.698941, 18.457401) rotate(-117.277400) translate(-18.698941, -18.457401) "></g>
                    <circle id="Oval" stroke="#FFFFFF" stroke-width="2" mask="url(#mask-12)" cx="18.704" cy="18.458" r="11.222"></circle>
                </g>
            </g>
            <g id="Group" transform="translate(0.000000, 100.000000)">
                <g id="Clipped">
                    <mask id="mask-14" fill="white">
                        <use xlink:href="#path-13"></use>
                    </mask>
                    <g id="SVGID_9_" transform="translate(14.873591, 14.454839) rotate(-117.272307) translate(-14.873591, -14.454839) "></g>
                    <path d="M17.403,6.543 C21.77,7.939 24.178,12.61 22.782,16.976 C21.386,21.343 16.715,23.751 12.348,22.355 C7.982,20.96 5.574,16.288 6.969,11.922 C8.365,7.555 13.036,5.147 17.403,6.543" id="Path" fill="#FDC300" mask="url(#mask-14)"></path>
                </g>
                <g id="Clipped">
                    <mask id="mask-16" fill="white">
                        <use xlink:href="#path-15"></use>
                    </mask>
                    <g id="SVGID_9_" transform="translate(14.873591, 14.454839) rotate(-117.272307) translate(-14.873591, -14.454839) "></g>
                    <circle id="Oval" stroke="#FFFFFF" stroke-width="2" mask="url(#mask-16)" cx="14.876" cy="14.449" r="8.3"></circle>
                </g>
            </g>
            <g id="Group" transform="translate(41.000000, 118.000000)">
                <g id="Clipped">
                    <mask id="mask-18" fill="white">
                        <use xlink:href="#path-17"></use>
                    </mask>
                    <g id="SVGID_11_" transform="translate(14.221894, 14.487501) rotate(-117.272307) translate(-14.221894, -14.487501) "></g>
                    <path d="M16.75,6.575 C21.117,7.971 23.525,12.642 22.129,17.009 C20.733,21.376 16.062,23.783 11.696,22.389 C7.329,20.993 4.921,16.321 6.317,11.954 C7.712,7.588 12.384,5.179 16.75,6.575" id="Path" fill="#8F2011" mask="url(#mask-18)"></path>
                </g>
                <g id="Clipped">
                    <mask id="mask-20" fill="white">
                        <use xlink:href="#path-19"></use>
                    </mask>
                    <g id="SVGID_11_" transform="translate(14.221894, 14.487501) rotate(-117.272307) translate(-14.221894, -14.487501) "></g>
                    <circle id="Oval" stroke="#FFFFFF" stroke-width="2" mask="url(#mask-20)" cx="14.223" cy="14.482" r="8.301"></circle>
                </g>
            </g>
            <g id="Group" transform="translate(8.000000, 37.000000)">
                <g id="Clipped">
                    <mask id="mask-22" fill="white">
                        <use xlink:href="#path-21"></use>
                    </mask>
                    <g id="SVGID_13_" transform="translate(14.524792, 14.257699) rotate(-117.272307) translate(-14.524792, -14.257699) "></g>
                    <path d="M17.052,6.348 C21.419,7.744 23.827,12.415 22.431,16.782 C21.035,21.148 16.364,23.556 11.998,22.161 C7.631,20.765 5.223,16.094 6.619,11.727 C8.014,7.361 12.686,4.952 17.052,6.348" id="Path" fill="#FDC300" mask="url(#mask-22)"></path>
                </g>
                <g id="Clipped">
                    <mask id="mask-24" fill="white">
                        <use xlink:href="#path-23"></use>
                    </mask>
                    <g id="SVGID_13_" transform="translate(14.524792, 14.257699) rotate(-117.272307) translate(-14.524792, -14.257699) "></g>
                    <circle id="Oval" stroke="#FFFFFF" stroke-width="2" mask="url(#mask-24)" cx="14.525" cy="14.255" r="8.301"></circle>
                </g>
            </g>
            <g id="Group" transform="translate(84.000000, 0.000000)">
                <g id="Clipped">
                    <mask id="mask-26" fill="white">
                        <use xlink:href="#path-25"></use>
                    </mask>
                    <g id="SVGID_15_" transform="translate(14.622644, 14.869917) rotate(-117.269682) translate(-14.622644, -14.869917) "></g>
                    <path d="M17.15,6.969 C21.516,8.365 23.924,13.036 22.529,17.403 C21.133,21.769 16.462,24.177 12.095,22.782 C7.729,21.386 5.321,16.715 6.716,12.348 C8.112,7.982 12.783,5.573 17.15,6.969" id="Path" fill="#EC6609" mask="url(#mask-26)"></path>
                </g>
                <g id="Clipped">
                    <mask id="mask-28" fill="white">
                        <use xlink:href="#path-27"></use>
                    </mask>
                    <g id="SVGID_15_" transform="translate(14.622644, 14.869917) rotate(-117.269682) translate(-14.622644, -14.869917) "></g>
                    <circle id="Oval" stroke="#FFFFFF" stroke-width="2" mask="url(#mask-28)" cx="14.622" cy="14.875" r="8.3"></circle>
                </g>
            </g>
            <g id="Group" transform="translate(27.000000, 67.000000)">
                <g id="Clipped">
                    <mask id="mask-30" fill="white">
                        <use xlink:href="#path-29"></use>
                    </mask>
                    <g id="SVGID_17_" transform="translate(15.566598, 16.219368) rotate(-117.277400) translate(-15.566598, -16.219368) "></g>
                    <path d="M18.402,7.363 C23.294,8.927 25.993,14.161 24.429,19.053 C22.865,23.946 17.631,26.644 12.738,25.08 C7.846,23.517 5.148,18.282 6.712,13.39 C8.276,8.498 13.509,5.799 18.402,7.363" id="Path" fill="#EC6500" mask="url(#mask-30)"></path>
                </g>
                <g id="Clipped">
                    <mask id="mask-32" fill="white">
                        <use xlink:href="#path-31"></use>
                    </mask>
                    <g id="SVGID_17_" transform="translate(15.566598, 16.219368) rotate(-117.277400) translate(-15.566598, -16.219368) "></g>
                    <circle id="Oval" stroke="#FFFFFF" stroke-width="2" mask="url(#mask-32)" cx="15.57" cy="16.222" r="9.301"></circle>
                </g>
            </g>
            <g id="Group" transform="translate(78.000000, 61.000000)">
                <g id="Clipped">
                    <mask id="mask-34" fill="white">
                        <use xlink:href="#path-33"></use>
                    </mask>
                    <g id="SVGID_19_" transform="translate(22.204169, 21.789892) rotate(-117.277400) translate(-22.204169, -21.789892) "></g>
                    <path d="M26.483,8.426 C33.864,10.785 37.936,18.682 35.576,26.064 C33.217,33.446 25.32,37.517 17.938,35.157 C10.557,32.798 6.485,24.901 8.845,17.519 C11.206,10.138 19.101,6.067 26.483,8.426" id="Path" fill="#BE311A" mask="url(#mask-34)"></path>
                </g>
                <g id="Clipped">
                    <mask id="mask-36" fill="white">
                        <use xlink:href="#path-35"></use>
                    </mask>
                    <g id="SVGID_19_" transform="translate(22.204169, 21.789892) rotate(-117.277400) translate(-22.204169, -21.789892) "></g>
                    <circle id="Oval" stroke="#FFFFFF" stroke-width="2" mask="url(#mask-36)" cx="22.211" cy="21.791" r="14.032"></circle>
                </g>
            </g>
            <g id="Clipped" transform="translate(80.000000, 20.000000)">
                <mask id="mask-38" fill="white">
                    <use xlink:href="#path-37"></use>
                </mask>
                <g id="SVGID_21_"></g>
                <path d="M2.86,20.132 L15.212,2.033" id="Path" stroke="#FFFFFF" stroke-width="2" mask="url(#mask-38)"></path>
            </g>
            <g id="Clipped" transform="translate(57.000000, 88.000000)">
                <mask id="mask-40" fill="white">
                    <use xlink:href="#path-39"></use>
                </mask>
                <g id="SVGID_23_"></g>
                <path d="M2.412,37.108 C10.702,21.522 20.184,9.853 30.861,2.1" id="Path" stroke="#FFFFFF" stroke-width="2" mask="url(#mask-40)"></path>
            </g>
            <g id="Clipped" transform="translate(48.000000, 55.000000)">
                <mask id="mask-42" fill="white">
                    <use xlink:href="#path-41"></use>
                </mask>
                <g id="SVGID_25_"></g>
                <path d="M2.387,22.067 C7.603,17.221 13.768,10.546 20.882,2.041" id="Path" stroke="#FFFFFF" stroke-width="2" mask="url(#mask-42)"></path>
            </g>
            <g id="Clipped" transform="translate(28.000000, 51.000000)">
                <mask id="mask-44" fill="white">
                    <use xlink:href="#path-43"></use>
                </mask>
                <g id="SVGID_27_"></g>
                <path d="M37.358,2.551 C28.375,4.591 16.591,4.432 2.006,2.076" id="Path" stroke="#FFFFFF" stroke-width="2" mask="url(#mask-44)"></path>
            </g>
            <g id="Clipped" transform="translate(22.000000, 86.000000)">
                <mask id="mask-46" fill="white">
                    <use xlink:href="#path-45"></use>
                </mask>
                <g id="SVGID_29_"></g>
                <path d="M64.118,2.02 L1.591,25.216" id="Path" stroke="#FFFFFF" stroke-width="2" mask="url(#mask-46)"></path>
            </g>
            <g id="Clipped" transform="translate(84.000000, 46.000000)">
                <mask id="mask-48" fill="white">
                    <use xlink:href="#path-47"></use>
                </mask>
                <g id="SVGID_31_"></g>
                <path d="M48.33,2.131 C35.976,8.436 20.549,9.641 2.05,5.746" id="Path" stroke="#FFFFFF" stroke-width="2" mask="url(#mask-48)"></path>
            </g>
            <g id="Clipped" transform="translate(108.000000, 47.000000)">
                <mask id="mask-50" fill="white">
                    <use xlink:href="#path-49"></use>
                </mask>
                <g id="SVGID_33_"></g>
                <path d="M2.652,24.979 L24.188,2.678" id="Path" stroke="#FFFFFF" stroke-width="2" mask="url(#mask-50)"></path>
            </g>
            <g id="Group" transform="translate(116.000000, 90.000000)">
                <g id="Clipped">
                    <mask id="mask-52" fill="white">
                        <use xlink:href="#path-51"></use>
                    </mask>
                    <g id="SVGID_35_" transform="translate(14.557246, 14.440105) rotate(-117.272307) translate(-14.557246, -14.440105) "></g>
                    <path d="M17.085,6.527 C21.452,7.923 23.86,12.594 22.464,16.961 C21.068,21.327 16.397,23.735 12.031,22.34 C7.664,20.944 5.256,16.272 6.651,11.906 C8.047,7.541 12.719,5.131 17.085,6.527" id="Path" fill="#EC6500" mask="url(#mask-52)"></path>
                </g>
                <g id="Clipped">
                    <mask id="mask-54" fill="white">
                        <use xlink:href="#path-53"></use>
                    </mask>
                    <g id="SVGID_35_" transform="translate(14.557246, 14.440105) rotate(-117.272307) translate(-14.557246, -14.440105) "></g>
                    <circle id="Oval" stroke="#FFFFFF" stroke-width="2" mask="url(#mask-54)" cx="14.558" cy="14.434" r="8.301"></circle>
                </g>
            </g>
            <g id="Clipped" transform="translate(51.000000, 81.000000)">
                <mask id="mask-56" fill="white">
                    <use xlink:href="#path-55"></use>
                </mask>
                <g id="SVGID_37_"></g>
                <path d="M1.881,3.145 L34.18,2.904" id="Path" stroke="#FFFFFF" stroke-width="2" mask="url(#mask-56)"></path>
            </g>
        </g>
    </g>
</svg>