<?xml version="1.0" standalone="no"?>
<!DOCTYPE svg PUBLIC "-//W3C//DTD SVG 20010904//EN"
 "http://www.w3.org/TR/2001/REC-SVG-20010904/DTD/svg10.dtd">
<svg version="1.0" xmlns="http://www.w3.org/2000/svg"
 width="1309.000000pt" height="1450.000000pt" viewBox="0 0 1309.000000 1450.000000"
 preserveAspectRatio="xMidYMid meet">

<g transform="translate(0.000000,1450.000000) scale(0.100000,-0.100000)"
fill="#000000" stroke="none">
<path d="M9628 13845 c-2 -1 -1004 -5 -2228 -9 -2520 -7 -4501 -14 -5870 -21
-1064 -5 -994 0 -1086 -89 -36 -36 -58 -68 -74 -111 l-22 -60 1 -1170 c1 -643
3 -1460 6 -1815 2 -355 7 -1525 10 -2600 3 -1075 7 -2436 10 -3025 3 -588 8
-1792 11 -2675 3 -914 10 -1626 15 -1655 19 -104 90 -194 183 -236 88 -38 156
-40 1116 -35 509 3 1753 8 2765 11 1012 3 2250 7 2750 10 501 3 1851 7 3000
11 1194 3 2124 9 2170 15 101 12 170 45 229 110 84 94 81 58 81 864 0 1096
-15 5724 -20 6240 -3 253 -7 1513 -10 2800 -7 2666 -10 3128 -26 3202 -19 95
-106 194 -197 225 -29 10 -321 13 -1424 15 -762 1 -1388 0 -1390 -2z m2490
-527 c16 -20 21 -556 27 -3163 3 -1215 7 -2516 10 -2890 3 -374 7 -1663 10
-2865 3 -1202 8 -2356 11 -2566 6 -352 5 -384 -12 -415 -11 -22 -24 -92 -36
-194 -33 -294 -37 -309 -85 -319 -16 -3 -986 -8 -2158 -11 -1171 -3 -2461 -7
-2865 -10 -404 -3 -1664 -7 -2800 -10 -1136 -3 -2275 -8 -2531 -11 -256 -4
-476 -3 -487 0 -15 5 -22 16 -22 33 0 19 -19 43 -72 92 -86 79 -141 161 -169
250 -17 58 -19 81 -13 185 5 89 4 117 -4 112 -7 -4 -12 -1 -13 6 -1 20 -6
1492 -13 3803 -3 1139 -8 2396 -11 2795 -3 399 -8 1715 -11 2925 -6 1863 -4
2202 7 2212 10 8 224 13 764 17 1179 9 4465 20 4520 15 28 -2 199 -2 380 0
182 2 967 5 1745 7 778 3 1424 5 1435 7 11 1 551 4 1200 5 1004 3 1183 2 1193
-10z"/>
<path d="M6163 13159 c-11 -14 -34 -64 -203 -439 -152 -336 -230 -509 -280
-620 -26 -58 -89 -197 -140 -310 -51 -113 -114 -252 -140 -310 -26 -58 -102
-226 -168 -375 -93 -209 -1635 -3629 -2333 -5172 -60 -132 -133 -297 -163
-365 -30 -67 -402 -895 -828 -1838 -426 -943 -781 -1732 -789 -1754 -13 -37
-13 -39 16 -63 17 -13 55 -41 85 -61 30 -20 101 -81 158 -134 56 -54 109 -98
118 -98 9 0 24 20 36 48 11 26 73 164 138 307 65 143 159 352 210 465 51 113
114 252 140 310 26 58 89 197 140 310 51 113 114 252 140 310 26 58 89 197
140 310 51 113 114 252 140 310 26 58 89 197 140 310 51 113 125 277 165 365
83 185 187 416 283 629 55 122 73 153 98 168 29 17 136 19 1980 33 1072 8
2522 19 3221 25 1071 9 1278 8 1305 -3 23 -10 40 -28 55 -58 26 -54 82 -177
93 -204 4 -11 104 -238 223 -505 225 -508 363 -822 747 -1690 128 -289 285
-644 350 -790 64 -146 143 -325 175 -398 32 -73 62 -135 67 -138 5 -3 33 9 61
27 29 19 102 59 162 90 191 98 215 111 215 120 0 8 -87 206 -325 744 -73 165
-176 397 -228 515 -178 403 -545 1234 -707 1600 -300 677 -382 865 -415 950
-18 47 -67 156 -109 242 -42 86 -76 159 -76 162 0 2 -63 147 -141 323 -161
362 -273 615 -592 1338 -124 281 -298 674 -387 875 -89 201 -201 455 -250 565
-75 170 -205 465 -455 1030 -338 763 -825 1864 -972 2200 -63 143 -143 323
-178 400 -34 77 -70 157 -78 178 -10 23 -27 42 -44 49 -17 7 -105 13 -233 15
-113 2 -284 6 -380 9 -143 6 -177 4 -187 -7z m456 -441 c21 -46 96 -213 166
-373 126 -286 354 -802 687 -1555 202 -456 438 -989 573 -1295 53 -121 108
-245 122 -275 14 -30 29 -64 33 -75 4 -11 104 -238 223 -505 118 -267 282
-638 365 -825 82 -187 254 -576 382 -865 128 -289 268 -605 311 -702 43 -98
79 -182 79 -187 0 -33 118 -31 -3895 -61 -2184 -16 -2153 -16 -2164 -5 -6 6
-5 22 3 45 7 19 402 897 878 1950 476 1053 963 2133 1083 2400 572 1274 1067
2367 1081 2387 8 13 19 23 25 23 6 0 27 -37 48 -82z"/>
<path d="M6528 12453 c-22 -26 -178 -397 -178 -424 0 -12 -22 -72 -49 -133
-51 -116 -1108 -2516 -2015 -4578 -555 -1260 -546 -1238 -486 -1238 32 0 4
-60 430 910 76 173 596 1355 1155 2625 560 1271 1046 2376 1081 2456 35 81 64
160 64 176 0 16 6 37 13 47 12 16 14 16 26 -11 18 -38 936 -2131 2273 -5183
459 -1047 427 -978 450 -986 28 -8 51 15 45 46 -3 14 -95 231 -205 480 -194
442 -795 1814 -1442 3290 -175 399 -488 1112 -695 1585 -207 473 -382 874
-388 890 -12 36 -35 65 -52 65 -7 0 -19 -8 -27 -17z"/>
<path d="M6491 11027 c-7 -9 -8 -24 -2 -44 5 -16 5 -36 1 -44 -4 -8 -70 -174
-145 -369 -75 -195 -195 -503 -265 -685 -70 -181 -275 -710 -455 -1175 -180
-465 -424 -1095 -542 -1400 -118 -305 -259 -670 -314 -811 -54 -141 -99 -268
-99 -283 0 -31 22 -43 53 -28 12 6 126 13 257 17 129 3 417 12 640 20 223 8
934 33 1580 55 646 22 1226 42 1288 46 131 7 146 15 136 72 -4 21 -126 303
-271 627 -408 909 -850 1894 -1123 2500 -136 303 -341 759 -455 1015 -115 256
-215 473 -223 483 -18 20 -45 22 -61 4z m382 -903 c526 -1172 945 -2106 1311
-2920 190 -424 346 -776 346 -782 0 -13 -84 -20 -325 -27 -177 -5 -351 -11
-2328 -80 -1205 -42 -1101 -41 -1095 -12 3 12 281 733 618 1602 655 1692 693
1790 960 2482 96 249 179 451 185 450 5 -2 153 -323 328 -713z"/>
<path d="M9558 5399 c-24 -14 -23 -37 7 -101 14 -29 25 -69 25 -89 0 -26 7
-42 26 -60 15 -13 47 -67 71 -119 42 -89 855 -1854 1163 -2525 388 -843 359
-785 390 -785 29 0 40 29 26 70 -7 19 -286 629 -621 1355 -334 726 -703 1527
-819 1779 -126 273 -219 464 -231 472 -14 9 -25 10 -37 3z"/>
<path d="M3618 5259 c-17 -10 -54 -81 -876 -1699 -912 -1797 -982 -1937 -982
-1963 0 -30 33 -46 55 -27 8 7 125 231 261 499 136 267 304 599 374 736 601
1176 1220 2407 1220 2424 0 26 -29 43 -52 30z"/>
</g>
</svg>
