<svg xmlns="http://www.w3.org/2000/svg" viewBox="0 0 64.91 55.23"><defs><style>.cls-1,.cls-4{fill:#fff;}.cls-2,.cls-5{fill:#118de8;}.cls-2,.cls-6{opacity:0.5;}.cls-3,.cls-6{fill:#4ee9a4;}.cls-4{opacity:0.64;}</style></defs><g id="Layer_2" data-name="Layer 2"><g id="Layer_2-2" data-name="Layer 2"><path class="cls-1" d="M39.89,18.29a12.63,12.63,0,0,1-.06,1.38,18.33,18.33,0,0,0-12.13.19q0-.57,0-1.14A18.22,18.22,0,0,1,34,4.87,18.2,18.2,0,0,1,39.89,18.29Z"/><path class="cls-2" d="M39.89,18.29a12.63,12.63,0,0,1-.06,1.38,18.33,18.33,0,0,0-12.13.19q0-.57,0-1.14A18.22,18.22,0,0,1,34,4.87,18.2,18.2,0,0,1,39.89,18.29Z"/><path class="cls-3" d="M39.83,19.67a18.22,18.22,0,0,1-6.28,12.47A18.22,18.22,0,0,1,27.7,19.86a18.33,18.33,0,0,1,12.13-.19Z"/><path class="cls-2" d="M39.83,19.67a18.22,18.22,0,0,1-6.28,12.47A18.22,18.22,0,0,1,27.7,19.86a18.33,18.33,0,0,1,12.13-.19Z"/><path class="cls-4" d="M39.83,19.67a18.22,18.22,0,0,1-6.28,12.47A18.22,18.22,0,0,1,27.7,19.86a18.33,18.33,0,0,1,12.13-.19Z"/><path class="cls-5" d="M33.55,32.14a18.38,18.38,0,0,1-17.72,3.52A18.25,18.25,0,0,1,27.7,19.86,18.22,18.22,0,0,0,33.55,32.14Z"/><path class="cls-6" d="M33.55,32.14a18.38,18.38,0,0,1-17.72,3.52A18.25,18.25,0,0,1,27.7,19.86,18.22,18.22,0,0,0,33.55,32.14Z"/><path class="cls-3" d="M52.25,35.86a18.3,18.3,0,0,1-18.7-3.72,18.22,18.22,0,0,0,6.28-12.47A18.25,18.25,0,0,1,52.25,35.86Z"/><path class="cls-4" d="M52.25,35.86a18.3,18.3,0,0,1-18.7-3.72,18.22,18.22,0,0,0,6.28-12.47A18.25,18.25,0,0,1,52.25,35.86Z"/><path class="cls-1" d="M64.91,32.05l-6.24-.24a18.3,18.3,0,0,1-6.42,4.05A18.25,18.25,0,0,0,39.83,19.67a12.63,12.63,0,0,0,.06-1.38A18.2,18.2,0,0,0,34,4.87a18.27,18.27,0,0,1,28.06,22.4Z"/><path class="cls-5" d="M27.67,18.72q0,.57,0,1.14a18.25,18.25,0,0,0-11.87,15.8A18.31,18.31,0,0,1,8,30.49l-8,0,4.94-4.59A18.29,18.29,0,0,1,34,4.87,18.22,18.22,0,0,0,27.67,18.72Z"/><path class="cls-3" d="M47.22,49.6,50.81,53l-7.35-.41A18.27,18.27,0,0,1,15.78,37c0-.44,0-.89.05-1.32a18.38,18.38,0,0,0,17.72-3.52,18.3,18.3,0,0,0,18.7,3.72c0,.37,0,.75,0,1.12A18.2,18.2,0,0,1,47.22,49.6Z"/></g></g></svg>