<?xml version="1.0" encoding="utf-8"?>
<!-- Generator: Adobe Illustrator 27.8.0, SVG Export Plug-In . SVG Version: 6.00 Build 0)  -->
<svg version="1.1" id="Laag_1" xmlns="http://www.w3.org/2000/svg" xmlns:xlink="http://www.w3.org/1999/xlink" x="0px" y="0px"
	 viewBox="0 0 51.5 66.7" style="enable-background:new 0 0 51.5 66.7; background:#E3000B; fill:white" xml:space="preserve">
<path d="M5.1,38L5,38.4l-4-0.1l-0.3-0.3l-0.3,0v2.4c-0.1,1.1,1.1,2.5,2.6,2.5c1.4-0.1,2.1-1.4,2.2-2.7L5.4,38L5.1,38z M4.6,40.5
	c-0.1,0.5-0.8,1.2-1.5,1.3c-1.1,0-2-0.9-2-1.6c0-0.7,0-0.9,0-0.9l3.6,0.1C4.7,39.8,4.7,40,4.6,40.5"/>
<polygon points="2.2,49.5 2.9,51.1 3.1,51 3,50.6 6.6,49 6.8,49.2 7.1,49 6.5,47.7 6.3,47.8 6.3,48.2 2.7,49.7 2.4,49.5 "/>
<path d="M3.3,47.9v0.2l-1,0.2c-0.6-0.4-0.9-0.8-1-1.5c-0.3-1.4,0-2.6,1.8-3.1c1.9-0.6,2.6,0.6,3,2c0.1,0.4,0.1,0.7,0.2,1.2l-1,0.3
	l-0.1-0.2c0.4-0.3,0.5-0.9,0.4-1.4c-0.2-0.8-1.1-1.2-1.8-0.9l0.5,2.3l0.4,0.2l0.1,0.2l-1,0.3l-0.1-0.2l0.2-0.2l-0.6-2.3
	c-0.9,0.1-1.5,1-1.3,1.8C2,47.2,2.6,47.8,3.3,47.9"/>
<path d="M2.6,37c-0.1-0.3,0-0.6,0.3-0.7c0.3-0.1,0.6,0,0.7,0.2c0.1,0.3,0,0.6-0.3,0.8C3,37.4,2.7,37.3,2.6,37"/>
<path d="M5.7,51.4c-0.1-0.3,0-0.6,0.2-0.7c0.2-0.1,0.6,0,0.8,0.3c0.1,0.3,0,0.6-0.3,0.7C6.1,51.8,5.8,51.7,5.7,51.4"/>
<path d="M33.2,62c-0.1-0.3,0-0.6,0.3-0.7c0.3-0.1,0.6,0,0.7,0.3c0.1,0.3,0,0.6-0.3,0.7C33.7,62.4,33.3,62.3,33.2,62"/>
<polygon points="3.7,28 2.9,29.5 3.1,29.6 3.4,29.3 6.9,31.1 6.9,31.4 7.2,31.6 7.8,30.2 7.6,30.1 7.3,30.3 3.9,28.5 3.9,28.2 "/>
<polygon points="5.9,34.8 5.7,34.7 5.4,34.9 2.8,34.3 6.6,32.9 6.9,32 6.6,32 6.4,32.1 2.9,30.7 2.8,30.3 2.6,30.3 2.1,31.5 
	2.5,31.6 2.8,31.4 5.3,32.4 1.3,33.9 1.1,34.5 5.3,35.5 5.5,35.7 5.6,35.7 "/>
<path d="M13.9,58.2L13.9,58.2c0-0.7-0.1-1.2-0.5-1.7l-0.1-0.1l0,0l0,0l0,0l-0.1,0c-0.5-0.4-1-0.5-1.7-0.5c-0.7,0.1-1.4,0.4-1.8,1.1
	c-0.8,1-0.7,2.2,0.1,3.1l0,0h0l0,0l0,0c1,0.8,2.2,0.8,3.1,0C13.5,59.6,13.9,58.9,13.9,58.2 M12.4,59.1c-0.2,0.2-0.7,0.7-1.4,0.7
	c-0.3,0-0.5-0.1-0.7-0.3l-0.1-0.1c-0.2-0.1-0.3-0.3-0.3-0.6c0-0.5,0.4-1.2,0.8-1.5c0.3-0.3,1.3-1.3,2-0.6l0.1,0.1
	C13.6,57.6,12.6,58.9,12.4,59.1"/>
<polygon points="19.6,64.8 21.3,65.2 21.3,65 20.9,64.7 21.7,60.9 22,60.9 22.1,60.5 20.6,60.3 20.5,60.5 20.9,60.8 20.1,64.5 
	19.7,64.6 "/>
<path d="M32.1,63.1l0.2,0l0.3,1c-0.4,0.6-0.8,0.8-1.6,1c-1.4,0.3-2.6,0-3-1.7c-0.6-1.9,0.6-2.6,2-3c0.4-0.1,0.7-0.1,1.2-0.2l0.3,1
	l-0.2,0.1c-0.3-0.4-0.9-0.5-1.4-0.4c-0.8,0.2-1.2,1.1-1,1.8l2.3-0.5l0.2-0.4l0.2-0.1l0.3,1.1l-0.2,0.1l-0.2-0.1l-2.2,0.5
	c0,0.8,0.9,1.5,1.8,1.3C31.5,64.4,32.1,63.8,32.1,63.1"/>
<polygon points="10.3,53.7 10.1,53.9 10.1,54.2 8.2,56.1 9.1,52.2 8.5,51.5 8.3,51.6 8.3,51.9 5.1,54.1 4.8,54 4.6,54.1 5.4,55.2 
	5.7,55 5.8,54.6 7.9,53.1 7,57.2 7.5,57.7 10.5,54.6 10.8,54.6 10.9,54.5 "/>
<polygon points="25.9,60.9 25.9,61.1 26.1,61.3 26.4,64 23.8,60.8 22.9,60.7 23,60.9 23.1,61.2 22.8,65 22.5,65.2 22.5,65.4 
	23.8,65.4 23.8,65.1 23.6,64.8 23.8,62.2 26.4,65.6 27,65.6 26.7,61.3 26.8,61.1 26.9,60.9 "/>
<polygon points="12.5,61.9 12.7,61.6 13,61.6 15.6,58.7 15.4,58.4 15.6,58.2 16.4,58.5 16.3,61.4 17.9,59.5 17.8,59.4 18,59.3 
	19.1,59.7 19.1,60 18.9,60.1 18.4,64 18.7,64.3 18.6,64.6 17.2,64 17.3,63.7 17.6,63.6 17.9,60.6 15.6,63.4 15.1,63.2 15.4,59.7 
	13.5,62 13.7,62.3 13.6,62.5 "/>
<path d="M42.7,56.8l0.2-0.1l0.7,0.8c-0.1,0.7-0.3,1.2-0.9,1.6c-1.1,1-2.3,1.3-3.6,0c-1.3-1.4-0.6-2.7,0.4-3.7
	c0.3-0.3,0.6-0.5,0.9-0.7l0.7,0.8l-0.1,0.2c-0.5-0.2-1,0-1.4,0.3c-0.6,0.5-0.6,1.5,0,2l1.8-1.5l0-0.4l0.2-0.2l0.7,0.7l-0.2,0.2
	l-0.3,0l-1.8,1.7c0.4,0.8,1.5,0.9,2.2,0.3C42.7,58.3,42.9,57.5,42.7,56.8"/>
<path d="M48.2,33v-0.2l1-0.2c0.6,0.4,0.8,0.8,1,1.5c0.3,1.4,0,2.6-1.8,3.1c-1.8,0.6-2.6-0.6-3-2c-0.1-0.4-0.1-0.7-0.2-1.2l1-0.3
	l0.1,0.2c-0.4,0.3-0.5,0.9-0.4,1.4c0.2,0.8,1,1.2,1.8,0.9L47.3,34l-0.4-0.2l-0.1-0.2l1.1-0.3l0,0.2l-0.2,0.3l0.6,2.3
	c0.9,0,1.5-0.9,1.4-1.8C49.6,33.7,48.9,33.1,48.2,33"/>
<path d="M48.8,30.1l-1.2,0.6c0-0.9,0.2-1.9,0.1-2.4c-0.2-0.7-0.4-0.9-1-1.4L46.6,27c0.2,0.3,0.2,0.3,0.4,0.7c0.2,0.6,0.1,1,0,1.7
	c-0.3-0.6-1.1-0.9-1.9-0.7c-1,0.3-1.6,1.3-1.1,2.2l1,2.3l0.3-0.1l0.1-0.2l3.5-1.8l0.2,0.2l0.2-0.1L48.8,30.1z M44.8,32.1
	c-0.4-0.9-0.7-2.3,0.5-2.6c1-0.3,1.6,0.7,1.8,1.5L44.8,32.1z"/>
<path d="M46.2,42.2l0-3.7l-0.3-1l1.3,0.8c-0.1,0-0.2,0.1-0.3,0.1c-0.1,0.1-0.1,0.7-0.2,1.5l4-0.1l0.1-0.2l0.2,0l0,1.4l-0.1,0
	l-0.2-0.3l-4,0.1c0,0.4-0.1,1.1,0.1,1.2c0,0,0.1,0.1,0.2,0.1L46,42.9L46.2,42.2z"/>
<polygon points="50.4,45.6 50.8,44 50.6,44 50.3,44.3 46.4,43.6 46.4,43.3 46,43.3 45.8,44.8 46.1,44.8 46.3,44.5 50.1,45.2 
	50.2,45.5 "/>
<path d="M48.7,46.5l0.2-0.2l0.9,0.4c0.2,0.7,0.2,1.3-0.2,2C49,50,48,50.8,46.2,50.1c-1.8-0.8-1.6-2.2-1-3.6c0.2-0.4,0.4-0.6,0.6-1
	l1,0.4l-0.1,0.3c-0.5,0-0.9,0.3-1.1,0.7c-0.4,0.8,0.2,1.4,0.9,2c0.7,0.5,2.2,0.3,2.6-0.5C49.4,47.8,49.2,47,48.7,46.5"/>
<polygon points="47.4,53.4 48.2,52 48.1,52 47.7,52.2 44.1,50.2 44.2,49.9 43.9,49.8 43.3,51.1 43.6,51.2 43.9,51 47.2,52.9 
	47.3,53.3 "/>
<path d="M44.6,57.1l2.3-2.7l-0.5-1.3l-0.3,0.3c0,0,0.1,0.5,0.1,0.9c-0.1,0.6-1,1.4-1,1.4l-3-2.5l0.1-0.3l-0.3-0.2l-1,1.3l0.3,0.2
	l0.3-0.2l2.9,2.5L44.5,57L44.6,57.1z"/>
<path d="M36.5,63.3l1.3-0.7l-0.1-0.2l-0.3,0l-0.9-1.8c0,0,0.7-0.5,1.2-0.6c0.2-0.1,0.6-0.1,0.6-0.1L37.8,59c0,0-0.2,0.3-0.4,0.4
	c-0.4,0.3-1.3,0.7-1.3,0.7l-0.6-1.3c0,0,0.9-0.6,1.5-0.8c0.2-0.1,0.5-0.1,0.5-0.1s0-0.3,0.1-0.4c0.1-0.2,0.3-0.6,0.3-0.6L34.2,59
	l0.1,0.3l0.4,0l1.8,3.5l-0.1,0.3L36.5,63.3z"/>
<path d="M40.9,17.2l-0.2-0.6h-4.3v-4c0-1.1-0.6-2.3-2-2.7c-1.1-1.3-2.5-2.4-4.2-3.1V3.2h-2.5V0.7h-1.9h0h-1.8v2.5h-2.4v3.6
	c-1.6,0.7-3.1,1.8-4.2,3.1c-1.5,0.5-2,1.6-2,2.7v4H11l-0.2,0.6c-0.5,1.6-0.8,3.3-0.8,5.2c0,5.9,2.2,12.8,4.3,18.1
	c3.2,8.1,7.5,15.4,9.7,17.9c0.5,0.5,1,1,1.7,1h0h0h0.1c0.7,0,1.2-0.5,1.7-1c2.3-2.4,6.6-9.8,9.8-17.9c2.1-5.4,4.3-12.2,4.3-18.1
	C41.6,20.5,41.4,18.7,40.9,17.2 M34.6,12.6v4h-3.9v-4.2c0-0.5,0.1-0.6,0.2-0.7c0.2-0.2,0.7-0.3,2-0.3C34.4,11.4,34.6,12.1,34.6,12.6
	 M31.7,9.7c-0.6,0.1-1.2,0.2-1.7,0.5c-0.6-0.9-1.4-1.5-2.5-1.8V7.8C29.1,8.1,30.6,8.8,31.7,9.7 M29,12.4v4.2h-3.2h0h-3.1l0-4.2
	c0-1.2,0.8-2.6,3.1-2.6h0C28.1,9.8,29,11.2,29,12.4 M22.8,4.5h2.4V2h0.5h0h0.5v2.4h2.5v1.1h-2.5v2.5h-0.5h0h-0.5V5.6h-2.4V4.5z
	 M23.9,7.8v0.6c-1,0.3-1.9,0.9-2.4,1.8c-0.5-0.3-1.1-0.4-1.6-0.5C21,8.8,22.4,8.1,23.9,7.8 M17,12.6c0-0.5,0.2-1.2,1.7-1.2
	c1.2,0,1.7,0.2,1.9,0.3c0.1,0.1,0.2,0.2,0.2,0.7c0,0,0,2.7,0,4.2H17V12.6z M25.7,18.3L25.7,18.3h13.6c0.1,0.3,0.1,0.5,0.2,0.8h-6.4
	c-2.7,0-3.9,0.7-3.9,2.2c0,0.5,0.3,1,0.7,1.4c-0.3,0.1-1.6,0.6-1.8,0.7c-0.2-0.2-0.4-0.5-0.5-0.9c0.1-0.2,0.4-0.6,0.4-1.3
	c0-1-0.7-2-2.4-2c-0.8,0-1.3,0.3-1.7,0.6l-0.1,0.1c-0.7,0.2-1.2,0.7-1.2,1.3v0.7c0,0,0.3,0,0.5,0.1c0.2,0.1,0.3,0.2,0.4,0.3
	c0.2,0.3,0,0.9-0.4,1.1c-0.2-0.1-1.5-0.5-1.8-0.7c0.4-0.4,0.7-0.9,0.7-1.4c0-1.6-1.2-2.2-3.9-2.2H12c0.1-0.3,0.1-0.6,0.2-0.8H25.7z
	 M13.2,31.8c-0.3-0.9-0.5-1.8-0.7-2.7c1.9-0.3,6.6-1,9.8-1.5L13.2,31.8z M23.2,29.1l-1.8,2.7h-4L23.2,29.1z M13.7,33.5H22v4h-7
	C14.5,36.1,14.1,34.8,13.7,33.5 M22,52.4c-1.2-2.1-2.6-4.7-3.9-7.5H22V52.4z M29.6,52.4v-7.5h3.9C32.2,47.7,30.8,50.2,29.6,52.4
	 M35.7,39.9c-0.5,1.1-0.9,2.2-1.4,3.3h-5.5h-0.9V55c-0.6,0.9-1.2,1.6-1.7,2.1c-0.1,0.1-0.3,0.3-0.5,0.4c-0.1-0.1-0.3-0.3-0.5-0.4
	c-0.5-0.5-1-1.2-1.7-2.1V43.2h-0.8h-5.5c-0.5-1.1-1-2.2-1.4-3.3c-0.1-0.2-0.2-0.4-0.3-0.6h8v-5.7h2.1h0h2.1v5.7h8.1
	C35.9,39.4,35.8,39.6,35.7,39.9 M23.5,31.8l1.4-2.2v2.2H23.5z M26.6,31.8v-2.2l1.4,2.2H26.6z M36.6,37.5h-7v-4h8.3
	C37.5,34.8,37.1,36.1,36.6,37.5 M28.3,29.1l5.8,2.7h-4L28.3,29.1z M38.4,31.8L38.4,31.8l-9.2-4.2c3.2,0.5,8,1.2,9.9,1.5
	C38.9,30,38.7,30.9,38.4,31.8 M39.4,27.5l-10.9-1.7c0.1,0.3,0.2,0.7,0.2,1.1c0,1.6-1.3,2.8-2.8,2.8l-0.1,0h0l-0.1,0
	c-1.6,0-2.8-1.3-2.8-2.8c0-0.4,0.1-0.8,0.2-1.1l-10.9,1.7c-0.3-1.9-0.5-3.6-0.5-5.1c0-0.6,0-1.1,0.1-1.6h6.5c1.8,0,1.9,0.2,2,0.3
	c0.1,0.1,0.2,0.4,0,0.5c-0.4,0.2-1,0.5-1,1.4v0c0,0.7,0.6,1,2.1,1.6c0.4,0.2,1.9,0.8,1.9,0.8l0.3-0.2c0.5-0.3,1.6-1,1.6-2.3
	c0-0.2,0-0.3,0-0.4c0-0.2-0.1-0.3-0.2-0.5v0c-0.2-0.4-0.5-0.6-0.5-0.6s0.1-0.6,1-0.7l0,0l0.1,0h0.1c0.4,0,0.7,0.4,0.7,0.8
	c0,0.5-0.3,0.6-0.3,1.3c0,1.3,1.1,2,1.6,2.3l0.3,0.2c0,0,1.5-0.6,1.9-0.8c1.5-0.6,2.1-0.9,2.1-1.6v0c0-0.9-0.6-1.2-1-1.4
	c-0.2-0.1-0.2-0.4,0-0.5c0.1-0.1,0.2-0.3,2-0.3h6.7c0,0.5,0.1,1,0.1,1.6C39.9,23.9,39.7,25.6,39.4,27.5"/>
</svg>
