<?xml version="1.0" encoding="UTF-8"?>
<svg id="Layer_1" data-name="Layer 1" xmlns="http://www.w3.org/2000/svg" viewBox="0 0 252 275.5">
  <defs>
    <style>
      .cls-1 {
        fill: #008fee;
      }

      .cls-1, .cls-2 {
        stroke-width: 0px;
      }

      .cls-2 {
        fill: #fff;
      }
    </style>
  </defs>
  <path class="cls-1" d="M110.36,271.8L13.99,216.16c-6.29-3.63-11.39-13.37-11.39-21.75v-106.35c0-8.38,5.1-12.24,11.39-8.61l96.37,55.64c6.29,3.63,11.39,13.37,11.39,21.75v106.35c0,8.38-5.1,12.24-11.39,8.61Z"/>
  <path class="cls-1" d="M140.64,271.8l96.37-55.64c6.29-3.63,11.39-13.37,11.39-21.75v-106.35c0-8.38-5.1-12.24-11.39-8.61l-96.37,55.64c-6.29,3.63-11.39,13.37-11.39,21.75v106.35c0,8.38,5.1,12.24,11.39,8.61Z"/>
  <polygon class="cls-2" points="79.4 177.94 60.71 149.28 42.02 156.36 42.02 95.6 79.4 117.18 79.4 177.94"/>
  <path class="cls-2" d="M159.74,182.96c-.06.26-.11.52-.16.77-2.24,10.93-1.07,20.34,3.3,26.5.7.98,1.47,1.86,2.3,2.64.03.03.06.05.09.08.08.07.15.14.23.2.08.07.17.15.25.22.03.02.06.05.09.07,3.41,2.85,7.9,4.16,13.25,3.52.04,0,.09-.01.13-.02.18-.02.36-.05.55-.07.23-.03.47-.07.7-.11,0,0,0,0,0,0,0,0,0,0,0,0,.42-.07.84-.16,1.27-.26.18-.04.36-.09.54-.14.25-.06.49-.12.74-.19.22-.06.44-.13.67-.2.2-.06.41-.12.61-.19.24-.08.48-.17.72-.25.19-.07.38-.13.56-.2.2-.08.4-.16.61-.24.23-.09.46-.18.69-.28.13-.05.26-.12.39-.17,1.16-.51,2.32-1.08,3.49-1.73,0,0,0,0,0,0,0,0,0,0,0,0,1.07-.6,2.15-1.26,3.21-1.98.09-.06.17-.12.26-.18.26-.18.53-.36.79-.55.14-.1.28-.2.41-.3.21-.16.43-.31.64-.47.15-.11.29-.23.44-.34.2-.16.41-.31.61-.47.14-.11.27-.22.41-.33.21-.17.42-.34.64-.52.11-.09.22-.19.34-.28.24-.2.47-.39.7-.6.08-.07.15-.14.23-.2.27-.24.54-.47.8-.71.03-.03.06-.06.09-.09,2.33-2.13,4.6-4.51,6.74-7.12l13.49-2.49-5.65-8.96c3.24-5.78,5.67-11.74,7.21-17.73,1.28-4.95,1.86-9.59,1.81-13.79-.13-14.22-7.43-23.39-19.21-22.7-.9.05-1.82.16-2.77.33,0,0,0,0,0,0,0,0,0,0,0,0-.08.01-.16.03-.25.05-.16.03-.33.06-.49.09-.21.04-.43.09-.64.14-.03,0-.06.01-.1.02-7.65,1.81-15.53,7.12-22.38,14.53,0,0,0,0,0,0,0,0,0,0,0,0,0,0,0,0,0,0h0s-.01.02-.02.02c-.25.27-.5.54-.74.81-.05.06-.1.12-.15.17-.21.23-.41.46-.61.69-.02.02-.04.05-.06.07-2.2,2.54-4.28,5.3-6.2,8.22-4.24,6.48-7.65,13.75-9.72,21.26-.1.36-.2.73-.29,1.09,0,0,0,0,0,0,0,0,0,0,0,0,0,.02-.01.05-.02.07-.06.25-.13.5-.19.75-.03.13-.06.26-.09.38-.03.13-.06.27-.1.4-.05.2-.09.4-.13.6-.01.05-.02.11-.04.16ZM180.71,177.87s0,0,0,0c0,0,0,0,0,0h0ZM181.19,175.85c-.06.29-.13.58-.2.87h0c.07-.29.13-.58.2-.87,0,0,0,0,0,0ZM181.71,173.28c-.13.74-.28,1.49-.45,2.25,0,.02-.01.05-.02.07h0s.01-.05.02-.07c.17-.76.31-1.51.45-2.25h0Z"/>
  <path class="cls-1" d="M114.49,128.44L18.12,72.81c-6.29-3.63-5.5-9.97,1.76-14.16L111.98,5.47c7.26-4.19,18.24-4.65,24.53-1.02l96.37,55.64c6.29,3.63,5.5,9.97-1.76,14.16l-92.1,53.17c-7.26,4.19-18.24,4.65-24.53,1.02Z"/>
  <g>
    <polygon class="cls-2" points="85.21 111.54 47.39 89.71 165.79 21.35 203.61 43.19 85.21 111.54"/>
    <path class="cls-2" d="M85.21,111.61l-.03-.02-37.9-21.88.08-.05L165.79,21.29l.03.02,37.9,21.88-.08.05-118.42,68.37ZM47.5,89.71l37.71,21.77,118.28-68.29-37.71-21.77L47.5,89.71Z"/>
  </g>
</svg>