<?xml version="1.0" encoding="utf-8"?>
<!-- Generator: Adobe Illustrator 26.0.1, SVG Export Plug-In . SVG Version: 6.00 Build 0)  -->
<svg version="1.1" id="Layer_1" xmlns="http://www.w3.org/2000/svg" xmlns:xlink="http://www.w3.org/1999/xlink" x="0px" y="0px"
	 viewBox="0 0 4546.6 739" style="enable-background:new 0 0 4546.6 739;" xml:space="preserve">
<style type="text/css">
	.st0{fill:#FFFFFF;}
	.st1{opacity:0.5;fill:#118DE8;}
	.st2{fill:#4EE9A4;}
	.st3{opacity:0.64;fill:#FFFFFF;}
	.st4{fill:#118DE8;}
	.st5{opacity:0.5;fill:#4EE9A4;}
</style>
<g>
	<path class="st0" d="M527.1,247c0,6.1-0.2,12.2-0.7,18.2c-24.1-8-49.7-12.4-76.5-12.4c-29.4,0-57.5,5.3-83.6,14.9
		c-0.3-5-0.5-10.1-0.5-15.1c0-73.1,32.5-138.5,83.9-182.7C497.3,113.9,527.1,177,527.1,247z"/>
	<path class="st1" d="M527.1,247c0,6.1-0.2,12.2-0.7,18.2c-24.1-8-49.7-12.4-76.5-12.4c-29.4,0-57.5,5.3-83.6,14.9
		c-0.3-5-0.5-10.1-0.5-15.1c0-73.1,32.5-138.5,83.9-182.7C497.3,113.9,527.1,177,527.1,247z"/>
	<path class="st2" d="M526.4,265.2c-4.8,65.7-36,124-82.9,164.5c-44.3-40.8-73.2-98-77.2-162c26.1-9.6,54.1-14.9,83.6-14.9
		C476.7,252.8,502.4,257.2,526.4,265.2z"/>
	<path class="st1" d="M526.4,265.2c-4.8,65.7-36,124-82.9,164.5c-44.3-40.8-73.2-98-77.2-162c26.1-9.6,54.1-14.9,83.6-14.9
		C476.7,252.8,502.4,257.2,526.4,265.2z"/>
	<path class="st3" d="M526.4,265.2c-4.8,65.7-36,124-82.9,164.5c-44.3-40.8-73.2-98-77.2-162c26.1-9.6,54.1-14.9,83.6-14.9
		C476.7,252.8,502.4,257.2,526.4,265.2z"/>
	<path class="st4" d="M443.5,429.7c-42.3,36.7-97.5,58.7-157.7,58.7c-26.6,0-52.1-4.3-76.1-12.3c6.9-96,70-176.5,156.6-208.5
		C370.2,331.7,399.2,388.9,443.5,429.7z"/>
	<path class="st5" d="M443.5,429.7c-42.3,36.7-97.5,58.7-157.7,58.7c-26.6,0-52.1-4.3-76.1-12.3c6.9-96,70-176.5,156.6-208.5
		C370.2,331.7,399.2,388.9,443.5,429.7z"/>
	<path class="st2" d="M690.3,478.8c-25.9,9.6-54,14.8-83.3,14.8c-63.1,0-120.5-24.2-163.5-63.9c46.9-40.5,78.1-98.8,82.9-164.5
		C617.5,295.6,684.2,379,690.3,478.8z"/>
	<path class="st3" d="M690.3,478.8c-25.9,9.6-54,14.8-83.3,14.8c-63.1,0-120.5-24.2-163.5-63.9c46.9-40.5,78.1-98.8,82.9-164.5
		C617.5,295.6,684.2,379,690.3,478.8z"/>
	<path class="st0" d="M857.3,428.6l-82.4-3.2c-24,23.3-52.7,41.6-84.7,53.4c-6-99.8-72.8-183.2-163.9-213.6c0.5-6,0.7-12.1,0.7-18.2
		c0-70-29.8-133.1-77.5-177.1c42.2-36.5,97.2-58.4,157.3-58.4c133.1,0,241,108,241,241.1c0,40.8-10.1,79.2-28,112.8L857.3,428.6z"/>
	<path class="st4" d="M365.8,252.6c0,5,0.2,10.1,0.5,15.1c-86.6,32-149.8,112.5-156.6,208.5c-40.4-13.4-76.1-37.2-103.8-68.2
		L0.7,407.4l65.2-60.5c-13.8-30.4-21.6-64.2-21.6-99.9C44.3,113.7,152.4,5.6,285.7,5.6c63.3,0,120.9,24.3,164,64.3
		C398.3,114,365.8,179.5,365.8,252.6z"/>
	<path class="st2" d="M623.9,660.1l47.4,45.4l-97-5.5c-36.3,21.9-78.9,34.5-124.4,34.5c-133,0-240.9-107.8-240.9-240.9
		c0-5.9,0.2-11.7,0.6-17.5c24,8,49.5,12.3,76.1,12.3c60.3,0,115.4-22,157.7-58.7c43,39.7,100.4,63.9,163.5,63.9
		c29.3,0,57.4-5.2,83.3-14.8c0.3,4.9,0.5,9.9,0.5,14.8C690.7,558.2,665.3,616.9,623.9,660.1z"/>
</g>
<path class="st0" d="M1244.6,85.4c44,0,82,7.8,113.9,23.2c31.9,15.5,56.9,37.5,74.9,66c18,28.5,27,62.9,27,103.2
	c0,39.7-9,73.9-27,102.7c-18,28.8-42.9,51-74.9,66.5c-31.9,15.5-69.9,23.2-113.9,23.2h-136.7V699h-99.5V85.4H1244.6z M1228.8,384.8
	c44,0,76.4-9.1,97.2-27.4c20.8-18.3,31.2-44.8,31.2-79.5c0-35.3-10.4-62.1-31.2-80.4c-20.8-18.3-53.2-27.4-97.2-27.4h-120.9v214.8
	H1228.8z"/>
<path class="st0" d="M1677.9,708.3c-30.4,0-58.4-5.6-84.1-16.7c-25.7-11.2-46.3-29.1-61.8-53.9c-15.5-24.8-23.2-57-23.2-96.7V234.1
	h99.5v281.7c0,42.2,9,71.1,27,86.9c18,15.8,43.1,23.7,75.3,23.7c15.5,0,30.5-2.6,45.1-7.9c14.6-5.3,27.7-13.6,39.5-25.1
	c11.8-11.5,20.9-26.2,27.4-44.2s9.8-39.1,9.8-63.2v-252h99.5V699h-87.4l-4.6-75.3c-16.1,29.1-37.8,50.5-65.1,64.2
	C1747.3,701.5,1715.1,708.3,1677.9,708.3z"/>
<path class="st0" d="M2271.1,708.3c-27.3,0-52.2-5.3-74.8-15.8c-22.6-10.5-41.7-25.3-57.2-44.2c-15.5-18.9-27-40.1-34.4-63.7
	l12.1-15.8l-7.4,130.2h-87.4V24.9h99.5v326.4l-11.2-15.8c11.8-32.2,31.9-58.7,60.4-79.5c28.5-20.8,62.9-31.2,103.2-31.2
	c37.2,0,71.4,9.6,102.7,28.8c31.3,19.2,55.9,46.8,73.9,82.8c18,36,27,79.7,27,131.1c0,50.2-9.2,93.3-27.4,129.2
	c-18.3,36-43.1,63.6-74.4,82.8C2344.4,698.7,2309.5,708.3,2271.1,708.3z M2249.7,628.4c40.3,0,71.7-14.4,94.4-43.2
	c22.6-28.8,33.9-68.3,33.9-118.5s-11.2-89.6-33.5-118.1c-22.3-28.5-53.6-42.8-93.9-42.8c-26,0-48.7,6.7-67.9,20
	c-19.2,13.3-34.3,32.1-45.1,56.3c-10.9,24.2-16.3,53-16.3,86.5c0,32.9,5.3,61.2,15.8,85.1c10.5,23.9,25.6,42.3,45.1,55.3
	C2201.8,621.9,2224.3,628.4,2249.7,628.4z"/>
<path class="st4" d="M2646.7,85.4V699h-99.5V85.4H2646.7z M3000.1,345.7v85.5h-402.6v-85.5H3000.1z M3050.3,85.4V699h-100.4V85.4
	H3050.3z"/>
<path class="st4" d="M3311.5,708.3c-30.4,0-58.4-5.6-84.1-16.7c-25.7-11.2-46.3-29.1-61.8-53.9c-15.5-24.8-23.2-57-23.2-96.7V234.1
	h99.5v281.7c0,42.2,9,71.1,27,86.9c18,15.8,43.1,23.7,75.3,23.7c15.5,0,30.5-2.6,45.1-7.9c14.6-5.3,27.7-13.6,39.5-25.1
	c11.8-11.5,20.9-26.2,27.4-44.2s9.8-39.1,9.8-63.2v-252h99.5V699H3478l-4.6-75.3c-16.1,29.1-37.8,50.5-65.1,64.2
	C3381,701.5,3348.7,708.3,3311.5,708.3z"/>
<path class="st4" d="M3904.8,708.3c-27.3,0-52.2-5.3-74.8-15.8c-22.6-10.5-41.7-25.3-57.2-44.2c-15.5-18.9-27-40.1-34.4-63.7
	l12.1-15.8L3743,699h-87.4V24.9h99.5v326.4l-11.2-15.8c11.8-32.2,31.9-58.7,60.4-79.5c28.5-20.8,62.9-31.2,103.2-31.2
	c37.2,0,71.4,9.6,102.7,28.8c31.3,19.2,55.9,46.8,73.9,82.8c18,36,27,79.7,27,131.1c0,50.2-9.2,93.3-27.4,129.2
	c-18.3,36-43.1,63.6-74.4,82.8C3978,698.7,3943.2,708.3,3904.8,708.3z M3883.4,628.4c40.3,0,71.7-14.4,94.4-43.2
	c22.6-28.8,33.9-68.3,33.9-118.5s-11.2-89.6-33.5-118.1c-22.3-28.5-53.6-42.8-93.9-42.8c-26,0-48.7,6.7-67.9,20
	c-19.2,13.3-34.3,32.1-45.1,56.3c-10.9,24.2-16.3,53-16.3,86.5c0,32.9,5.3,61.2,15.8,85.1c10.5,23.9,25.6,42.3,45.1,55.3
	C3835.5,621.9,3857.9,628.4,3883.4,628.4z"/>
<path class="st4" d="M4350.1,708.3c-46.5,0-89-9-127.4-27c-38.4-18-68.8-43.4-91.1-76.2l68.8-59.5c13.6,25.4,33.3,45.7,59,60.9
	c25.7,15.2,56.6,22.8,92.5,22.8c28.5,0,51.1-5,67.9-14.9c16.7-9.9,25.1-23.8,25.1-41.8c0-11.8-3.9-22.2-11.6-31.2
	c-7.8-9-22.5-15.9-44.2-20.9l-97.6-20.5c-49.6-9.9-84.9-25.9-106-47.9c-21.1-22-31.6-50.1-31.6-84.1c0-25.4,7.4-49,22.3-70.7
	c14.9-21.7,36.7-39.2,65.5-52.5c28.8-13.3,63.4-20,103.7-20c46.5,0,86.2,8.2,119,24.6c32.8,16.4,58,39.8,75.3,70.2l-68.8,57.7
	c-11.8-24.8-29.1-43.2-52.1-55.3c-22.9-12.1-46.8-18.1-71.6-18.1c-19.9,0-36.9,2.5-51.1,7.4c-14.3,5-25.1,11.8-32.5,20.5
	c-7.4,8.7-11.2,18.9-11.2,30.7c0,12.4,4.7,23.2,14,32.5c9.3,9.3,26,16.4,50.2,21.4l106,22.3c44.6,8.7,76.1,23.4,94.4,44.2
	c18.3,20.8,27.4,46,27.4,75.8c0,29.7-7.8,55.9-23.2,78.6c-15.5,22.6-37.8,40.1-66.9,52.5C4425.1,702.1,4390.4,708.3,4350.1,708.3z"
	/>
</svg>
