<?xml version="1.0" encoding="utf-8"?>
<!-- Generator: Adobe Illustrator 26.0.3, SVG Export Plug-In . SVG Version: 6.00 Build 0)  -->
<svg version="1.1" id="Layer_1" xmlns="http://www.w3.org/2000/svg" xmlns:xlink="http://www.w3.org/1999/xlink" x="0px" y="0px"
	 viewBox="0 0 450.3 949.2" style="enable-background:new 0 0 450.3 949.2;" xml:space="preserve">
<style type="text/css">
	.st0{fill:none;}
	.st1{fill:#FFFFFF;}
	.st2{fill:#118DE8;}
</style>
<rect x="164.7" y="26.5" class="st0" width="287.2" height="516.8"/>
<g>
	<path class="st1" d="M738.2,331.2c50.1,198.7-70.2,400.1-268.9,450.3c-102.3,26-210.9,7-298-52.3L14.4,767.9l74.3-114.6l0.2,0.2
		C55.7,612.1,31.9,564,19,512.6C-30.9,314.1,89.4,112.5,288.1,62.5S688.2,132.7,738.2,331.2z"/>
</g>
<g>
	<g>
		<g>
			<path class="st1" d="M225.4,876.9h-12.2l-2.6,7.7h-6.8l11.6-31.7h7.9l11.6,31.7h-6.9L225.4,876.9z M223.7,872l-3-8.9l-1.4-4.8
				h-0.1l-1.3,4.7l-3,9H223.7z"/>
			<path class="st1" d="M263.2,872.7c0,7.8-3.9,12.4-10.3,12.4c-3.8,0-6.7-2.1-8.1-5.1l-0.2,4.7h-5.8v-34.5h6.6v14.5
				c1.4-2.7,4-4.5,7.5-4.5C259.3,860.1,263.2,864.8,263.2,872.7z M256.6,872.6c0-4.9-2.1-7.4-5.6-7.4c-3.5,0-5.6,2.6-5.6,7.2v0.5
				c0,4.7,2.2,7.2,5.6,7.2C254.5,880.1,256.6,877.5,256.6,872.6z"/>
			<path class="st1" d="M292.4,872.6c0,7.8-4.6,12.5-12.3,12.5s-12.3-4.7-12.3-12.5s4.6-12.5,12.3-12.5S292.4,864.8,292.4,872.6z
				 M274.4,872.6c0,5.1,2,7.6,5.7,7.6s5.7-2.5,5.7-7.6c0-5.1-2-7.6-5.7-7.6S274.4,867.5,274.4,872.6z"/>
			<path class="st1" d="M320.8,860.6v24H315l-0.2-4.1c-1.6,3.2-4.6,4.6-8.4,4.6c-4.8,0-8.4-2.4-8.4-8.6v-15.9h6.6v14.2
				c0,3.9,1.6,5.1,4.2,5.1c3.1,0,5.6-2,5.6-6.4v-12.9H320.8z"/>
			<path class="st1" d="M344.2,883.1c-1.5,1.2-4,2-6.6,2c-4.8,0-8-2-8-7.2v-12.3h-4.4v-4.9h4.4v-5.5l6.6-1.8v7.3h7.8v4.9h-7.8v11.3
				c0,2.3,1.2,3.3,3.3,3.3c1.6,0,2.7-0.5,3.7-1.3L344.2,883.1z"/>
			<path class="st1" d="M232.3,920.7c0,6.3-4.3,10-11.7,10h-6.7v11.5h-6.6v-31.7h13.3C227.9,910.5,232.3,914.2,232.3,920.7z
				 M225.5,920.7c0-3.2-1.8-4.8-6-4.8h-5.7v9.7h5.7C223.7,925.6,225.5,923.9,225.5,920.7z"/>
			<path class="st1" d="M260.4,918.2v24h-5.9l-0.2-4.1c-1.6,3.2-4.6,4.6-8.4,4.6c-4.8,0-8.4-2.4-8.4-8.6v-15.9h6.6v14.2
				c0,3.9,1.6,5.1,4.2,5.1c3.1,0,5.6-2,5.6-6.4v-12.9H260.4z"/>
			<path class="st1" d="M291.7,930.3c0,7.8-3.9,12.4-10.3,12.4c-3.8,0-6.7-2.1-8.1-5.1l-0.2,4.7h-5.8v-34.5h6.6v14.5
				c1.4-2.7,4-4.5,7.5-4.5C287.8,917.7,291.7,922.4,291.7,930.3z M285.1,930.2c0-4.9-2.1-7.4-5.6-7.4c-3.5,0-5.6,2.6-5.6,7.2v0.5
				c0,4.7,2.2,7.2,5.6,7.2C283,937.7,285.1,935.1,285.1,930.2z"/>
			<path class="st1" d="M325.1,910.5v31.7h-6.6v-13.3h-14v13.3h-6.6v-31.7h6.6v13h14v-13H325.1z"/>
			<path class="st1" d="M355.4,918.2v24h-5.9l-0.2-4.1c-1.6,3.2-4.6,4.6-8.4,4.6c-4.8,0-8.4-2.4-8.4-8.6v-15.9h6.6v14.2
				c0,3.9,1.6,5.1,4.2,5.1c3.1,0,5.6-2,5.6-6.4v-12.9H355.4z"/>
			<path class="st1" d="M386.7,930.3c0,7.8-3.9,12.4-10.3,12.4c-3.8,0-6.7-2.1-8.1-5.1l-0.2,4.7h-5.8v-34.5h6.6v14.5
				c1.4-2.7,4-4.5,7.5-4.5C382.7,917.7,386.7,922.4,386.7,930.3z M380.1,930.2c0-4.9-2.1-7.4-5.6-7.4c-3.5,0-5.6,2.6-5.6,7.2v0.5
				c0,4.7,2.2,7.2,5.6,7.2C377.9,937.7,380.1,935.1,380.1,930.2z"/>
			<path class="st1" d="M390.7,938.1l3.8-3.9c1.3,2.9,3.9,3.7,7.2,3.7c2.8,0,4.4-0.9,4.4-2.2c0-1.1-1.3-1.8-4.8-2.5
				c-7.5-1.5-10-3.8-10-7.8c0-3.9,3.7-7.7,10.8-7.7c5.5,0,8.5,1.6,10.7,5.1l-4.1,3.5c-1.4-2.5-3.3-3.7-6.5-3.7
				c-2.7,0-4.3,1.1-4.3,2.3c0,1.3,1.2,2.1,5.2,2.9c7,1.4,9.6,3.5,9.6,7.5c0,4.3-3.8,7.4-10.9,7.4
				C396.9,942.7,392.9,941.3,390.7,938.1z"/>
		</g>
	</g>
	<path class="st2" d="M408.7,857.5c2.7,10.8-3.8,21.7-14.6,24.4c-5.8,1.5-11.6,0.3-16.2-2.8l-8.5,2.1l4-6.2l0,0
		c-1.7-2.2-3.1-4.7-3.8-7.6c-2.7-10.8,3.8-21.7,14.6-24.4C395,840.2,405.9,846.8,408.7,857.5z"/>
</g>
</svg>
