<svg xmlns="http://www.w3.org/2000/svg" viewBox="0 0 208.61 100.37"><defs><style>.cls-1{fill:#fff;}.cls-2{fill:#118de8;}</style></defs><g id="Layer_2" data-name="Layer 2"><g id="Layer_2-2" data-name="Layer 2"><path class="cls-1" d="M31.63,42.29H24.77l-2.64-7.73H10L7.34,42.29H.58L12.14,10.61h7.92ZM11.47,29.66h9.17L16,15.84Z" transform="translate(-0.58)"/><path class="cls-1" d="M49.78,42.77a8.47,8.47,0,0,1-4-.94,8.35,8.35,0,0,1-3-2.59,9.94,9.94,0,0,1-1.61-3.72l.68-.86-.39,7.63H35.66V7.78h6.58V25.05l-.62-1a8.75,8.75,0,0,1,2.92-4.47A8.28,8.28,0,0,1,50,17.81a9.24,9.24,0,0,1,5.16,1.48,10.18,10.18,0,0,1,3.6,4.28,15.69,15.69,0,0,1,1.32,6.77A15.47,15.47,0,0,1,58.73,37a10,10,0,0,1-3.65,4.27A9.64,9.64,0,0,1,49.78,42.77Zm-2-5A5,5,0,0,0,52,35.83a8.71,8.71,0,0,0,1.51-5.54A8.89,8.89,0,0,0,52,24.74a5,5,0,0,0-4.12-1.89,4.88,4.88,0,0,0-3,.91,6,6,0,0,0-2,2.59,10.47,10.47,0,0,0-.69,4,10.45,10.45,0,0,0,.69,4,5.51,5.51,0,0,0,2,2.54A5,5,0,0,0,47.81,37.73Z" transform="translate(-0.58)"/><path class="cls-1" d="M76.7,17.81a13.33,13.33,0,0,1,6.41,1.48,10.72,10.72,0,0,1,4.32,4.28A13.52,13.52,0,0,1,89,30.29,13.56,13.56,0,0,1,87.43,37a10.59,10.59,0,0,1-4.32,4.3,14.47,14.47,0,0,1-12.79,0A10.54,10.54,0,0,1,66,37a13.56,13.56,0,0,1-1.55-6.69A13.52,13.52,0,0,1,66,23.57a10.67,10.67,0,0,1,4.35-4.28A13.32,13.32,0,0,1,76.7,17.81Zm0,4.89a5.47,5.47,0,0,0-3.09.84,5.25,5.25,0,0,0-2,2.52A11.44,11.44,0,0,0,71,30.29a11.42,11.42,0,0,0,.67,4.22,5.25,5.25,0,0,0,2,2.52,5.47,5.47,0,0,0,3.09.84,5.4,5.4,0,0,0,3-.84,5.17,5.17,0,0,0,1.94-2.52,11.4,11.4,0,0,0,.68-4.22,11.42,11.42,0,0,0-.68-4.23,5.17,5.17,0,0,0-1.94-2.52A5.4,5.4,0,0,0,76.7,22.7Z" transform="translate(-0.58)"/><path class="cls-1" d="M102.86,42.77a10.35,10.35,0,0,1-4.32-.87,6.59,6.59,0,0,1-3-2.76,9.43,9.43,0,0,1-1.13-4.92V18.29h6.57V32.64c0,1.86.39,3.14,1.15,3.86a4.69,4.69,0,0,0,3.32,1.08,5.62,5.62,0,0,0,2-.36,4.61,4.61,0,0,0,1.7-1.13,5.3,5.3,0,0,0,1.17-2,8.63,8.63,0,0,0,.44-2.9V18.29h6.57v24h-5.85l-.24-4.18a7.86,7.86,0,0,1-3.29,3.53A10.46,10.46,0,0,1,102.86,42.77Z" transform="translate(-0.58)"/><path class="cls-1" d="M140.35,18.29v4.89H121.68V18.29Zm-7.68-7.35V34.46a3.2,3.2,0,0,0,.89,2.52,3.5,3.5,0,0,0,2.42.8,5.7,5.7,0,0,0,2.14-.36,5.92,5.92,0,0,0,1.61-1l1.05,4.37a8.64,8.64,0,0,1-2.88,1.44,12.49,12.49,0,0,1-3.65.53,11.59,11.59,0,0,1-4.24-.72,5.81,5.81,0,0,1-2.88-2.31,7.6,7.6,0,0,1-1-4.22V12.77Z" transform="translate(-0.58)"/><path class="cls-1" d="M17.42,68.21a14.41,14.41,0,0,1,6.24,1.22,9.28,9.28,0,0,1,4,3.5,11.36,11.36,0,0,1,0,11,9.21,9.21,0,0,1-4,3.5,14.41,14.41,0,0,1-6.24,1.22H10.75V99.89H4.13V68.21Zm-1,15.21a6.7,6.7,0,0,0,4.46-1.27,5.41,5.41,0,0,0,0-7.46,6.76,6.76,0,0,0-4.46-1.25H10.75v10Z" transform="translate(-0.58)"/><path class="cls-1" d="M42.82,100.37a10.32,10.32,0,0,1-4.32-.87,6.61,6.61,0,0,1-3-2.76,9.53,9.53,0,0,1-1.13-4.92V75.89H40.9V90.24c0,1.85.38,3.14,1.15,3.86a4.66,4.66,0,0,0,3.31,1.08,5.58,5.58,0,0,0,2-.36A4.45,4.45,0,0,0,49,93.69a5.32,5.32,0,0,0,1.18-2,8.64,8.64,0,0,0,.43-2.9V75.89h6.58v24H51.36l-.24-4.18a7.86,7.86,0,0,1-3.29,3.53A10.41,10.41,0,0,1,42.82,100.37Z" transform="translate(-0.58)"/><path class="cls-1" d="M78.24,100.37a8.62,8.62,0,0,1-4-.94,8.24,8.24,0,0,1-3-2.59,9.78,9.78,0,0,1-1.61-3.72l.67-.87-.38,7.64H64.13V65.38H70.7V82.65l-.62-1A8.77,8.77,0,0,1,73,77.18a8.28,8.28,0,0,1,5.42-1.77,9.24,9.24,0,0,1,5.16,1.48,10.18,10.18,0,0,1,3.6,4.28,15.67,15.67,0,0,1,1.32,6.76,15.48,15.48,0,0,1-1.32,6.68,10,10,0,0,1-3.65,4.27A9.64,9.64,0,0,1,78.24,100.37Zm-2-5a5,5,0,0,0,4.15-1.9,8.71,8.71,0,0,0,1.52-5.54,8.89,8.89,0,0,0-1.49-5.55,5.41,5.41,0,0,0-7.11-1A5.9,5.9,0,0,0,71.4,84a11.69,11.69,0,0,0,0,8,5.45,5.45,0,0,0,2,2.54A5,5,0,0,0,76.27,95.33Z" transform="translate(-0.58)"/><path class="cls-1" d="M101.23,68.21V99.89H94.61V68.21Zm17.43,13v5.33H97.92V81.21Zm3.16-13V99.89H115.2V68.21Z" transform="translate(-0.58)"/><path class="cls-1" d="M137.52,100.37a10.35,10.35,0,0,1-4.32-.87,6.61,6.61,0,0,1-3-2.76A9.53,9.53,0,0,1,129,91.82V75.89h6.58V90.24c0,1.85.38,3.14,1.15,3.86a4.66,4.66,0,0,0,3.31,1.08,5.54,5.54,0,0,0,2-.36,4.56,4.56,0,0,0,1.71-1.13,5.44,5.44,0,0,0,1.17-2,8.64,8.64,0,0,0,.43-2.9V75.89h6.58v24h-5.86l-.24-4.18a7.84,7.84,0,0,1-3.28,3.53A10.48,10.48,0,0,1,137.52,100.37Z" transform="translate(-0.58)"/><path class="cls-1" d="M172.94,100.37a8.58,8.58,0,0,1-4-.94,8.27,8.27,0,0,1-3-2.59,9.94,9.94,0,0,1-1.61-3.72l.67-.87-.38,7.64h-5.81V65.38h6.58V82.65l-.63-1a8.83,8.83,0,0,1,2.93-4.47,8.28,8.28,0,0,1,5.43-1.77,9.24,9.24,0,0,1,5.16,1.48,10.18,10.18,0,0,1,3.6,4.28,15.67,15.67,0,0,1,1.32,6.76,15.48,15.48,0,0,1-1.32,6.68,10,10,0,0,1-3.65,4.27A9.65,9.65,0,0,1,172.94,100.37Zm-2-5a5,5,0,0,0,4.15-1.9,8.71,8.71,0,0,0,1.51-5.54,8.89,8.89,0,0,0-1.49-5.55A5,5,0,0,0,171,80.45a4.87,4.87,0,0,0-3,.91,6,6,0,0,0-2,2.59,11.85,11.85,0,0,0,0,8,5.51,5.51,0,0,0,2,2.54A5,5,0,0,0,171,95.33Z" transform="translate(-0.58)"/><path class="cls-1" d="M198.53,100.37a16.68,16.68,0,0,1-6.65-1.3A12.31,12.31,0,0,1,187,95.42l3.79-3.84a8.8,8.8,0,0,0,7.63,3.94,6.84,6.84,0,0,0,3-.55,1.93,1.93,0,0,0,.6-3.08,4.24,4.24,0,0,0-2.11-.88l-4.22-.87c-2.79-.57-4.76-1.44-5.93-2.61A6.13,6.13,0,0,1,188,83a6.51,6.51,0,0,1,1.17-3.7,8.36,8.36,0,0,1,3.53-2.8,14,14,0,0,1,5.86-1.08,15.83,15.83,0,0,1,6.26,1.13,9.43,9.43,0,0,1,4.2,3.33l-3.94,3.84a7.09,7.09,0,0,0-2.76-2.57,7.61,7.61,0,0,0-3.57-.89,8.17,8.17,0,0,0-2.31.29,3.18,3.18,0,0,0-1.44.8,1.76,1.76,0,0,0-.48,1.27,1.67,1.67,0,0,0,.68,1.32,6.06,6.06,0,0,0,2.44.93l4.9,1a9.19,9.19,0,0,1,5.09,2.42,6,6,0,0,1,1.53,4.11A7.09,7.09,0,0,1,208,96.5a8.19,8.19,0,0,1-3.6,2.84A14.77,14.77,0,0,1,198.53,100.37Z" transform="translate(-0.58)"/></g><g id="Laag_3" data-name="Laag 3"><path class="cls-2" d="M205.48,15.19a20.1,20.1,0,0,1-30.73,21.57l-8.5,2.09,4-6.21h0A19.85,19.85,0,0,1,166.51,25a20.1,20.1,0,1,1,39-9.83Z" transform="translate(-0.58)"/></g></g></svg>