<?xml version="1.0" encoding="utf-8"?>
<!-- Generator: Adobe Illustrator 26.0.3, SVG Export Plug-In . SVG Version: 6.00 Build 0)  -->
<svg version="1.1" id="Layer_1" xmlns="http://www.w3.org/2000/svg" xmlns:xlink="http://www.w3.org/1999/xlink" x="0px" y="0px"
	 viewBox="0 0 347 57.2" style="enable-background:new 0 0 347 57.2;" xml:space="preserve">
<style type="text/css">
	.st0{enable-background:new    ;}
	.st1{fill:#FFFFFF;}
	.st2{fill:#4EE9A4;}
</style>
<g id="Laag_2">
	<g id="Layer_2_00000067936304075239858360000009011983698597929897_">
		<g class="st0">
			<path class="st1" d="M31.2,31.7c-0.6,2-1.6,3.8-2.9,5.1c-1.3,1.4-2.9,2.4-4.7,3.1c-1.8,0.7-3.8,1-5.9,1c-3.1,0-5.8-0.7-8.1-2
				c-2.3-1.3-4-3.2-5.3-5.6c-1.2-2.4-1.8-5.3-1.8-8.7c0-3.4,0.6-6.3,1.8-8.7c1.2-2.4,3-4.3,5.3-5.6c2.3-1.3,5-2,8-2
				c2.2,0,4.1,0.3,5.9,0.9c1.8,0.6,3.3,1.5,4.5,2.7c1.2,1.2,2.1,2.8,2.7,4.6l-6,2.5c-0.5-1.9-1.4-3.3-2.5-4.1
				c-1.1-0.8-2.6-1.2-4.3-1.2c-1.7,0-3.2,0.4-4.5,1.2c-1.3,0.8-2.3,2.1-3,3.7c-0.7,1.6-1.1,3.6-1.1,6c0,2.3,0.3,4.3,1,6
				c0.7,1.6,1.6,2.9,2.9,3.7c1.3,0.8,2.8,1.2,4.7,1.2c1.7,0,3.2-0.5,4.5-1.4c1.3-0.9,2.2-2.3,2.7-4.2L31.2,31.7z"/>
			<path class="st1" d="M47.2,16c2.4,0,4.6,0.5,6.4,1.5c1.8,1,3.3,2.4,4.3,4.3c1,1.9,1.6,4.1,1.6,6.7c0,2.6-0.5,4.8-1.6,6.7
				c-1,1.9-2.5,3.3-4.3,4.3c-1.8,1-4,1.5-6.4,1.5c-2.4,0-4.5-0.5-6.4-1.5c-1.9-1-3.3-2.4-4.3-4.3c-1-1.9-1.6-4.1-1.6-6.7
				c0-2.6,0.5-4.9,1.6-6.7c1-1.9,2.5-3.3,4.3-4.3C42.7,16.5,44.8,16,47.2,16z M47.2,20.9c-1.2,0-2.2,0.3-3.1,0.8
				c-0.8,0.6-1.5,1.4-1.9,2.5c-0.4,1.1-0.7,2.5-0.7,4.2c0,1.7,0.2,3.1,0.7,4.2c0.4,1.1,1.1,2,1.9,2.5c0.8,0.6,1.9,0.8,3.1,0.8
				c1.2,0,2.2-0.3,3-0.8c0.8-0.6,1.5-1.4,1.9-2.5c0.4-1.1,0.7-2.5,0.7-4.2c0-1.7-0.2-3.1-0.7-4.2c-0.4-1.1-1.1-2-1.9-2.5
				C49.4,21.1,48.4,20.9,47.2,20.9z"/>
		</g>
		<g class="st0">
			<path class="st1" d="M65.2,40.5v-24h5.9l0.4,7.2l-0.8-0.8c0.4-1.6,1-2.9,1.8-3.9c0.8-1,1.8-1.8,3-2.3s2.5-0.8,4-0.8
				c1.7,0,3.1,0.3,4.4,1c1.3,0.6,2.3,1.6,3.1,2.9s1.1,2.9,1.1,4.9v15.7h-6.6V26.6c0-2-0.4-3.5-1.2-4.2c-0.8-0.8-1.8-1.2-3.1-1.2
				c-0.9,0-1.8,0.2-2.6,0.6c-0.8,0.4-1.5,1.1-2.1,2.1c-0.5,1-0.8,2.2-0.8,3.8v12.7H65.2z"/>
		</g>
		<g class="st0">
			<path class="st1" d="M110.9,16.5v4.9H92.3v-4.9H110.9z M103.3,9.1v23.5c0,1.2,0.3,2,0.9,2.5c0.6,0.5,1.4,0.8,2.4,0.8
				c0.8,0,1.5-0.1,2.1-0.4c0.6-0.2,1.1-0.6,1.6-1l1.1,4.4c-0.8,0.6-1.7,1.1-2.9,1.4s-2.4,0.5-3.6,0.5c-1.6,0-3-0.2-4.2-0.7
				c-1.2-0.5-2.2-1.2-2.9-2.3c-0.7-1.1-1-2.5-1-4.2V10.9L103.3,9.1z"/>
		</g>
		<g class="st0">
			<path class="st1" d="M129.3,25.1c0-1.4-0.4-2.4-1.2-3.2c-0.8-0.8-1.8-1.2-3.1-1.2c-1.2,0-2.2,0.3-3.1,0.9c-0.9,0.6-1.6,1.6-2,3
				l-5.6-1.7c0.5-2.1,1.7-3.8,3.6-5.1c1.8-1.3,4.3-1.9,7.4-1.9c2.1,0,4,0.3,5.5,1c1.6,0.7,2.8,1.6,3.7,3c0.9,1.3,1.3,3,1.3,4.9v9.7
				c0,1.2,0.6,1.8,1.7,1.8c0.5,0,1.1-0.1,1.5-0.2l-0.4,4.1c-0.8,0.4-1.9,0.6-3.1,0.6c-1.1,0-2.1-0.2-3-0.6c-0.9-0.4-1.6-1-2.1-1.8
				c-0.5-0.8-0.8-1.8-0.8-3v-0.2l1.2-0.2c-0.2,1.2-0.7,2.2-1.6,3.1c-0.9,0.8-1.9,1.5-3.1,1.9c-1.2,0.4-2.5,0.7-3.8,0.7
				c-1.6,0-3-0.2-4.2-0.7c-1.2-0.5-2.1-1.2-2.7-2.2c-0.6-1-1-2.1-1-3.6c0-1.8,0.6-3.3,1.7-4.4s2.8-1.9,4.9-2.3l9-1.8l0,4.1l-5.8,1.2
				c-1.1,0.2-1.9,0.5-2.5,0.9c-0.6,0.4-0.8,1-0.8,1.8c0,0.8,0.3,1.4,0.9,1.8c0.6,0.4,1.3,0.6,2.1,0.6c0.7,0,1.3-0.1,2-0.2
				c0.6-0.2,1.2-0.4,1.7-0.8c0.5-0.4,0.9-0.8,1.2-1.4c0.3-0.6,0.4-1.3,0.4-2.2V25.1z"/>
		</g>
		<g class="st0">
			<path class="st1" d="M153.9,16c2.1,0,4,0.3,5.4,0.9c1.5,0.6,2.7,1.5,3.6,2.5c0.9,1.1,1.6,2.3,1.9,3.6l-6.1,2.2
				c-0.3-1.4-0.9-2.5-1.6-3.3c-0.8-0.7-1.8-1.1-3.1-1.1c-1.2,0-2.3,0.3-3.1,0.8c-0.9,0.6-1.5,1.4-2,2.5c-0.4,1.1-0.7,2.6-0.7,4.2
				c0,1.7,0.2,3.1,0.7,4.2s1.1,2,2,2.5c0.9,0.5,1.9,0.8,3.1,0.8c1,0,1.8-0.2,2.4-0.5c0.7-0.3,1.2-0.8,1.7-1.5
				c0.4-0.6,0.7-1.4,0.9-2.3l6,1.9c-0.4,1.4-1,2.7-2,3.8s-2.2,1.9-3.7,2.5c-1.5,0.6-3.2,0.9-5.2,0.9c-2.5,0-4.6-0.5-6.5-1.5
				c-1.9-1-3.3-2.4-4.4-4.3c-1-1.9-1.5-4.1-1.5-6.7c0-2.6,0.5-4.9,1.5-6.7c1-1.9,2.5-3.3,4.3-4.3C149.4,16.5,151.5,16,153.9,16z"/>
			<path class="st1" d="M186.3,16.5v4.9h-18.7v-4.9H186.3z M178.6,9.1v23.5c0,1.2,0.3,2,0.9,2.5c0.6,0.5,1.4,0.8,2.4,0.8
				c0.8,0,1.5-0.1,2.1-0.4c0.6-0.2,1.1-0.6,1.6-1l1.1,4.4c-0.8,0.6-1.7,1.1-2.9,1.4c-1.2,0.4-2.4,0.5-3.6,0.5c-1.6,0-3-0.2-4.2-0.7
				c-1.2-0.5-2.2-1.2-2.9-2.3c-0.7-1.1-1-2.5-1-4.2V10.9L178.6,9.1z"/>
		</g>
	</g>
	<g id="Laag_3">
		<path class="st2" d="M217.7,10.1c0.4,5.9-4.1,11.1-10,11.5c-3.1,0.2-6.1-0.9-8.3-3l-4.7,0.3l2.7-2.9l0,0c-0.7-1.4-1.2-2.9-1.3-4.4
			c-0.6-5.9,3.8-11.2,9.7-11.8c5.9-0.6,11.2,3.8,11.8,9.7C217.6,9.6,217.7,9.8,217.7,10.1L217.7,10.1z"/>
	</g>
</g>
</svg>
