<?xml version="1.0" encoding="utf-8"?>
<!-- Generator: Adobe Illustrator 26.0.3, SVG Export Plug-In . SVG Version: 6.00 Build 0)  -->
<svg version="1.1" id="Layer_1" xmlns="http://www.w3.org/2000/svg" xmlns:xlink="http://www.w3.org/1999/xlink" x="0px" y="0px"
	 viewBox="0 0 347 57.2" style="enable-background:new 0 0 347 57.2;" xml:space="preserve">
<style type="text/css">
	.st0{enable-background:new    ;}
	.st1{fill:#FFFFFF;}
	.st2{fill:#4EE9A4;}
</style>
<g id="Laag_2">
	<g id="Layer_2_00000023281765537806423910000006961934627487544992_">
		<g class="st0">
			<path class="st1" d="M27.8,14.1H10.8v8h13.5v5.4H10.8v13H4.1V8.8h23.7V14.1z"/>
		</g>
		<g class="st0">
			<path class="st1" d="M57.8,40.4H51l-2.6-7.7H36.2l-2.6,7.7h-6.8L38.4,8.8h7.9L57.8,40.4z M37.7,27.8h9.2L42.2,14L37.7,27.8z"/>
		</g>
		<g class="st0">
			<path class="st1" d="M75.1,8.3c3.1,0,5.8,0.7,8.1,2c2.3,1.3,4,3.2,5.3,5.6c1.2,2.4,1.8,5.3,1.8,8.7c0,3.4-0.6,6.3-1.8,8.7
				c-1.2,2.4-3,4.3-5.3,5.6c-2.3,1.3-5,2-8.1,2c-3.1,0-5.8-0.7-8.1-2c-2.3-1.3-4-3.2-5.3-5.6c-1.2-2.4-1.8-5.3-1.8-8.7
				c0-3.4,0.6-6.3,1.8-8.7c1.2-2.4,3-4.3,5.3-5.6C69.2,8.9,71.9,8.3,75.1,8.3z M75.1,13.7c-1.8,0-3.3,0.4-4.5,1.2
				c-1.3,0.8-2.2,2.1-2.9,3.7c-0.7,1.6-1,3.6-1,6s0.3,4.3,1,6c0.7,1.6,1.6,2.9,2.9,3.7c1.3,0.8,2.8,1.2,4.5,1.2
				c1.8,0,3.3-0.4,4.5-1.2s2.2-2.1,2.9-3.7c0.7-1.6,1-3.6,1-6s-0.3-4.3-1-6s-1.6-2.9-2.9-3.7C78.3,14.1,76.8,13.7,75.1,13.7z
				 M82.9,50c-1.9,0-3.7-0.3-5.2-1c-1.6-0.7-2.8-1.7-3.7-3.1s-1.3-3.2-1.3-5.4c0-0.5,0.1-1.1,0.2-1.6s0.3-1.1,0.6-1.7l4.3-0.7
				c-0.2,0.6-0.4,1.1-0.5,1.6c-0.1,0.5-0.2,0.9-0.2,1.3c0,1.5,0.3,2.6,0.8,3.4c0.5,0.8,1.3,1.3,2.2,1.6c0.9,0.3,1.9,0.4,3,0.4
				c1.3,0,2.4-0.2,3.4-0.5c0.9-0.3,1.7-0.7,2.4-1.3L90,48c-0.8,0.6-1.9,1.1-3.2,1.5S84.2,50,82.9,50z"/>
		</g>
	</g>
	<g id="Laag_3">
		<path class="st2" d="M122.6,10.1c0.4,5.9-4.1,11.1-10,11.5c-3.1,0.2-6.1-0.9-8.3-3l-4.7,0.3l2.7-2.9l0,0
			c-2.8-5.2-0.9-11.8,4.4-14.6s11.8-0.9,14.6,4.4C122,7,122.5,8.5,122.6,10.1z"/>
	</g>
</g>
</svg>
