<?xml version="1.0" encoding="utf-8"?>
<!-- Generator: Adobe Illustrator 26.0.3, SVG Export Plug-In . SVG Version: 6.00 Build 0)  -->
<svg version="1.1" id="Layer_1" xmlns="http://www.w3.org/2000/svg" xmlns:xlink="http://www.w3.org/1999/xlink" x="0px" y="0px"
	 viewBox="0 0 86.8 14" style="enable-background:new 0 0 86.8 14;" xml:space="preserve">
<style type="text/css">
	.st0{enable-background:new    ;}
	.st1{fill:#FFFFFF;}
	.st2{fill:none;stroke:#FFFFFF;stroke-width:0.5;stroke-miterlimit:10;}
</style>
<g id="Laag_2">
	<g id="Layer_2_00000019650121774868921510000010269061416693337216_">
		<g class="st0">
			<path class="st1" d="M7.4,2l-3,7.9H3.3L0.3,2h1l2,5.5l0.5,1.6l0.5-1.6l2-5.5H7.4z"/>
			<path class="st1" d="M9.4,2.8C9.2,2.8,9,2.7,8.9,2.6C8.7,2.5,8.7,2.3,8.7,2.1s0.1-0.4,0.2-0.5C9,1.4,9.2,1.4,9.4,1.4
				c0.2,0,0.4,0.1,0.5,0.2c0.1,0.1,0.2,0.3,0.2,0.5S10,2.5,9.9,2.6C9.8,2.7,9.6,2.8,9.4,2.8z M9.9,4v6h-1V4H9.9z"/>
		</g>
		<g class="st0">
			<path class="st1" d="M14.6,10.1c-0.6,0-1.1-0.1-1.5-0.4c-0.4-0.2-0.8-0.6-1-1.1s-0.4-1-0.4-1.7s0.1-1.2,0.4-1.7s0.6-0.8,1-1.1
				C13.5,4,14,3.8,14.5,3.8c0.6,0,1,0.1,1.4,0.4c0.4,0.2,0.7,0.6,0.9,1s0.3,0.9,0.3,1.4c0,0.1,0,0.3,0,0.4c0,0.1,0,0.2,0,0.3h-4.8
				V6.4h4.4l-0.5,0.1c0-0.6-0.2-1-0.5-1.3c-0.3-0.3-0.7-0.5-1.2-0.5c-0.4,0-0.7,0.1-1,0.3c-0.3,0.2-0.5,0.4-0.7,0.8
				c-0.2,0.3-0.2,0.8-0.2,1.2c0,0.5,0.1,0.9,0.2,1.2C13,8.5,13.2,8.8,13.5,9c0.3,0.2,0.6,0.3,1.1,0.3c0.4,0,0.8-0.1,1.1-0.3
				c0.3-0.2,0.5-0.4,0.7-0.7l0.8,0.4c-0.2,0.3-0.3,0.5-0.6,0.7c-0.2,0.2-0.5,0.4-0.8,0.5C15.3,10,15,10.1,14.6,10.1z"/>
		</g>
		<g class="st0">
			<path class="st1" d="M26.4,4h1.1l-2.1,6h-1l-1.7-4.8L21.2,10h-1l-2.1-6h1.1l1.5,4.9L22.3,4h1l1.6,4.9L26.4,4z"/>
		</g>
		<g class="st0">
			<path class="st1" d="M33,10V4h0.8l0.1,0.9c0.2-0.4,0.5-0.6,0.8-0.8c0.3-0.2,0.7-0.3,1.1-0.3c0.4,0,0.8,0.1,1.2,0.3
				c0.4,0.2,0.7,0.5,0.9,0.9c0.1-0.3,0.3-0.5,0.5-0.7C38.7,4.2,38.9,4,39.2,4c0.3-0.1,0.5-0.1,0.8-0.1c0.4,0,0.8,0.1,1.1,0.2
				s0.6,0.4,0.9,0.7s0.3,0.8,0.3,1.3V10h-1V6.2c0-0.5-0.1-0.9-0.4-1.2c-0.3-0.2-0.6-0.4-1-0.4c-0.3,0-0.6,0.1-0.9,0.2
				c-0.3,0.2-0.5,0.4-0.7,0.7c-0.2,0.3-0.2,0.7-0.2,1.1V10h-1V6.2c0-0.5-0.1-0.9-0.4-1.2s-0.6-0.4-1-0.4c-0.3,0-0.5,0.1-0.8,0.2
				c-0.3,0.1-0.5,0.4-0.7,0.7C34.1,5.9,34,6.3,34,6.8V10H33z"/>
			<path class="st1" d="M46.9,3.8c0.6,0,1.1,0.1,1.5,0.4c0.4,0.2,0.8,0.6,1,1.1s0.4,1,0.4,1.7s-0.1,1.2-0.4,1.7s-0.6,0.8-1,1.1
				c-0.4,0.2-0.9,0.4-1.5,0.4c-0.6,0-1.1-0.1-1.5-0.4c-0.4-0.2-0.8-0.6-1-1.1S44,7.6,44,7s0.1-1.2,0.4-1.7s0.6-0.8,1-1.1
				C45.9,4,46.4,3.8,46.9,3.8z M46.9,4.7c-0.4,0-0.8,0.1-1,0.3c-0.3,0.2-0.5,0.4-0.7,0.8C45.1,6.1,45,6.5,45,7
				c0,0.5,0.1,0.9,0.2,1.2c0.2,0.3,0.4,0.6,0.7,0.8c0.3,0.2,0.6,0.3,1,0.3s0.8-0.1,1-0.3c0.3-0.2,0.5-0.4,0.7-0.8
				c0.2-0.3,0.2-0.8,0.2-1.2c0-0.5-0.1-0.9-0.2-1.2c-0.2-0.3-0.4-0.6-0.7-0.8C47.7,4.8,47.3,4.7,46.9,4.7z"/>
		</g>
		<g class="st0">
			<path class="st1" d="M51.7,10V4h0.8l0.1,1c0.2-0.4,0.4-0.6,0.7-0.8c0.3-0.2,0.7-0.3,1.2-0.3c0.1,0,0.2,0,0.3,0
				c0.1,0,0.2,0,0.3,0.1l-0.2,0.9c-0.1,0-0.2-0.1-0.3-0.1c-0.1,0-0.3,0-0.4,0c-0.2,0-0.5,0.1-0.8,0.2c-0.3,0.1-0.5,0.4-0.6,0.7
				s-0.3,0.7-0.3,1.1V10H51.7z"/>
		</g>
		<g class="st0">
			<path class="st1" d="M59,10.1c-0.6,0-1.1-0.1-1.5-0.4c-0.4-0.2-0.8-0.6-1-1.1S56,7.6,56,7s0.1-1.2,0.4-1.7s0.6-0.8,1-1.1
				c0.4-0.2,0.9-0.4,1.5-0.4c0.6,0,1,0.1,1.4,0.4c0.4,0.2,0.7,0.6,0.9,1s0.3,0.9,0.3,1.4c0,0.1,0,0.3,0,0.4c0,0.1,0,0.2,0,0.3h-4.8
				V6.4h4.4l-0.5,0.1c0-0.6-0.2-1-0.5-1.3c-0.3-0.3-0.7-0.5-1.2-0.5c-0.4,0-0.7,0.1-1,0.3c-0.3,0.2-0.5,0.4-0.7,0.8
				C57,6.1,57,6.5,57,7c0,0.5,0.1,0.9,0.2,1.2c0.2,0.3,0.4,0.6,0.7,0.8c0.3,0.2,0.6,0.3,1,0.3c0.4,0,0.8-0.1,1.1-0.3
				s0.5-0.4,0.7-0.7l0.8,0.4c-0.2,0.3-0.3,0.5-0.6,0.7S60.3,9.8,60,9.9C59.7,10,59.3,10.1,59,10.1z"/>
		</g>
		<line class="st2" x1="86.2" y1="6.9" x2="69.1" y2="6.9"/>
		<polyline class="st2" points="81.7,2.6 86.5,6.9 81.7,11.1 		"/>
	</g>
</g>
</svg>
